<?xml version="1.0" encoding="utf-8" standalone="no"?>
<!DOCTYPE svg PUBLIC "-//W3C//DTD SVG 1.1//EN"
  "http://www.w3.org/Graphics/SVG/1.1/DTD/svg11.dtd">
<svg height="717.597812pt" version="1.1" viewBox="0 0 468.603437 717.597812" width="468.603437pt" xmlns="http://www.w3.org/2000/svg" xmlns:xlink="http://www.w3.org/1999/xlink">
 <metadata>
  <rdf:RDF xmlns:cc="http://creativecommons.org/ns#" xmlns:dc="http://purl.org/dc/elements/1.1/" xmlns:rdf="http://www.w3.org/1999/02/22-rdf-syntax-ns#">
   <cc:Work>
    <dc:type rdf:resource="http://purl.org/dc/dcmitype/StillImage"/>
    <dc:date>2021-12-08T19:06:30.900244</dc:date>
    <dc:format>image/svg+xml</dc:format>
    <dc:creator>
     <cc:Agent>
      <dc:title>Matplotlib v3.4.3, https://matplotlib.org/</dc:title>
     </cc:Agent>
    </dc:creator>
   </cc:Work>
  </rdf:RDF>
 </metadata>
 <defs>
  <style type="text/css">*{stroke-linecap:butt;stroke-linejoin:round;}</style>
 </defs>
 <g id="figure_1">
  <g id="patch_1">
   <path d="M 0 717.597812 
L 468.603437 717.597812 
L 468.603437 0 
L 0 0 
z
" style="fill:#ffffff;"/>
  </g>
  <g id="axes_1">
   <g id="patch_2">
    <path d="M 70.803438 318.827216 
L 461.403437 318.827216 
L 461.403437 22.318125 
L 70.803438 22.318125 
z
" style="fill:#eaeaf2;"/>
   </g>
   <g id="matplotlib.axis_1">
    <g id="xtick_1">
     <g id="line2d_1">
      <path clip-path="url(#pd4087321df)" d="M 88.557983 318.827216 
L 88.557983 22.318125 
" style="fill:none;stroke:#ffffff;stroke-linecap:round;"/>
     </g>
    </g>
    <g id="xtick_2">
     <g id="line2d_2">
      <path clip-path="url(#pd4087321df)" d="M 160.29352 318.827216 
L 160.29352 22.318125 
" style="fill:none;stroke:#ffffff;stroke-linecap:round;"/>
     </g>
    </g>
    <g id="xtick_3">
     <g id="line2d_3">
      <path clip-path="url(#pd4087321df)" d="M 232.029057 318.827216 
L 232.029057 22.318125 
" style="fill:none;stroke:#ffffff;stroke-linecap:round;"/>
     </g>
    </g>
    <g id="xtick_4">
     <g id="line2d_4">
      <path clip-path="url(#pd4087321df)" d="M 303.764595 318.827216 
L 303.764595 22.318125 
" style="fill:none;stroke:#ffffff;stroke-linecap:round;"/>
     </g>
    </g>
    <g id="xtick_5">
     <g id="line2d_5">
      <path clip-path="url(#pd4087321df)" d="M 375.500132 318.827216 
L 375.500132 22.318125 
" style="fill:none;stroke:#ffffff;stroke-linecap:round;"/>
     </g>
    </g>
    <g id="xtick_6">
     <g id="line2d_6">
      <path clip-path="url(#pd4087321df)" d="M 447.235669 318.827216 
L 447.235669 22.318125 
" style="fill:none;stroke:#ffffff;stroke-linecap:round;"/>
     </g>
    </g>
    <g id="text_1">
     <!-- Epoch -->
     <g style="fill:#262626;" transform="translate(247.730313 331.945341)scale(0.12 -0.12)">
      <defs>
       <path d="M 628 4666 
L 3578 4666 
L 3578 4134 
L 1259 4134 
L 1259 2753 
L 3481 2753 
L 3481 2222 
L 1259 2222 
L 1259 531 
L 3634 531 
L 3634 0 
L 628 0 
L 628 4666 
z
" id="DejaVuSans-45" transform="scale(0.015625)"/>
       <path d="M 1159 525 
L 1159 -1331 
L 581 -1331 
L 581 3500 
L 1159 3500 
L 1159 2969 
Q 1341 3281 1617 3432 
Q 1894 3584 2278 3584 
Q 2916 3584 3314 3078 
Q 3713 2572 3713 1747 
Q 3713 922 3314 415 
Q 2916 -91 2278 -91 
Q 1894 -91 1617 61 
Q 1341 213 1159 525 
z
M 3116 1747 
Q 3116 2381 2855 2742 
Q 2594 3103 2138 3103 
Q 1681 3103 1420 2742 
Q 1159 2381 1159 1747 
Q 1159 1113 1420 752 
Q 1681 391 2138 391 
Q 2594 391 2855 752 
Q 3116 1113 3116 1747 
z
" id="DejaVuSans-70" transform="scale(0.015625)"/>
       <path d="M 1959 3097 
Q 1497 3097 1228 2736 
Q 959 2375 959 1747 
Q 959 1119 1226 758 
Q 1494 397 1959 397 
Q 2419 397 2687 759 
Q 2956 1122 2956 1747 
Q 2956 2369 2687 2733 
Q 2419 3097 1959 3097 
z
M 1959 3584 
Q 2709 3584 3137 3096 
Q 3566 2609 3566 1747 
Q 3566 888 3137 398 
Q 2709 -91 1959 -91 
Q 1206 -91 779 398 
Q 353 888 353 1747 
Q 353 2609 779 3096 
Q 1206 3584 1959 3584 
z
" id="DejaVuSans-6f" transform="scale(0.015625)"/>
       <path d="M 3122 3366 
L 3122 2828 
Q 2878 2963 2633 3030 
Q 2388 3097 2138 3097 
Q 1578 3097 1268 2742 
Q 959 2388 959 1747 
Q 959 1106 1268 751 
Q 1578 397 2138 397 
Q 2388 397 2633 464 
Q 2878 531 3122 666 
L 3122 134 
Q 2881 22 2623 -34 
Q 2366 -91 2075 -91 
Q 1284 -91 818 406 
Q 353 903 353 1747 
Q 353 2603 823 3093 
Q 1294 3584 2113 3584 
Q 2378 3584 2631 3529 
Q 2884 3475 3122 3366 
z
" id="DejaVuSans-63" transform="scale(0.015625)"/>
       <path d="M 3513 2113 
L 3513 0 
L 2938 0 
L 2938 2094 
Q 2938 2591 2744 2837 
Q 2550 3084 2163 3084 
Q 1697 3084 1428 2787 
Q 1159 2491 1159 1978 
L 1159 0 
L 581 0 
L 581 4863 
L 1159 4863 
L 1159 2956 
Q 1366 3272 1645 3428 
Q 1925 3584 2291 3584 
Q 2894 3584 3203 3211 
Q 3513 2838 3513 2113 
z
" id="DejaVuSans-68" transform="scale(0.015625)"/>
      </defs>
      <use xlink:href="#DejaVuSans-45"/>
      <use x="63.183594" xlink:href="#DejaVuSans-70"/>
      <use x="126.660156" xlink:href="#DejaVuSans-6f"/>
      <use x="187.841797" xlink:href="#DejaVuSans-63"/>
      <use x="242.822266" xlink:href="#DejaVuSans-68"/>
     </g>
    </g>
   </g>
   <g id="matplotlib.axis_2">
    <g id="ytick_1">
     <g id="line2d_7">
      <path clip-path="url(#pd4087321df)" d="M 70.803438 279.910089 
L 461.403437 279.910089 
" style="fill:none;stroke:#ffffff;stroke-linecap:round;"/>
     </g>
     <g id="text_2">
      <!-- 0.0000 -->
      <g style="fill:#262626;" transform="translate(22.81375 284.08923)scale(0.11 -0.11)">
       <defs>
        <path d="M 2034 4250 
Q 1547 4250 1301 3770 
Q 1056 3291 1056 2328 
Q 1056 1369 1301 889 
Q 1547 409 2034 409 
Q 2525 409 2770 889 
Q 3016 1369 3016 2328 
Q 3016 3291 2770 3770 
Q 2525 4250 2034 4250 
z
M 2034 4750 
Q 2819 4750 3233 4129 
Q 3647 3509 3647 2328 
Q 3647 1150 3233 529 
Q 2819 -91 2034 -91 
Q 1250 -91 836 529 
Q 422 1150 422 2328 
Q 422 3509 836 4129 
Q 1250 4750 2034 4750 
z
" id="DejaVuSans-30" transform="scale(0.015625)"/>
        <path d="M 684 794 
L 1344 794 
L 1344 0 
L 684 0 
L 684 794 
z
" id="DejaVuSans-2e" transform="scale(0.015625)"/>
       </defs>
       <use xlink:href="#DejaVuSans-30"/>
       <use x="63.623047" xlink:href="#DejaVuSans-2e"/>
       <use x="95.410156" xlink:href="#DejaVuSans-30"/>
       <use x="159.033203" xlink:href="#DejaVuSans-30"/>
       <use x="222.65625" xlink:href="#DejaVuSans-30"/>
       <use x="286.279297" xlink:href="#DejaVuSans-30"/>
      </g>
     </g>
    </g>
    <g id="ytick_2">
     <g id="line2d_8">
      <path clip-path="url(#pd4087321df)" d="M 70.803438 239.961597 
L 461.403437 239.961597 
" style="fill:none;stroke:#ffffff;stroke-linecap:round;"/>
     </g>
     <g id="text_3">
      <!-- 0.0005 -->
      <g style="fill:#262626;" transform="translate(22.81375 244.140738)scale(0.11 -0.11)">
       <defs>
        <path d="M 691 4666 
L 3169 4666 
L 3169 4134 
L 1269 4134 
L 1269 2991 
Q 1406 3038 1543 3061 
Q 1681 3084 1819 3084 
Q 2600 3084 3056 2656 
Q 3513 2228 3513 1497 
Q 3513 744 3044 326 
Q 2575 -91 1722 -91 
Q 1428 -91 1123 -41 
Q 819 9 494 109 
L 494 744 
Q 775 591 1075 516 
Q 1375 441 1709 441 
Q 2250 441 2565 725 
Q 2881 1009 2881 1497 
Q 2881 1984 2565 2268 
Q 2250 2553 1709 2553 
Q 1456 2553 1204 2497 
Q 953 2441 691 2322 
L 691 4666 
z
" id="DejaVuSans-35" transform="scale(0.015625)"/>
       </defs>
       <use xlink:href="#DejaVuSans-30"/>
       <use x="63.623047" xlink:href="#DejaVuSans-2e"/>
       <use x="95.410156" xlink:href="#DejaVuSans-30"/>
       <use x="159.033203" xlink:href="#DejaVuSans-30"/>
       <use x="222.65625" xlink:href="#DejaVuSans-30"/>
       <use x="286.279297" xlink:href="#DejaVuSans-35"/>
      </g>
     </g>
    </g>
    <g id="ytick_3">
     <g id="line2d_9">
      <path clip-path="url(#pd4087321df)" d="M 70.803438 200.013105 
L 461.403437 200.013105 
" style="fill:none;stroke:#ffffff;stroke-linecap:round;"/>
     </g>
     <g id="text_4">
      <!-- 0.0010 -->
      <g style="fill:#262626;" transform="translate(22.81375 204.192245)scale(0.11 -0.11)">
       <defs>
        <path d="M 794 531 
L 1825 531 
L 1825 4091 
L 703 3866 
L 703 4441 
L 1819 4666 
L 2450 4666 
L 2450 531 
L 3481 531 
L 3481 0 
L 794 0 
L 794 531 
z
" id="DejaVuSans-31" transform="scale(0.015625)"/>
       </defs>
       <use xlink:href="#DejaVuSans-30"/>
       <use x="63.623047" xlink:href="#DejaVuSans-2e"/>
       <use x="95.410156" xlink:href="#DejaVuSans-30"/>
       <use x="159.033203" xlink:href="#DejaVuSans-30"/>
       <use x="222.65625" xlink:href="#DejaVuSans-31"/>
       <use x="286.279297" xlink:href="#DejaVuSans-30"/>
      </g>
     </g>
    </g>
    <g id="ytick_4">
     <g id="line2d_10">
      <path clip-path="url(#pd4087321df)" d="M 70.803438 160.064612 
L 461.403437 160.064612 
" style="fill:none;stroke:#ffffff;stroke-linecap:round;"/>
     </g>
     <g id="text_5">
      <!-- 0.0015 -->
      <g style="fill:#262626;" transform="translate(22.81375 164.243753)scale(0.11 -0.11)">
       <use xlink:href="#DejaVuSans-30"/>
       <use x="63.623047" xlink:href="#DejaVuSans-2e"/>
       <use x="95.410156" xlink:href="#DejaVuSans-30"/>
       <use x="159.033203" xlink:href="#DejaVuSans-30"/>
       <use x="222.65625" xlink:href="#DejaVuSans-31"/>
       <use x="286.279297" xlink:href="#DejaVuSans-35"/>
      </g>
     </g>
    </g>
    <g id="ytick_5">
     <g id="line2d_11">
      <path clip-path="url(#pd4087321df)" d="M 70.803438 120.11612 
L 461.403437 120.11612 
" style="fill:none;stroke:#ffffff;stroke-linecap:round;"/>
     </g>
     <g id="text_6">
      <!-- 0.0020 -->
      <g style="fill:#262626;" transform="translate(22.81375 124.295261)scale(0.11 -0.11)">
       <defs>
        <path d="M 1228 531 
L 3431 531 
L 3431 0 
L 469 0 
L 469 531 
Q 828 903 1448 1529 
Q 2069 2156 2228 2338 
Q 2531 2678 2651 2914 
Q 2772 3150 2772 3378 
Q 2772 3750 2511 3984 
Q 2250 4219 1831 4219 
Q 1534 4219 1204 4116 
Q 875 4013 500 3803 
L 500 4441 
Q 881 4594 1212 4672 
Q 1544 4750 1819 4750 
Q 2544 4750 2975 4387 
Q 3406 4025 3406 3419 
Q 3406 3131 3298 2873 
Q 3191 2616 2906 2266 
Q 2828 2175 2409 1742 
Q 1991 1309 1228 531 
z
" id="DejaVuSans-32" transform="scale(0.015625)"/>
       </defs>
       <use xlink:href="#DejaVuSans-30"/>
       <use x="63.623047" xlink:href="#DejaVuSans-2e"/>
       <use x="95.410156" xlink:href="#DejaVuSans-30"/>
       <use x="159.033203" xlink:href="#DejaVuSans-30"/>
       <use x="222.65625" xlink:href="#DejaVuSans-32"/>
       <use x="286.279297" xlink:href="#DejaVuSans-30"/>
      </g>
     </g>
    </g>
    <g id="ytick_6">
     <g id="line2d_12">
      <path clip-path="url(#pd4087321df)" d="M 70.803438 80.167628 
L 461.403437 80.167628 
" style="fill:none;stroke:#ffffff;stroke-linecap:round;"/>
     </g>
     <g id="text_7">
      <!-- 0.0025 -->
      <g style="fill:#262626;" transform="translate(22.81375 84.346768)scale(0.11 -0.11)">
       <use xlink:href="#DejaVuSans-30"/>
       <use x="63.623047" xlink:href="#DejaVuSans-2e"/>
       <use x="95.410156" xlink:href="#DejaVuSans-30"/>
       <use x="159.033203" xlink:href="#DejaVuSans-30"/>
       <use x="222.65625" xlink:href="#DejaVuSans-32"/>
       <use x="286.279297" xlink:href="#DejaVuSans-35"/>
      </g>
     </g>
    </g>
    <g id="ytick_7">
     <g id="line2d_13">
      <path clip-path="url(#pd4087321df)" d="M 70.803438 40.219135 
L 461.403437 40.219135 
" style="fill:none;stroke:#ffffff;stroke-linecap:round;"/>
     </g>
     <g id="text_8">
      <!-- 0.0030 -->
      <g style="fill:#262626;" transform="translate(22.81375 44.398276)scale(0.11 -0.11)">
       <defs>
        <path d="M 2597 2516 
Q 3050 2419 3304 2112 
Q 3559 1806 3559 1356 
Q 3559 666 3084 287 
Q 2609 -91 1734 -91 
Q 1441 -91 1130 -33 
Q 819 25 488 141 
L 488 750 
Q 750 597 1062 519 
Q 1375 441 1716 441 
Q 2309 441 2620 675 
Q 2931 909 2931 1356 
Q 2931 1769 2642 2001 
Q 2353 2234 1838 2234 
L 1294 2234 
L 1294 2753 
L 1863 2753 
Q 2328 2753 2575 2939 
Q 2822 3125 2822 3475 
Q 2822 3834 2567 4026 
Q 2313 4219 1838 4219 
Q 1578 4219 1281 4162 
Q 984 4106 628 3988 
L 628 4550 
Q 988 4650 1302 4700 
Q 1616 4750 1894 4750 
Q 2613 4750 3031 4423 
Q 3450 4097 3450 3541 
Q 3450 3153 3228 2886 
Q 3006 2619 2597 2516 
z
" id="DejaVuSans-33" transform="scale(0.015625)"/>
       </defs>
       <use xlink:href="#DejaVuSans-30"/>
       <use x="63.623047" xlink:href="#DejaVuSans-2e"/>
       <use x="95.410156" xlink:href="#DejaVuSans-30"/>
       <use x="159.033203" xlink:href="#DejaVuSans-30"/>
       <use x="222.65625" xlink:href="#DejaVuSans-33"/>
       <use x="286.279297" xlink:href="#DejaVuSans-30"/>
      </g>
     </g>
    </g>
    <g id="text_9">
     <!-- Property Prediction Loss -->
     <g style="fill:#262626;" transform="translate(16.318125 242.73767)rotate(-90)scale(0.12 -0.12)">
      <defs>
       <path d="M 1259 4147 
L 1259 2394 
L 2053 2394 
Q 2494 2394 2734 2622 
Q 2975 2850 2975 3272 
Q 2975 3691 2734 3919 
Q 2494 4147 2053 4147 
L 1259 4147 
z
M 628 4666 
L 2053 4666 
Q 2838 4666 3239 4311 
Q 3641 3956 3641 3272 
Q 3641 2581 3239 2228 
Q 2838 1875 2053 1875 
L 1259 1875 
L 1259 0 
L 628 0 
L 628 4666 
z
" id="DejaVuSans-50" transform="scale(0.015625)"/>
       <path d="M 2631 2963 
Q 2534 3019 2420 3045 
Q 2306 3072 2169 3072 
Q 1681 3072 1420 2755 
Q 1159 2438 1159 1844 
L 1159 0 
L 581 0 
L 581 3500 
L 1159 3500 
L 1159 2956 
Q 1341 3275 1631 3429 
Q 1922 3584 2338 3584 
Q 2397 3584 2469 3576 
Q 2541 3569 2628 3553 
L 2631 2963 
z
" id="DejaVuSans-72" transform="scale(0.015625)"/>
       <path d="M 3597 1894 
L 3597 1613 
L 953 1613 
Q 991 1019 1311 708 
Q 1631 397 2203 397 
Q 2534 397 2845 478 
Q 3156 559 3463 722 
L 3463 178 
Q 3153 47 2828 -22 
Q 2503 -91 2169 -91 
Q 1331 -91 842 396 
Q 353 884 353 1716 
Q 353 2575 817 3079 
Q 1281 3584 2069 3584 
Q 2775 3584 3186 3129 
Q 3597 2675 3597 1894 
z
M 3022 2063 
Q 3016 2534 2758 2815 
Q 2500 3097 2075 3097 
Q 1594 3097 1305 2825 
Q 1016 2553 972 2059 
L 3022 2063 
z
" id="DejaVuSans-65" transform="scale(0.015625)"/>
       <path d="M 1172 4494 
L 1172 3500 
L 2356 3500 
L 2356 3053 
L 1172 3053 
L 1172 1153 
Q 1172 725 1289 603 
Q 1406 481 1766 481 
L 2356 481 
L 2356 0 
L 1766 0 
Q 1100 0 847 248 
Q 594 497 594 1153 
L 594 3053 
L 172 3053 
L 172 3500 
L 594 3500 
L 594 4494 
L 1172 4494 
z
" id="DejaVuSans-74" transform="scale(0.015625)"/>
       <path d="M 2059 -325 
Q 1816 -950 1584 -1140 
Q 1353 -1331 966 -1331 
L 506 -1331 
L 506 -850 
L 844 -850 
Q 1081 -850 1212 -737 
Q 1344 -625 1503 -206 
L 1606 56 
L 191 3500 
L 800 3500 
L 1894 763 
L 2988 3500 
L 3597 3500 
L 2059 -325 
z
" id="DejaVuSans-79" transform="scale(0.015625)"/>
       <path id="DejaVuSans-20" transform="scale(0.015625)"/>
       <path d="M 2906 2969 
L 2906 4863 
L 3481 4863 
L 3481 0 
L 2906 0 
L 2906 525 
Q 2725 213 2448 61 
Q 2172 -91 1784 -91 
Q 1150 -91 751 415 
Q 353 922 353 1747 
Q 353 2572 751 3078 
Q 1150 3584 1784 3584 
Q 2172 3584 2448 3432 
Q 2725 3281 2906 2969 
z
M 947 1747 
Q 947 1113 1208 752 
Q 1469 391 1925 391 
Q 2381 391 2643 752 
Q 2906 1113 2906 1747 
Q 2906 2381 2643 2742 
Q 2381 3103 1925 3103 
Q 1469 3103 1208 2742 
Q 947 2381 947 1747 
z
" id="DejaVuSans-64" transform="scale(0.015625)"/>
       <path d="M 603 3500 
L 1178 3500 
L 1178 0 
L 603 0 
L 603 3500 
z
M 603 4863 
L 1178 4863 
L 1178 4134 
L 603 4134 
L 603 4863 
z
" id="DejaVuSans-69" transform="scale(0.015625)"/>
       <path d="M 3513 2113 
L 3513 0 
L 2938 0 
L 2938 2094 
Q 2938 2591 2744 2837 
Q 2550 3084 2163 3084 
Q 1697 3084 1428 2787 
Q 1159 2491 1159 1978 
L 1159 0 
L 581 0 
L 581 3500 
L 1159 3500 
L 1159 2956 
Q 1366 3272 1645 3428 
Q 1925 3584 2291 3584 
Q 2894 3584 3203 3211 
Q 3513 2838 3513 2113 
z
" id="DejaVuSans-6e" transform="scale(0.015625)"/>
       <path d="M 628 4666 
L 1259 4666 
L 1259 531 
L 3531 531 
L 3531 0 
L 628 0 
L 628 4666 
z
" id="DejaVuSans-4c" transform="scale(0.015625)"/>
       <path d="M 2834 3397 
L 2834 2853 
Q 2591 2978 2328 3040 
Q 2066 3103 1784 3103 
Q 1356 3103 1142 2972 
Q 928 2841 928 2578 
Q 928 2378 1081 2264 
Q 1234 2150 1697 2047 
L 1894 2003 
Q 2506 1872 2764 1633 
Q 3022 1394 3022 966 
Q 3022 478 2636 193 
Q 2250 -91 1575 -91 
Q 1294 -91 989 -36 
Q 684 19 347 128 
L 347 722 
Q 666 556 975 473 
Q 1284 391 1588 391 
Q 1994 391 2212 530 
Q 2431 669 2431 922 
Q 2431 1156 2273 1281 
Q 2116 1406 1581 1522 
L 1381 1569 
Q 847 1681 609 1914 
Q 372 2147 372 2553 
Q 372 3047 722 3315 
Q 1072 3584 1716 3584 
Q 2034 3584 2315 3537 
Q 2597 3491 2834 3397 
z
" id="DejaVuSans-73" transform="scale(0.015625)"/>
      </defs>
      <use xlink:href="#DejaVuSans-50"/>
      <use x="58.552734" xlink:href="#DejaVuSans-72"/>
      <use x="97.416016" xlink:href="#DejaVuSans-6f"/>
      <use x="158.597656" xlink:href="#DejaVuSans-70"/>
      <use x="222.074219" xlink:href="#DejaVuSans-65"/>
      <use x="283.597656" xlink:href="#DejaVuSans-72"/>
      <use x="324.710938" xlink:href="#DejaVuSans-74"/>
      <use x="363.919922" xlink:href="#DejaVuSans-79"/>
      <use x="423.099609" xlink:href="#DejaVuSans-20"/>
      <use x="454.886719" xlink:href="#DejaVuSans-50"/>
      <use x="513.439453" xlink:href="#DejaVuSans-72"/>
      <use x="552.302734" xlink:href="#DejaVuSans-65"/>
      <use x="613.826172" xlink:href="#DejaVuSans-64"/>
      <use x="677.302734" xlink:href="#DejaVuSans-69"/>
      <use x="705.085938" xlink:href="#DejaVuSans-63"/>
      <use x="760.066406" xlink:href="#DejaVuSans-74"/>
      <use x="799.275391" xlink:href="#DejaVuSans-69"/>
      <use x="827.058594" xlink:href="#DejaVuSans-6f"/>
      <use x="888.240234" xlink:href="#DejaVuSans-6e"/>
      <use x="951.619141" xlink:href="#DejaVuSans-20"/>
      <use x="983.40625" xlink:href="#DejaVuSans-4c"/>
      <use x="1037.369141" xlink:href="#DejaVuSans-6f"/>
      <use x="1098.550781" xlink:href="#DejaVuSans-73"/>
      <use x="1150.650391" xlink:href="#DejaVuSans-73"/>
     </g>
    </g>
   </g>
   <g id="line2d_14">
    <path clip-path="url(#pd4087321df)" d="M 91.94824 -1 
L 92.14476 36.613999 
L 95.731537 100.751282 
L 99.318314 150.873709 
L 102.90509 198.825111 
L 106.491867 221.215818 
L 110.078644 232.118289 
L 113.665421 240.930402 
L 117.252198 246.154812 
L 120.838975 249.83187 
L 124.425752 252.933493 
L 128.012528 255.43091 
L 131.599305 256.957699 
L 135.186082 258.564436 
L 138.772859 259.886895 
L 142.359636 261.337293 
L 145.946413 262.273227 
L 149.53319 262.905617 
L 153.119966 263.638818 
L 156.706743 264.206604 
L 160.29352 264.813938 
L 163.880297 265.201214 
L 167.467074 265.579754 
L 171.053851 266.141459 
L 174.640628 266.444341 
L 178.227404 266.771998 
L 181.814181 267.05786 
L 185.400958 267.32326 
L 188.987735 267.549871 
L 192.574512 267.935538 
L 196.161289 267.828969 
L 199.748066 267.93782 
L 203.334842 268.324786 
L 206.921619 268.499609 
L 210.508396 268.59138 
L 214.095173 268.798203 
L 217.68195 268.942814 
L 221.268727 269.026535 
L 224.855504 269.216824 
L 228.44228 269.281862 
L 232.029057 269.186121 
L 235.615834 269.128095 
L 239.202611 269.298152 
L 242.789388 269.40463 
L 246.376165 269.331414 
L 249.962942 269.693726 
L 253.549718 269.607168 
L 257.136495 269.740195 
L 260.723272 269.657607 
L 264.310049 269.599042 
L 267.896826 269.907755 
L 271.483603 269.933354 
L 275.07038 269.946637 
L 278.657157 269.971042 
L 282.243933 270.080688 
L 285.83071 270.037023 
L 289.417487 269.95695 
L 293.004264 269.995923 
L 296.591041 270.077659 
L 300.177818 270.19783 
L 303.764595 270.149026 
L 307.351371 270.254541 
L 310.938148 270.123281 
L 314.524925 270.420129 
L 318.111702 270.325544 
L 321.698479 270.305213 
L 325.285256 270.173711 
L 328.872033 270.401267 
L 332.458809 270.406386 
L 336.045586 270.230365 
L 339.632363 270.48963 
L 343.21914 270.429648 
L 346.805917 270.423914 
L 350.392694 270.600136 
L 353.979471 270.669446 
L 357.566247 270.665551 
L 361.153024 270.410343 
L 364.739801 270.747438 
L 368.326578 270.718807 
L 371.913355 270.645901 
L 375.500132 270.734755 
L 379.086909 270.85498 
L 382.673685 270.729844 
L 386.260462 270.698038 
L 389.847239 270.826145 
L 393.434016 270.845414 
L 397.020793 270.778781 
L 400.60757 270.740713 
L 404.194347 270.852304 
L 407.781123 270.96423 
L 411.3679 270.886223 
L 414.954677 270.738042 
L 418.541454 270.805473 
L 422.128231 271.003046 
L 425.715008 270.970119 
L 429.301785 270.879369 
L 432.888561 270.984234 
L 436.475338 271.031274 
L 440.062115 271.187237 
L 443.648892 270.935281 
" style="fill:none;stroke:#4c72b0;stroke-linecap:round;stroke-width:1.5;"/>
   </g>
   <g id="line2d_15">
    <path clip-path="url(#pd4087321df)" d="M 88.557983 43.476025 
L 92.14476 84.141337 
L 95.731537 35.197723 
L 99.318314 189.832526 
L 102.90509 201.898271 
L 106.491867 236.398437 
L 110.078644 236.91157 
L 113.665421 250.982072 
L 117.252198 256.284914 
L 120.838975 255.528568 
L 124.425752 258.414134 
L 128.012528 259.970058 
L 131.599305 251.999244 
L 135.186082 255.304657 
L 138.772859 262.140705 
L 142.359636 257.653927 
L 145.946413 260.160171 
L 149.53319 265.804168 
L 153.119966 266.280631 
L 156.706743 265.01788 
L 160.29352 263.669911 
L 163.880297 264.922588 
L 167.467074 262.100998 
L 171.053851 268.387515 
L 174.640628 250.682866 
L 178.227404 267.758557 
L 181.814181 269.025784 
L 185.400958 268.960101 
L 188.987735 266.036305 
L 192.574512 269.248932 
L 196.161289 268.36342 
L 199.748066 269.531662 
L 203.334842 261.596586 
L 206.921619 268.46132 
L 210.508396 269.477932 
L 214.095173 270.506106 
L 217.68195 268.107011 
L 221.268727 270.409965 
L 224.855504 269.7983 
L 228.44228 269.979593 
L 232.029057 270.270917 
L 235.615834 269.218117 
L 239.202611 266.227064 
L 242.789388 269.320804 
L 246.376165 271.080009 
L 249.962942 265.878482 
L 253.549718 270.483005 
L 257.136495 270.306865 
L 260.723272 271.025872 
L 264.310049 271.180011 
L 267.896826 270.633574 
L 271.483603 271.280813 
L 275.07038 269.156566 
L 278.657157 270.771653 
L 282.243933 269.812393 
L 285.83071 266.993213 
L 289.417487 271.251216 
L 293.004264 271.280481 
L 296.591041 269.218391 
L 300.177818 271.869374 
L 303.764595 269.762628 
L 307.351371 269.132751 
L 310.938148 271.56497 
L 314.524925 270.740735 
L 318.111702 271.543381 
L 321.698479 270.085729 
L 325.285256 271.754886 
L 328.872033 271.003891 
L 332.458809 271.430839 
L 336.045586 271.625767 
L 339.632363 271.563715 
L 343.21914 271.798619 
L 346.805917 269.796446 
L 350.392694 271.075901 
L 353.979471 272.020752 
L 357.566247 270.904324 
L 361.153024 272.268579 
L 364.739801 268.375489 
L 368.326578 271.983713 
L 371.913355 272.007109 
L 375.500132 270.816638 
L 379.086909 271.56814 
L 382.673685 271.679481 
L 386.260462 271.672995 
L 389.847239 272.342012 
L 393.434016 269.759831 
L 397.020793 272.328599 
L 400.60757 271.064768 
L 404.194347 270.969435 
L 407.781123 271.615626 
L 411.3679 271.007119 
L 414.954677 272.456359 
L 418.541454 272.396704 
L 422.128231 271.610118 
L 425.715008 272.697433 
L 429.301785 272.06688 
L 432.888561 270.03017 
L 436.475338 271.544991 
L 440.062115 272.514651 
L 443.648892 272.640811 
" style="fill:none;stroke:#dd8452;stroke-linecap:round;stroke-width:1.5;"/>
   </g>
   <g id="patch_3">
    <path d="M 70.803438 318.827216 
L 70.803438 22.318125 
" style="fill:none;stroke:#ffffff;stroke-linecap:square;stroke-linejoin:miter;stroke-width:1.25;"/>
   </g>
   <g id="patch_4">
    <path d="M 461.403437 318.827216 
L 461.403437 22.318125 
" style="fill:none;stroke:#ffffff;stroke-linecap:square;stroke-linejoin:miter;stroke-width:1.25;"/>
   </g>
   <g id="patch_5">
    <path d="M 70.803438 318.827216 
L 461.403437 318.827216 
" style="fill:none;stroke:#ffffff;stroke-linecap:square;stroke-linejoin:miter;stroke-width:1.25;"/>
   </g>
   <g id="patch_6">
    <path d="M 70.803438 22.318125 
L 461.403437 22.318125 
" style="fill:none;stroke:#ffffff;stroke-linecap:square;stroke-linejoin:miter;stroke-width:1.25;"/>
   </g>
   <g id="text_10">
    <!-- H-Bond Acceptors: Prediction Loss -->
    <g style="fill:#262626;" transform="translate(163.824063 16.318125)scale(0.12 -0.12)">
     <defs>
      <path d="M 628 4666 
L 1259 4666 
L 1259 2753 
L 3553 2753 
L 3553 4666 
L 4184 4666 
L 4184 0 
L 3553 0 
L 3553 2222 
L 1259 2222 
L 1259 0 
L 628 0 
L 628 4666 
z
" id="DejaVuSans-48" transform="scale(0.015625)"/>
      <path d="M 313 2009 
L 1997 2009 
L 1997 1497 
L 313 1497 
L 313 2009 
z
" id="DejaVuSans-2d" transform="scale(0.015625)"/>
      <path d="M 1259 2228 
L 1259 519 
L 2272 519 
Q 2781 519 3026 730 
Q 3272 941 3272 1375 
Q 3272 1813 3026 2020 
Q 2781 2228 2272 2228 
L 1259 2228 
z
M 1259 4147 
L 1259 2741 
L 2194 2741 
Q 2656 2741 2882 2914 
Q 3109 3088 3109 3444 
Q 3109 3797 2882 3972 
Q 2656 4147 2194 4147 
L 1259 4147 
z
M 628 4666 
L 2241 4666 
Q 2963 4666 3353 4366 
Q 3744 4066 3744 3513 
Q 3744 3084 3544 2831 
Q 3344 2578 2956 2516 
Q 3422 2416 3680 2098 
Q 3938 1781 3938 1306 
Q 3938 681 3513 340 
Q 3088 0 2303 0 
L 628 0 
L 628 4666 
z
" id="DejaVuSans-42" transform="scale(0.015625)"/>
      <path d="M 2188 4044 
L 1331 1722 
L 3047 1722 
L 2188 4044 
z
M 1831 4666 
L 2547 4666 
L 4325 0 
L 3669 0 
L 3244 1197 
L 1141 1197 
L 716 0 
L 50 0 
L 1831 4666 
z
" id="DejaVuSans-41" transform="scale(0.015625)"/>
      <path d="M 750 794 
L 1409 794 
L 1409 0 
L 750 0 
L 750 794 
z
M 750 3309 
L 1409 3309 
L 1409 2516 
L 750 2516 
L 750 3309 
z
" id="DejaVuSans-3a" transform="scale(0.015625)"/>
     </defs>
     <use xlink:href="#DejaVuSans-48"/>
     <use x="75.195312" xlink:href="#DejaVuSans-2d"/>
     <use x="107.654297" xlink:href="#DejaVuSans-42"/>
     <use x="176.257812" xlink:href="#DejaVuSans-6f"/>
     <use x="237.439453" xlink:href="#DejaVuSans-6e"/>
     <use x="300.818359" xlink:href="#DejaVuSans-64"/>
     <use x="364.294922" xlink:href="#DejaVuSans-20"/>
     <use x="396.082031" xlink:href="#DejaVuSans-41"/>
     <use x="462.740234" xlink:href="#DejaVuSans-63"/>
     <use x="517.720703" xlink:href="#DejaVuSans-63"/>
     <use x="572.701172" xlink:href="#DejaVuSans-65"/>
     <use x="634.224609" xlink:href="#DejaVuSans-70"/>
     <use x="697.701172" xlink:href="#DejaVuSans-74"/>
     <use x="736.910156" xlink:href="#DejaVuSans-6f"/>
     <use x="798.091797" xlink:href="#DejaVuSans-72"/>
     <use x="839.205078" xlink:href="#DejaVuSans-73"/>
     <use x="891.304688" xlink:href="#DejaVuSans-3a"/>
     <use x="924.996094" xlink:href="#DejaVuSans-20"/>
     <use x="956.783203" xlink:href="#DejaVuSans-50"/>
     <use x="1015.335938" xlink:href="#DejaVuSans-72"/>
     <use x="1054.199219" xlink:href="#DejaVuSans-65"/>
     <use x="1115.722656" xlink:href="#DejaVuSans-64"/>
     <use x="1179.199219" xlink:href="#DejaVuSans-69"/>
     <use x="1206.982422" xlink:href="#DejaVuSans-63"/>
     <use x="1261.962891" xlink:href="#DejaVuSans-74"/>
     <use x="1301.171875" xlink:href="#DejaVuSans-69"/>
     <use x="1328.955078" xlink:href="#DejaVuSans-6f"/>
     <use x="1390.136719" xlink:href="#DejaVuSans-6e"/>
     <use x="1453.515625" xlink:href="#DejaVuSans-20"/>
     <use x="1485.302734" xlink:href="#DejaVuSans-4c"/>
     <use x="1539.265625" xlink:href="#DejaVuSans-6f"/>
     <use x="1600.447266" xlink:href="#DejaVuSans-73"/>
     <use x="1652.546875" xlink:href="#DejaVuSans-73"/>
    </g>
   </g>
   <g id="legend_1">
    <g id="patch_7">
     <path d="M 392.117188 63.41 
L 453.703438 63.41 
Q 455.903438 63.41 455.903438 61.21 
L 455.903438 30.018125 
Q 455.903438 27.818125 453.703438 27.818125 
L 392.117188 27.818125 
Q 389.917188 27.818125 389.917188 30.018125 
L 389.917188 61.21 
Q 389.917188 63.41 392.117188 63.41 
z
" style="fill:#eaeaf2;opacity:0.8;stroke:#cccccc;stroke-linejoin:miter;"/>
    </g>
    <g id="line2d_16">
     <path d="M 394.317188 36.726406 
L 416.317188 36.726406 
" style="fill:none;stroke:#4c72b0;stroke-linecap:round;stroke-width:1.5;"/>
    </g>
    <g id="line2d_17"/>
    <g id="text_11">
     <!-- Train -->
     <g style="fill:#262626;" transform="translate(425.117188 40.576406)scale(0.11 -0.11)">
      <defs>
       <path d="M -19 4666 
L 3928 4666 
L 3928 4134 
L 2272 4134 
L 2272 0 
L 1638 0 
L 1638 4134 
L -19 4134 
L -19 4666 
z
" id="DejaVuSans-54" transform="scale(0.015625)"/>
       <path d="M 2194 1759 
Q 1497 1759 1228 1600 
Q 959 1441 959 1056 
Q 959 750 1161 570 
Q 1363 391 1709 391 
Q 2188 391 2477 730 
Q 2766 1069 2766 1631 
L 2766 1759 
L 2194 1759 
z
M 3341 1997 
L 3341 0 
L 2766 0 
L 2766 531 
Q 2569 213 2275 61 
Q 1981 -91 1556 -91 
Q 1019 -91 701 211 
Q 384 513 384 1019 
Q 384 1609 779 1909 
Q 1175 2209 1959 2209 
L 2766 2209 
L 2766 2266 
Q 2766 2663 2505 2880 
Q 2244 3097 1772 3097 
Q 1472 3097 1187 3025 
Q 903 2953 641 2809 
L 641 3341 
Q 956 3463 1253 3523 
Q 1550 3584 1831 3584 
Q 2591 3584 2966 3190 
Q 3341 2797 3341 1997 
z
" id="DejaVuSans-61" transform="scale(0.015625)"/>
      </defs>
      <use xlink:href="#DejaVuSans-54"/>
      <use x="46.333984" xlink:href="#DejaVuSans-72"/>
      <use x="87.447266" xlink:href="#DejaVuSans-61"/>
      <use x="148.726562" xlink:href="#DejaVuSans-69"/>
      <use x="176.509766" xlink:href="#DejaVuSans-6e"/>
     </g>
    </g>
    <g id="line2d_18">
     <path d="M 394.317188 52.872344 
L 416.317188 52.872344 
" style="fill:none;stroke:#dd8452;stroke-linecap:round;stroke-width:1.5;"/>
    </g>
    <g id="line2d_19"/>
    <g id="text_12">
     <!-- Test -->
     <g style="fill:#262626;" transform="translate(425.117188 56.722344)scale(0.11 -0.11)">
      <use xlink:href="#DejaVuSans-54"/>
      <use x="44.083984" xlink:href="#DejaVuSans-65"/>
      <use x="105.607422" xlink:href="#DejaVuSans-73"/>
      <use x="157.707031" xlink:href="#DejaVuSans-74"/>
     </g>
    </g>
   </g>
  </g>
  <g id="axes_2">
   <g id="patch_8">
    <path d="M 70.803438 674.638125 
L 461.403437 674.638125 
L 461.403437 378.129034 
L 70.803438 378.129034 
z
" style="fill:#eaeaf2;"/>
   </g>
   <g id="matplotlib.axis_3">
    <g id="xtick_7">
     <g id="line2d_20">
      <path clip-path="url(#pa8fa28a87f)" d="M 88.557983 674.638125 
L 88.557983 378.129034 
" style="fill:none;stroke:#ffffff;stroke-linecap:round;"/>
     </g>
     <g id="text_13">
      <!-- 0 -->
      <g style="fill:#262626;" transform="translate(85.058608 692.496406)scale(0.11 -0.11)">
       <use xlink:href="#DejaVuSans-30"/>
      </g>
     </g>
    </g>
    <g id="xtick_8">
     <g id="line2d_21">
      <path clip-path="url(#pa8fa28a87f)" d="M 160.29352 674.638125 
L 160.29352 378.129034 
" style="fill:none;stroke:#ffffff;stroke-linecap:round;"/>
     </g>
     <g id="text_14">
      <!-- 20 -->
      <g style="fill:#262626;" transform="translate(153.29477 692.496406)scale(0.11 -0.11)">
       <use xlink:href="#DejaVuSans-32"/>
       <use x="63.623047" xlink:href="#DejaVuSans-30"/>
      </g>
     </g>
    </g>
    <g id="xtick_9">
     <g id="line2d_22">
      <path clip-path="url(#pa8fa28a87f)" d="M 232.029057 674.638125 
L 232.029057 378.129034 
" style="fill:none;stroke:#ffffff;stroke-linecap:round;"/>
     </g>
     <g id="text_15">
      <!-- 40 -->
      <g style="fill:#262626;" transform="translate(225.030307 692.496406)scale(0.11 -0.11)">
       <defs>
        <path d="M 2419 4116 
L 825 1625 
L 2419 1625 
L 2419 4116 
z
M 2253 4666 
L 3047 4666 
L 3047 1625 
L 3713 1625 
L 3713 1100 
L 3047 1100 
L 3047 0 
L 2419 0 
L 2419 1100 
L 313 1100 
L 313 1709 
L 2253 4666 
z
" id="DejaVuSans-34" transform="scale(0.015625)"/>
       </defs>
       <use xlink:href="#DejaVuSans-34"/>
       <use x="63.623047" xlink:href="#DejaVuSans-30"/>
      </g>
     </g>
    </g>
    <g id="xtick_10">
     <g id="line2d_23">
      <path clip-path="url(#pa8fa28a87f)" d="M 303.764595 674.638125 
L 303.764595 378.129034 
" style="fill:none;stroke:#ffffff;stroke-linecap:round;"/>
     </g>
     <g id="text_16">
      <!-- 60 -->
      <g style="fill:#262626;" transform="translate(296.765845 692.496406)scale(0.11 -0.11)">
       <defs>
        <path d="M 2113 2584 
Q 1688 2584 1439 2293 
Q 1191 2003 1191 1497 
Q 1191 994 1439 701 
Q 1688 409 2113 409 
Q 2538 409 2786 701 
Q 3034 994 3034 1497 
Q 3034 2003 2786 2293 
Q 2538 2584 2113 2584 
z
M 3366 4563 
L 3366 3988 
Q 3128 4100 2886 4159 
Q 2644 4219 2406 4219 
Q 1781 4219 1451 3797 
Q 1122 3375 1075 2522 
Q 1259 2794 1537 2939 
Q 1816 3084 2150 3084 
Q 2853 3084 3261 2657 
Q 3669 2231 3669 1497 
Q 3669 778 3244 343 
Q 2819 -91 2113 -91 
Q 1303 -91 875 529 
Q 447 1150 447 2328 
Q 447 3434 972 4092 
Q 1497 4750 2381 4750 
Q 2619 4750 2861 4703 
Q 3103 4656 3366 4563 
z
" id="DejaVuSans-36" transform="scale(0.015625)"/>
       </defs>
       <use xlink:href="#DejaVuSans-36"/>
       <use x="63.623047" xlink:href="#DejaVuSans-30"/>
      </g>
     </g>
    </g>
    <g id="xtick_11">
     <g id="line2d_24">
      <path clip-path="url(#pa8fa28a87f)" d="M 375.500132 674.638125 
L 375.500132 378.129034 
" style="fill:none;stroke:#ffffff;stroke-linecap:round;"/>
     </g>
     <g id="text_17">
      <!-- 80 -->
      <g style="fill:#262626;" transform="translate(368.501382 692.496406)scale(0.11 -0.11)">
       <defs>
        <path d="M 2034 2216 
Q 1584 2216 1326 1975 
Q 1069 1734 1069 1313 
Q 1069 891 1326 650 
Q 1584 409 2034 409 
Q 2484 409 2743 651 
Q 3003 894 3003 1313 
Q 3003 1734 2745 1975 
Q 2488 2216 2034 2216 
z
M 1403 2484 
Q 997 2584 770 2862 
Q 544 3141 544 3541 
Q 544 4100 942 4425 
Q 1341 4750 2034 4750 
Q 2731 4750 3128 4425 
Q 3525 4100 3525 3541 
Q 3525 3141 3298 2862 
Q 3072 2584 2669 2484 
Q 3125 2378 3379 2068 
Q 3634 1759 3634 1313 
Q 3634 634 3220 271 
Q 2806 -91 2034 -91 
Q 1263 -91 848 271 
Q 434 634 434 1313 
Q 434 1759 690 2068 
Q 947 2378 1403 2484 
z
M 1172 3481 
Q 1172 3119 1398 2916 
Q 1625 2713 2034 2713 
Q 2441 2713 2670 2916 
Q 2900 3119 2900 3481 
Q 2900 3844 2670 4047 
Q 2441 4250 2034 4250 
Q 1625 4250 1398 4047 
Q 1172 3844 1172 3481 
z
" id="DejaVuSans-38" transform="scale(0.015625)"/>
       </defs>
       <use xlink:href="#DejaVuSans-38"/>
       <use x="63.623047" xlink:href="#DejaVuSans-30"/>
      </g>
     </g>
    </g>
    <g id="xtick_12">
     <g id="line2d_25">
      <path clip-path="url(#pa8fa28a87f)" d="M 447.235669 674.638125 
L 447.235669 378.129034 
" style="fill:none;stroke:#ffffff;stroke-linecap:round;"/>
     </g>
     <g id="text_18">
      <!-- 100 -->
      <g style="fill:#262626;" transform="translate(436.737544 692.496406)scale(0.11 -0.11)">
       <use xlink:href="#DejaVuSans-31"/>
       <use x="63.623047" xlink:href="#DejaVuSans-30"/>
       <use x="127.246094" xlink:href="#DejaVuSans-30"/>
      </g>
     </g>
    </g>
    <g id="text_19">
     <!-- Epoch -->
     <g style="fill:#262626;" transform="translate(247.730313 707.902187)scale(0.12 -0.12)">
      <use xlink:href="#DejaVuSans-45"/>
      <use x="63.183594" xlink:href="#DejaVuSans-70"/>
      <use x="126.660156" xlink:href="#DejaVuSans-6f"/>
      <use x="187.841797" xlink:href="#DejaVuSans-63"/>
      <use x="242.822266" xlink:href="#DejaVuSans-68"/>
     </g>
    </g>
   </g>
   <g id="matplotlib.axis_4">
    <g id="ytick_8">
     <g id="line2d_26">
      <path clip-path="url(#pa8fa28a87f)" d="M 70.803438 671.791215 
L 461.403437 671.791215 
" style="fill:none;stroke:#ffffff;stroke-linecap:round;"/>
     </g>
     <g id="text_20">
      <!-- −0.05 -->
      <g style="fill:#262626;" transform="translate(27.593594 675.970355)scale(0.11 -0.11)">
       <defs>
        <path d="M 678 2272 
L 4684 2272 
L 4684 1741 
L 678 1741 
L 678 2272 
z
" id="DejaVuSans-2212" transform="scale(0.015625)"/>
       </defs>
       <use xlink:href="#DejaVuSans-2212"/>
       <use x="83.789062" xlink:href="#DejaVuSans-30"/>
       <use x="147.412109" xlink:href="#DejaVuSans-2e"/>
       <use x="179.199219" xlink:href="#DejaVuSans-30"/>
       <use x="242.822266" xlink:href="#DejaVuSans-35"/>
      </g>
     </g>
    </g>
    <g id="ytick_9">
     <g id="line2d_27">
      <path clip-path="url(#pa8fa28a87f)" d="M 70.803438 638.718078 
L 461.403437 638.718078 
" style="fill:none;stroke:#ffffff;stroke-linecap:round;"/>
     </g>
     <g id="text_21">
      <!-- 0.00 -->
      <g style="fill:#262626;" transform="translate(36.81125 642.897219)scale(0.11 -0.11)">
       <use xlink:href="#DejaVuSans-30"/>
       <use x="63.623047" xlink:href="#DejaVuSans-2e"/>
       <use x="95.410156" xlink:href="#DejaVuSans-30"/>
       <use x="159.033203" xlink:href="#DejaVuSans-30"/>
      </g>
     </g>
    </g>
    <g id="ytick_10">
     <g id="line2d_28">
      <path clip-path="url(#pa8fa28a87f)" d="M 70.803438 605.644941 
L 461.403437 605.644941 
" style="fill:none;stroke:#ffffff;stroke-linecap:round;"/>
     </g>
     <g id="text_22">
      <!-- 0.05 -->
      <g style="fill:#262626;" transform="translate(36.81125 609.824082)scale(0.11 -0.11)">
       <use xlink:href="#DejaVuSans-30"/>
       <use x="63.623047" xlink:href="#DejaVuSans-2e"/>
       <use x="95.410156" xlink:href="#DejaVuSans-30"/>
       <use x="159.033203" xlink:href="#DejaVuSans-35"/>
      </g>
     </g>
    </g>
    <g id="ytick_11">
     <g id="line2d_29">
      <path clip-path="url(#pa8fa28a87f)" d="M 70.803438 572.571805 
L 461.403437 572.571805 
" style="fill:none;stroke:#ffffff;stroke-linecap:round;"/>
     </g>
     <g id="text_23">
      <!-- 0.10 -->
      <g style="fill:#262626;" transform="translate(36.81125 576.750945)scale(0.11 -0.11)">
       <use xlink:href="#DejaVuSans-30"/>
       <use x="63.623047" xlink:href="#DejaVuSans-2e"/>
       <use x="95.410156" xlink:href="#DejaVuSans-31"/>
       <use x="159.033203" xlink:href="#DejaVuSans-30"/>
      </g>
     </g>
    </g>
    <g id="ytick_12">
     <g id="line2d_30">
      <path clip-path="url(#pa8fa28a87f)" d="M 70.803438 539.498668 
L 461.403437 539.498668 
" style="fill:none;stroke:#ffffff;stroke-linecap:round;"/>
     </g>
     <g id="text_24">
      <!-- 0.15 -->
      <g style="fill:#262626;" transform="translate(36.81125 543.677809)scale(0.11 -0.11)">
       <use xlink:href="#DejaVuSans-30"/>
       <use x="63.623047" xlink:href="#DejaVuSans-2e"/>
       <use x="95.410156" xlink:href="#DejaVuSans-31"/>
       <use x="159.033203" xlink:href="#DejaVuSans-35"/>
      </g>
     </g>
    </g>
    <g id="ytick_13">
     <g id="line2d_31">
      <path clip-path="url(#pa8fa28a87f)" d="M 70.803438 506.425531 
L 461.403437 506.425531 
" style="fill:none;stroke:#ffffff;stroke-linecap:round;"/>
     </g>
     <g id="text_25">
      <!-- 0.20 -->
      <g style="fill:#262626;" transform="translate(36.81125 510.604672)scale(0.11 -0.11)">
       <use xlink:href="#DejaVuSans-30"/>
       <use x="63.623047" xlink:href="#DejaVuSans-2e"/>
       <use x="95.410156" xlink:href="#DejaVuSans-32"/>
       <use x="159.033203" xlink:href="#DejaVuSans-30"/>
      </g>
     </g>
    </g>
    <g id="ytick_14">
     <g id="line2d_32">
      <path clip-path="url(#pa8fa28a87f)" d="M 70.803438 473.352394 
L 461.403437 473.352394 
" style="fill:none;stroke:#ffffff;stroke-linecap:round;"/>
     </g>
     <g id="text_26">
      <!-- 0.25 -->
      <g style="fill:#262626;" transform="translate(36.81125 477.531535)scale(0.11 -0.11)">
       <use xlink:href="#DejaVuSans-30"/>
       <use x="63.623047" xlink:href="#DejaVuSans-2e"/>
       <use x="95.410156" xlink:href="#DejaVuSans-32"/>
       <use x="159.033203" xlink:href="#DejaVuSans-35"/>
      </g>
     </g>
    </g>
    <g id="ytick_15">
     <g id="line2d_33">
      <path clip-path="url(#pa8fa28a87f)" d="M 70.803438 440.279258 
L 461.403437 440.279258 
" style="fill:none;stroke:#ffffff;stroke-linecap:round;"/>
     </g>
     <g id="text_27">
      <!-- 0.30 -->
      <g style="fill:#262626;" transform="translate(36.81125 444.458398)scale(0.11 -0.11)">
       <use xlink:href="#DejaVuSans-30"/>
       <use x="63.623047" xlink:href="#DejaVuSans-2e"/>
       <use x="95.410156" xlink:href="#DejaVuSans-33"/>
       <use x="159.033203" xlink:href="#DejaVuSans-30"/>
      </g>
     </g>
    </g>
    <g id="ytick_16">
     <g id="line2d_34">
      <path clip-path="url(#pa8fa28a87f)" d="M 70.803438 407.206121 
L 461.403437 407.206121 
" style="fill:none;stroke:#ffffff;stroke-linecap:round;"/>
     </g>
     <g id="text_28">
      <!-- 0.35 -->
      <g style="fill:#262626;" transform="translate(36.81125 411.385262)scale(0.11 -0.11)">
       <use xlink:href="#DejaVuSans-30"/>
       <use x="63.623047" xlink:href="#DejaVuSans-2e"/>
       <use x="95.410156" xlink:href="#DejaVuSans-33"/>
       <use x="159.033203" xlink:href="#DejaVuSans-35"/>
      </g>
     </g>
    </g>
    <g id="text_29">
     <!-- VAE Loss -->
     <g style="fill:#262626;" transform="translate(21.097969 553.06858)rotate(-90)scale(0.12 -0.12)">
      <defs>
       <path d="M 1831 0 
L 50 4666 
L 709 4666 
L 2188 738 
L 3669 4666 
L 4325 4666 
L 2547 0 
L 1831 0 
z
" id="DejaVuSans-56" transform="scale(0.015625)"/>
      </defs>
      <use xlink:href="#DejaVuSans-56"/>
      <use x="62.033203" xlink:href="#DejaVuSans-41"/>
      <use x="130.441406" xlink:href="#DejaVuSans-45"/>
      <use x="193.625" xlink:href="#DejaVuSans-20"/>
      <use x="225.412109" xlink:href="#DejaVuSans-4c"/>
      <use x="279.375" xlink:href="#DejaVuSans-6f"/>
      <use x="340.556641" xlink:href="#DejaVuSans-73"/>
      <use x="392.65625" xlink:href="#DejaVuSans-73"/>
     </g>
    </g>
   </g>
   <g id="line2d_35">
    <path clip-path="url(#pa8fa28a87f)" d="M 89.755595 -1 
L 92.14476 436.65739 
L 95.731537 547.11718 
L 99.318314 590.438239 
L 102.90509 610.945831 
L 106.491867 619.216794 
L 110.078644 623.025045 
L 113.665421 625.075937 
L 117.252198 626.308157 
L 120.838975 626.961769 
L 124.425752 627.597291 
L 128.012528 628.020826 
L 131.599305 628.219435 
L 135.186082 628.579188 
L 138.772859 628.794154 
L 142.359636 628.89133 
L 145.946413 629.006427 
L 149.53319 629.007481 
L 153.119966 629.08812 
L 156.706743 628.977395 
L 160.29352 629.033544 
L 163.880297 628.897949 
L 167.467074 628.897119 
L 171.053851 628.839444 
L 174.640628 628.731295 
L 178.227404 628.703485 
L 181.814181 628.61894 
L 185.400958 628.514565 
L 188.987735 628.422004 
L 192.574512 628.344174 
L 196.161289 628.167579 
L 199.748066 628.061691 
L 203.334842 627.962549 
L 206.921619 627.817461 
L 210.508396 627.67663 
L 214.095173 627.565365 
L 217.68195 627.483086 
L 221.268727 627.311493 
L 224.855504 627.195255 
L 228.44228 627.066574 
L 232.029057 626.870536 
L 235.615834 626.717233 
L 239.202611 626.613575 
L 242.789388 626.487489 
L 246.376165 626.346769 
L 249.962942 626.250233 
L 253.549718 626.065408 
L 257.136495 625.90541 
L 260.723272 625.760678 
L 264.310049 625.606204 
L 267.896826 625.528091 
L 271.483603 625.402051 
L 275.07038 625.241368 
L 278.657157 625.111537 
L 282.243933 624.981155 
L 285.83071 624.820498 
L 289.417487 624.643287 
L 293.004264 624.525022 
L 296.591041 624.382378 
L 300.177818 624.282992 
L 303.764595 624.09698 
L 307.351371 623.987377 
L 310.938148 623.814703 
L 314.524925 623.724577 
L 318.111702 623.556347 
L 321.698479 623.42442 
L 325.285256 623.230856 
L 328.872033 623.14176 
L 332.458809 623.020505 
L 336.045586 622.826881 
L 339.632363 622.741412 
L 343.21914 622.593505 
L 346.805917 622.487107 
L 350.392694 622.350783 
L 353.979471 622.24573 
L 357.566247 622.104198 
L 361.153024 621.945729 
L 364.739801 621.809523 
L 368.326578 621.719404 
L 371.913355 621.552512 
L 375.500132 621.390745 
L 379.086909 621.272834 
L 382.673685 621.136818 
L 386.260462 621.032426 
L 389.847239 620.892831 
L 393.434016 620.746574 
L 397.020793 620.596715 
L 400.60757 620.466864 
L 404.194347 620.351964 
L 407.781123 620.249887 
L 411.3679 620.082098 
L 414.954677 619.952288 
L 418.541454 619.815819 
L 422.128231 619.734573 
L 425.715008 619.561979 
L 429.301785 619.420229 
L 432.888561 619.34227 
L 436.475338 619.20686 
L 440.062115 619.099616 
L 443.648892 618.942935 
" style="fill:none;stroke:#4c72b0;stroke-linecap:round;stroke-width:1.5;"/>
   </g>
   <g id="line2d_36">
    <path clip-path="url(#pa8fa28a87f)" d="M 88.557983 391.158486 
L 92.14476 541.228878 
L 95.731537 599.866007 
L 99.318314 624.324576 
L 102.90509 627.871191 
L 106.491867 630.400154 
L 110.078644 631.130008 
L 113.665421 631.575606 
L 117.252198 631.896925 
L 120.838975 632.018043 
L 124.425752 631.770448 
L 128.012528 631.918252 
L 131.599305 631.700282 
L 135.186082 631.65278 
L 138.772859 631.768883 
L 142.359636 631.662394 
L 145.946413 631.261545 
L 149.53319 631.277955 
L 153.119966 631.417999 
L 156.706743 631.332062 
L 160.29352 631.255125 
L 163.880297 630.748315 
L 167.467074 630.679458 
L 171.053851 630.620585 
L 174.640628 630.406375 
L 178.227404 630.374907 
L 181.814181 630.354985 
L 185.400958 630.006928 
L 188.987735 630.158342 
L 192.574512 630.123454 
L 196.161289 630.011645 
L 199.748066 629.746099 
L 203.334842 629.348289 
L 206.921619 629.448913 
L 210.508396 629.238324 
L 214.095173 629.375153 
L 217.68195 628.888836 
L 221.268727 628.822089 
L 224.855504 629.007822 
L 228.44228 628.53046 
L 232.029057 628.486525 
L 235.615834 628.474716 
L 239.202611 628.155794 
L 242.789388 628.09019 
L 246.376165 628.061723 
L 249.962942 627.699676 
L 253.549718 627.725662 
L 257.136495 627.400705 
L 260.723272 627.341627 
L 264.310049 627.248161 
L 267.896826 626.966529 
L 271.483603 626.886167 
L 275.07038 626.625869 
L 278.657157 626.444217 
L 282.243933 626.193123 
L 285.83071 626.438161 
L 289.417487 626.289879 
L 293.004264 626.167858 
L 296.591041 626.002832 
L 300.177818 625.867049 
L 303.764595 625.704243 
L 307.351371 625.711559 
L 310.938148 625.434298 
L 314.524925 625.271938 
L 318.111702 625.120298 
L 321.698479 624.871572 
L 325.285256 624.887304 
L 328.872033 625.037253 
L 332.458809 624.436873 
L 336.045586 624.611504 
L 339.632363 624.407977 
L 343.21914 624.520731 
L 346.805917 624.25003 
L 350.392694 624.105241 
L 353.979471 623.868797 
L 357.566247 623.651721 
L 361.153024 623.922198 
L 364.739801 623.787673 
L 368.326578 623.485611 
L 371.913355 623.376882 
L 375.500132 623.396971 
L 379.086909 623.026823 
L 382.673685 622.45773 
L 386.260462 622.673418 
L 389.847239 622.802728 
L 393.434016 622.506927 
L 397.020793 622.412179 
L 400.60757 621.989132 
L 404.194347 622.261769 
L 407.781123 621.940358 
L 411.3679 621.882346 
L 414.954677 621.95871 
L 418.541454 621.805747 
L 422.128231 621.200259 
L 425.715008 621.466133 
L 429.301785 621.140711 
L 432.888561 621.326689 
L 436.475338 621.000946 
L 440.062115 620.79682 
L 443.648892 620.427522 
" style="fill:none;stroke:#dd8452;stroke-linecap:round;stroke-width:1.5;"/>
   </g>
   <g id="patch_9">
    <path d="M 70.803438 674.638125 
L 70.803438 378.129034 
" style="fill:none;stroke:#ffffff;stroke-linecap:square;stroke-linejoin:miter;stroke-width:1.25;"/>
   </g>
   <g id="patch_10">
    <path d="M 461.403437 674.638125 
L 461.403437 378.129034 
" style="fill:none;stroke:#ffffff;stroke-linecap:square;stroke-linejoin:miter;stroke-width:1.25;"/>
   </g>
   <g id="patch_11">
    <path d="M 70.803438 674.638125 
L 461.403437 674.638125 
" style="fill:none;stroke:#ffffff;stroke-linecap:square;stroke-linejoin:miter;stroke-width:1.25;"/>
   </g>
   <g id="patch_12">
    <path d="M 70.803438 378.129034 
L 461.403437 378.129034 
" style="fill:none;stroke:#ffffff;stroke-linecap:square;stroke-linejoin:miter;stroke-width:1.25;"/>
   </g>
   <g id="text_30">
    <!-- H-Bond Acceptors: VAE Loss -->
    <g style="fill:#262626;" transform="translate(182.010625 372.129034)scale(0.12 -0.12)">
     <use xlink:href="#DejaVuSans-48"/>
     <use x="75.195312" xlink:href="#DejaVuSans-2d"/>
     <use x="107.654297" xlink:href="#DejaVuSans-42"/>
     <use x="176.257812" xlink:href="#DejaVuSans-6f"/>
     <use x="237.439453" xlink:href="#DejaVuSans-6e"/>
     <use x="300.818359" xlink:href="#DejaVuSans-64"/>
     <use x="364.294922" xlink:href="#DejaVuSans-20"/>
     <use x="396.082031" xlink:href="#DejaVuSans-41"/>
     <use x="462.740234" xlink:href="#DejaVuSans-63"/>
     <use x="517.720703" xlink:href="#DejaVuSans-63"/>
     <use x="572.701172" xlink:href="#DejaVuSans-65"/>
     <use x="634.224609" xlink:href="#DejaVuSans-70"/>
     <use x="697.701172" xlink:href="#DejaVuSans-74"/>
     <use x="736.910156" xlink:href="#DejaVuSans-6f"/>
     <use x="798.091797" xlink:href="#DejaVuSans-72"/>
     <use x="839.205078" xlink:href="#DejaVuSans-73"/>
     <use x="891.304688" xlink:href="#DejaVuSans-3a"/>
     <use x="924.996094" xlink:href="#DejaVuSans-20"/>
     <use x="956.783203" xlink:href="#DejaVuSans-56"/>
     <use x="1018.816406" xlink:href="#DejaVuSans-41"/>
     <use x="1087.224609" xlink:href="#DejaVuSans-45"/>
     <use x="1150.408203" xlink:href="#DejaVuSans-20"/>
     <use x="1182.195312" xlink:href="#DejaVuSans-4c"/>
     <use x="1236.158203" xlink:href="#DejaVuSans-6f"/>
     <use x="1297.339844" xlink:href="#DejaVuSans-73"/>
     <use x="1349.439453" xlink:href="#DejaVuSans-73"/>
    </g>
   </g>
   <g id="legend_2">
    <g id="patch_13">
     <path d="M 392.117188 419.220909 
L 453.703438 419.220909 
Q 455.903438 419.220909 455.903438 417.020909 
L 455.903438 385.829034 
Q 455.903438 383.629034 453.703438 383.629034 
L 392.117188 383.629034 
Q 389.917188 383.629034 389.917188 385.829034 
L 389.917188 417.020909 
Q 389.917188 419.220909 392.117188 419.220909 
z
" style="fill:#eaeaf2;opacity:0.8;stroke:#cccccc;stroke-linejoin:miter;"/>
    </g>
    <g id="line2d_37">
     <path d="M 394.317188 392.537315 
L 416.317188 392.537315 
" style="fill:none;stroke:#4c72b0;stroke-linecap:round;stroke-width:1.5;"/>
    </g>
    <g id="line2d_38"/>
    <g id="text_31">
     <!-- Train -->
     <g style="fill:#262626;" transform="translate(425.117188 396.387315)scale(0.11 -0.11)">
      <use xlink:href="#DejaVuSans-54"/>
      <use x="46.333984" xlink:href="#DejaVuSans-72"/>
      <use x="87.447266" xlink:href="#DejaVuSans-61"/>
      <use x="148.726562" xlink:href="#DejaVuSans-69"/>
      <use x="176.509766" xlink:href="#DejaVuSans-6e"/>
     </g>
    </g>
    <g id="line2d_39">
     <path d="M 394.317188 408.683253 
L 416.317188 408.683253 
" style="fill:none;stroke:#dd8452;stroke-linecap:round;stroke-width:1.5;"/>
    </g>
    <g id="line2d_40"/>
    <g id="text_32">
     <!-- Test -->
     <g style="fill:#262626;" transform="translate(425.117188 412.533253)scale(0.11 -0.11)">
      <use xlink:href="#DejaVuSans-54"/>
      <use x="44.083984" xlink:href="#DejaVuSans-65"/>
      <use x="105.607422" xlink:href="#DejaVuSans-73"/>
      <use x="157.707031" xlink:href="#DejaVuSans-74"/>
     </g>
    </g>
   </g>
  </g>
 </g>
 <defs>
  <clipPath id="pd4087321df">
   <rect height="296.509091" width="390.6" x="70.803438" y="22.318125"/>
  </clipPath>
  <clipPath id="pa8fa28a87f">
   <rect height="296.509091" width="390.6" x="70.803438" y="378.129034"/>
  </clipPath>
 </defs>
</svg>
