<?xml version="1.0" encoding="utf-8" standalone="no"?>
<!DOCTYPE svg PUBLIC "-//W3C//DTD SVG 1.1//EN"
  "http://www.w3.org/Graphics/SVG/1.1/DTD/svg11.dtd">
<svg height="707.099687pt" version="1.1" viewBox="0 0 1068.783437 707.099687" width="1068.783437pt" xmlns="http://www.w3.org/2000/svg" xmlns:xlink="http://www.w3.org/1999/xlink">
 <metadata>
  <rdf:RDF xmlns:cc="http://creativecommons.org/ns#" xmlns:dc="http://purl.org/dc/elements/1.1/" xmlns:rdf="http://www.w3.org/1999/02/22-rdf-syntax-ns#">
   <cc:Work>
    <dc:type rdf:resource="http://purl.org/dc/dcmitype/StillImage"/>
    <dc:date>2021-12-08T18:47:47.951549</dc:date>
    <dc:format>image/svg+xml</dc:format>
    <dc:creator>
     <cc:Agent>
      <dc:title>Matplotlib v3.4.3, https://matplotlib.org/</dc:title>
     </cc:Agent>
    </dc:creator>
   </cc:Work>
  </rdf:RDF>
 </metadata>
 <defs>
  <style type="text/css">*{stroke-linecap:butt;stroke-linejoin:round;}</style>
 </defs>
 <g id="figure_1">
  <g id="patch_1">
   <path d="M 0 707.099687 
L 1068.783437 707.099687 
L 1068.783437 0 
L 0 0 
z
" style="fill:#ffffff;"/>
  </g>
  <g id="axes_1">
   <g id="patch_2">
    <path d="M 70.803438 224.553333 
L 274.409687 224.553333 
L 274.409687 48.12 
L 70.803438 48.12 
z
" style="fill:#eaeaf2;"/>
   </g>
   <g id="matplotlib.axis_1">
    <g id="xtick_1">
     <g id="line2d_1">
      <path clip-path="url(#pd907f2a73b)" d="M 80.058267 224.553333 
L 80.058267 48.12 
" style="fill:none;stroke:#ffffff;stroke-linecap:round;"/>
     </g>
    </g>
    <g id="xtick_2">
     <g id="line2d_2">
      <path clip-path="url(#pd907f2a73b)" d="M 132.943007 224.553333 
L 132.943007 48.12 
" style="fill:none;stroke:#ffffff;stroke-linecap:round;"/>
     </g>
    </g>
    <g id="xtick_3">
     <g id="line2d_3">
      <path clip-path="url(#pd907f2a73b)" d="M 185.827748 224.553333 
L 185.827748 48.12 
" style="fill:none;stroke:#ffffff;stroke-linecap:round;"/>
     </g>
    </g>
    <g id="xtick_4">
     <g id="line2d_4">
      <path clip-path="url(#pd907f2a73b)" d="M 238.712488 224.553333 
L 238.712488 48.12 
" style="fill:none;stroke:#ffffff;stroke-linecap:round;"/>
     </g>
    </g>
    <g id="text_1">
     <!-- Epoch -->
     <g style="fill:#262626;" transform="translate(154.233438 237.671458)scale(0.12 -0.12)">
      <defs>
       <path d="M 628 4666 
L 3578 4666 
L 3578 4134 
L 1259 4134 
L 1259 2753 
L 3481 2753 
L 3481 2222 
L 1259 2222 
L 1259 531 
L 3634 531 
L 3634 0 
L 628 0 
L 628 4666 
z
" id="DejaVuSans-45" transform="scale(0.015625)"/>
       <path d="M 1159 525 
L 1159 -1331 
L 581 -1331 
L 581 3500 
L 1159 3500 
L 1159 2969 
Q 1341 3281 1617 3432 
Q 1894 3584 2278 3584 
Q 2916 3584 3314 3078 
Q 3713 2572 3713 1747 
Q 3713 922 3314 415 
Q 2916 -91 2278 -91 
Q 1894 -91 1617 61 
Q 1341 213 1159 525 
z
M 3116 1747 
Q 3116 2381 2855 2742 
Q 2594 3103 2138 3103 
Q 1681 3103 1420 2742 
Q 1159 2381 1159 1747 
Q 1159 1113 1420 752 
Q 1681 391 2138 391 
Q 2594 391 2855 752 
Q 3116 1113 3116 1747 
z
" id="DejaVuSans-70" transform="scale(0.015625)"/>
       <path d="M 1959 3097 
Q 1497 3097 1228 2736 
Q 959 2375 959 1747 
Q 959 1119 1226 758 
Q 1494 397 1959 397 
Q 2419 397 2687 759 
Q 2956 1122 2956 1747 
Q 2956 2369 2687 2733 
Q 2419 3097 1959 3097 
z
M 1959 3584 
Q 2709 3584 3137 3096 
Q 3566 2609 3566 1747 
Q 3566 888 3137 398 
Q 2709 -91 1959 -91 
Q 1206 -91 779 398 
Q 353 888 353 1747 
Q 353 2609 779 3096 
Q 1206 3584 1959 3584 
z
" id="DejaVuSans-6f" transform="scale(0.015625)"/>
       <path d="M 3122 3366 
L 3122 2828 
Q 2878 2963 2633 3030 
Q 2388 3097 2138 3097 
Q 1578 3097 1268 2742 
Q 959 2388 959 1747 
Q 959 1106 1268 751 
Q 1578 397 2138 397 
Q 2388 397 2633 464 
Q 2878 531 3122 666 
L 3122 134 
Q 2881 22 2623 -34 
Q 2366 -91 2075 -91 
Q 1284 -91 818 406 
Q 353 903 353 1747 
Q 353 2603 823 3093 
Q 1294 3584 2113 3584 
Q 2378 3584 2631 3529 
Q 2884 3475 3122 3366 
z
" id="DejaVuSans-63" transform="scale(0.015625)"/>
       <path d="M 3513 2113 
L 3513 0 
L 2938 0 
L 2938 2094 
Q 2938 2591 2744 2837 
Q 2550 3084 2163 3084 
Q 1697 3084 1428 2787 
Q 1159 2491 1159 1978 
L 1159 0 
L 581 0 
L 581 4863 
L 1159 4863 
L 1159 2956 
Q 1366 3272 1645 3428 
Q 1925 3584 2291 3584 
Q 2894 3584 3203 3211 
Q 3513 2838 3513 2113 
z
" id="DejaVuSans-68" transform="scale(0.015625)"/>
      </defs>
      <use xlink:href="#DejaVuSans-45"/>
      <use x="63.183594" xlink:href="#DejaVuSans-70"/>
      <use x="126.660156" xlink:href="#DejaVuSans-6f"/>
      <use x="187.841797" xlink:href="#DejaVuSans-63"/>
      <use x="242.822266" xlink:href="#DejaVuSans-68"/>
     </g>
    </g>
   </g>
   <g id="matplotlib.axis_2">
    <g id="ytick_1">
     <g id="line2d_5">
      <path clip-path="url(#pd907f2a73b)" d="M 70.803438 201.626037 
L 274.409687 201.626037 
" style="fill:none;stroke:#ffffff;stroke-linecap:round;"/>
     </g>
     <g id="text_2">
      <!-- 140 -->
      <g style="fill:#262626;" transform="translate(40.307187 205.805177)scale(0.11 -0.11)">
       <defs>
        <path d="M 794 531 
L 1825 531 
L 1825 4091 
L 703 3866 
L 703 4441 
L 1819 4666 
L 2450 4666 
L 2450 531 
L 3481 531 
L 3481 0 
L 794 0 
L 794 531 
z
" id="DejaVuSans-31" transform="scale(0.015625)"/>
        <path d="M 2419 4116 
L 825 1625 
L 2419 1625 
L 2419 4116 
z
M 2253 4666 
L 3047 4666 
L 3047 1625 
L 3713 1625 
L 3713 1100 
L 3047 1100 
L 3047 0 
L 2419 0 
L 2419 1100 
L 313 1100 
L 313 1709 
L 2253 4666 
z
" id="DejaVuSans-34" transform="scale(0.015625)"/>
        <path d="M 2034 4250 
Q 1547 4250 1301 3770 
Q 1056 3291 1056 2328 
Q 1056 1369 1301 889 
Q 1547 409 2034 409 
Q 2525 409 2770 889 
Q 3016 1369 3016 2328 
Q 3016 3291 2770 3770 
Q 2525 4250 2034 4250 
z
M 2034 4750 
Q 2819 4750 3233 4129 
Q 3647 3509 3647 2328 
Q 3647 1150 3233 529 
Q 2819 -91 2034 -91 
Q 1250 -91 836 529 
Q 422 1150 422 2328 
Q 422 3509 836 4129 
Q 1250 4750 2034 4750 
z
" id="DejaVuSans-30" transform="scale(0.015625)"/>
       </defs>
       <use xlink:href="#DejaVuSans-31"/>
       <use x="63.623047" xlink:href="#DejaVuSans-34"/>
       <use x="127.246094" xlink:href="#DejaVuSans-30"/>
      </g>
     </g>
    </g>
    <g id="ytick_2">
     <g id="line2d_6">
      <path clip-path="url(#pd907f2a73b)" d="M 70.803438 162.605985 
L 274.409687 162.605985 
" style="fill:none;stroke:#ffffff;stroke-linecap:round;"/>
     </g>
     <g id="text_3">
      <!-- 160 -->
      <g style="fill:#262626;" transform="translate(40.307187 166.785126)scale(0.11 -0.11)">
       <defs>
        <path d="M 2113 2584 
Q 1688 2584 1439 2293 
Q 1191 2003 1191 1497 
Q 1191 994 1439 701 
Q 1688 409 2113 409 
Q 2538 409 2786 701 
Q 3034 994 3034 1497 
Q 3034 2003 2786 2293 
Q 2538 2584 2113 2584 
z
M 3366 4563 
L 3366 3988 
Q 3128 4100 2886 4159 
Q 2644 4219 2406 4219 
Q 1781 4219 1451 3797 
Q 1122 3375 1075 2522 
Q 1259 2794 1537 2939 
Q 1816 3084 2150 3084 
Q 2853 3084 3261 2657 
Q 3669 2231 3669 1497 
Q 3669 778 3244 343 
Q 2819 -91 2113 -91 
Q 1303 -91 875 529 
Q 447 1150 447 2328 
Q 447 3434 972 4092 
Q 1497 4750 2381 4750 
Q 2619 4750 2861 4703 
Q 3103 4656 3366 4563 
z
" id="DejaVuSans-36" transform="scale(0.015625)"/>
       </defs>
       <use xlink:href="#DejaVuSans-31"/>
       <use x="63.623047" xlink:href="#DejaVuSans-36"/>
       <use x="127.246094" xlink:href="#DejaVuSans-30"/>
      </g>
     </g>
    </g>
    <g id="ytick_3">
     <g id="line2d_7">
      <path clip-path="url(#pd907f2a73b)" d="M 70.803438 123.585934 
L 274.409687 123.585934 
" style="fill:none;stroke:#ffffff;stroke-linecap:round;"/>
     </g>
     <g id="text_4">
      <!-- 180 -->
      <g style="fill:#262626;" transform="translate(40.307187 127.765074)scale(0.11 -0.11)">
       <defs>
        <path d="M 2034 2216 
Q 1584 2216 1326 1975 
Q 1069 1734 1069 1313 
Q 1069 891 1326 650 
Q 1584 409 2034 409 
Q 2484 409 2743 651 
Q 3003 894 3003 1313 
Q 3003 1734 2745 1975 
Q 2488 2216 2034 2216 
z
M 1403 2484 
Q 997 2584 770 2862 
Q 544 3141 544 3541 
Q 544 4100 942 4425 
Q 1341 4750 2034 4750 
Q 2731 4750 3128 4425 
Q 3525 4100 3525 3541 
Q 3525 3141 3298 2862 
Q 3072 2584 2669 2484 
Q 3125 2378 3379 2068 
Q 3634 1759 3634 1313 
Q 3634 634 3220 271 
Q 2806 -91 2034 -91 
Q 1263 -91 848 271 
Q 434 634 434 1313 
Q 434 1759 690 2068 
Q 947 2378 1403 2484 
z
M 1172 3481 
Q 1172 3119 1398 2916 
Q 1625 2713 2034 2713 
Q 2441 2713 2670 2916 
Q 2900 3119 2900 3481 
Q 2900 3844 2670 4047 
Q 2441 4250 2034 4250 
Q 1625 4250 1398 4047 
Q 1172 3844 1172 3481 
z
" id="DejaVuSans-38" transform="scale(0.015625)"/>
       </defs>
       <use xlink:href="#DejaVuSans-31"/>
       <use x="63.623047" xlink:href="#DejaVuSans-38"/>
       <use x="127.246094" xlink:href="#DejaVuSans-30"/>
      </g>
     </g>
    </g>
    <g id="ytick_4">
     <g id="line2d_8">
      <path clip-path="url(#pd907f2a73b)" d="M 70.803438 84.565882 
L 274.409687 84.565882 
" style="fill:none;stroke:#ffffff;stroke-linecap:round;"/>
     </g>
     <g id="text_5">
      <!-- 200 -->
      <g style="fill:#262626;" transform="translate(40.307187 88.745023)scale(0.11 -0.11)">
       <defs>
        <path d="M 1228 531 
L 3431 531 
L 3431 0 
L 469 0 
L 469 531 
Q 828 903 1448 1529 
Q 2069 2156 2228 2338 
Q 2531 2678 2651 2914 
Q 2772 3150 2772 3378 
Q 2772 3750 2511 3984 
Q 2250 4219 1831 4219 
Q 1534 4219 1204 4116 
Q 875 4013 500 3803 
L 500 4441 
Q 881 4594 1212 4672 
Q 1544 4750 1819 4750 
Q 2544 4750 2975 4387 
Q 3406 4025 3406 3419 
Q 3406 3131 3298 2873 
Q 3191 2616 2906 2266 
Q 2828 2175 2409 1742 
Q 1991 1309 1228 531 
z
" id="DejaVuSans-32" transform="scale(0.015625)"/>
       </defs>
       <use xlink:href="#DejaVuSans-32"/>
       <use x="63.623047" xlink:href="#DejaVuSans-30"/>
       <use x="127.246094" xlink:href="#DejaVuSans-30"/>
      </g>
     </g>
    </g>
    <g id="text_6">
     <!-- Normalized Loss -->
     <g style="fill:#262626;" transform="translate(33.811562 185.430729)rotate(-90)scale(0.12 -0.12)">
      <defs>
       <path d="M 628 4666 
L 1478 4666 
L 3547 763 
L 3547 4666 
L 4159 4666 
L 4159 0 
L 3309 0 
L 1241 3903 
L 1241 0 
L 628 0 
L 628 4666 
z
" id="DejaVuSans-4e" transform="scale(0.015625)"/>
       <path d="M 2631 2963 
Q 2534 3019 2420 3045 
Q 2306 3072 2169 3072 
Q 1681 3072 1420 2755 
Q 1159 2438 1159 1844 
L 1159 0 
L 581 0 
L 581 3500 
L 1159 3500 
L 1159 2956 
Q 1341 3275 1631 3429 
Q 1922 3584 2338 3584 
Q 2397 3584 2469 3576 
Q 2541 3569 2628 3553 
L 2631 2963 
z
" id="DejaVuSans-72" transform="scale(0.015625)"/>
       <path d="M 3328 2828 
Q 3544 3216 3844 3400 
Q 4144 3584 4550 3584 
Q 5097 3584 5394 3201 
Q 5691 2819 5691 2113 
L 5691 0 
L 5113 0 
L 5113 2094 
Q 5113 2597 4934 2840 
Q 4756 3084 4391 3084 
Q 3944 3084 3684 2787 
Q 3425 2491 3425 1978 
L 3425 0 
L 2847 0 
L 2847 2094 
Q 2847 2600 2669 2842 
Q 2491 3084 2119 3084 
Q 1678 3084 1418 2786 
Q 1159 2488 1159 1978 
L 1159 0 
L 581 0 
L 581 3500 
L 1159 3500 
L 1159 2956 
Q 1356 3278 1631 3431 
Q 1906 3584 2284 3584 
Q 2666 3584 2933 3390 
Q 3200 3197 3328 2828 
z
" id="DejaVuSans-6d" transform="scale(0.015625)"/>
       <path d="M 2194 1759 
Q 1497 1759 1228 1600 
Q 959 1441 959 1056 
Q 959 750 1161 570 
Q 1363 391 1709 391 
Q 2188 391 2477 730 
Q 2766 1069 2766 1631 
L 2766 1759 
L 2194 1759 
z
M 3341 1997 
L 3341 0 
L 2766 0 
L 2766 531 
Q 2569 213 2275 61 
Q 1981 -91 1556 -91 
Q 1019 -91 701 211 
Q 384 513 384 1019 
Q 384 1609 779 1909 
Q 1175 2209 1959 2209 
L 2766 2209 
L 2766 2266 
Q 2766 2663 2505 2880 
Q 2244 3097 1772 3097 
Q 1472 3097 1187 3025 
Q 903 2953 641 2809 
L 641 3341 
Q 956 3463 1253 3523 
Q 1550 3584 1831 3584 
Q 2591 3584 2966 3190 
Q 3341 2797 3341 1997 
z
" id="DejaVuSans-61" transform="scale(0.015625)"/>
       <path d="M 603 4863 
L 1178 4863 
L 1178 0 
L 603 0 
L 603 4863 
z
" id="DejaVuSans-6c" transform="scale(0.015625)"/>
       <path d="M 603 3500 
L 1178 3500 
L 1178 0 
L 603 0 
L 603 3500 
z
M 603 4863 
L 1178 4863 
L 1178 4134 
L 603 4134 
L 603 4863 
z
" id="DejaVuSans-69" transform="scale(0.015625)"/>
       <path d="M 353 3500 
L 3084 3500 
L 3084 2975 
L 922 459 
L 3084 459 
L 3084 0 
L 275 0 
L 275 525 
L 2438 3041 
L 353 3041 
L 353 3500 
z
" id="DejaVuSans-7a" transform="scale(0.015625)"/>
       <path d="M 3597 1894 
L 3597 1613 
L 953 1613 
Q 991 1019 1311 708 
Q 1631 397 2203 397 
Q 2534 397 2845 478 
Q 3156 559 3463 722 
L 3463 178 
Q 3153 47 2828 -22 
Q 2503 -91 2169 -91 
Q 1331 -91 842 396 
Q 353 884 353 1716 
Q 353 2575 817 3079 
Q 1281 3584 2069 3584 
Q 2775 3584 3186 3129 
Q 3597 2675 3597 1894 
z
M 3022 2063 
Q 3016 2534 2758 2815 
Q 2500 3097 2075 3097 
Q 1594 3097 1305 2825 
Q 1016 2553 972 2059 
L 3022 2063 
z
" id="DejaVuSans-65" transform="scale(0.015625)"/>
       <path d="M 2906 2969 
L 2906 4863 
L 3481 4863 
L 3481 0 
L 2906 0 
L 2906 525 
Q 2725 213 2448 61 
Q 2172 -91 1784 -91 
Q 1150 -91 751 415 
Q 353 922 353 1747 
Q 353 2572 751 3078 
Q 1150 3584 1784 3584 
Q 2172 3584 2448 3432 
Q 2725 3281 2906 2969 
z
M 947 1747 
Q 947 1113 1208 752 
Q 1469 391 1925 391 
Q 2381 391 2643 752 
Q 2906 1113 2906 1747 
Q 2906 2381 2643 2742 
Q 2381 3103 1925 3103 
Q 1469 3103 1208 2742 
Q 947 2381 947 1747 
z
" id="DejaVuSans-64" transform="scale(0.015625)"/>
       <path id="DejaVuSans-20" transform="scale(0.015625)"/>
       <path d="M 628 4666 
L 1259 4666 
L 1259 531 
L 3531 531 
L 3531 0 
L 628 0 
L 628 4666 
z
" id="DejaVuSans-4c" transform="scale(0.015625)"/>
       <path d="M 2834 3397 
L 2834 2853 
Q 2591 2978 2328 3040 
Q 2066 3103 1784 3103 
Q 1356 3103 1142 2972 
Q 928 2841 928 2578 
Q 928 2378 1081 2264 
Q 1234 2150 1697 2047 
L 1894 2003 
Q 2506 1872 2764 1633 
Q 3022 1394 3022 966 
Q 3022 478 2636 193 
Q 2250 -91 1575 -91 
Q 1294 -91 989 -36 
Q 684 19 347 128 
L 347 722 
Q 666 556 975 473 
Q 1284 391 1588 391 
Q 1994 391 2212 530 
Q 2431 669 2431 922 
Q 2431 1156 2273 1281 
Q 2116 1406 1581 1522 
L 1381 1569 
Q 847 1681 609 1914 
Q 372 2147 372 2553 
Q 372 3047 722 3315 
Q 1072 3584 1716 3584 
Q 2034 3584 2315 3537 
Q 2597 3491 2834 3397 
z
" id="DejaVuSans-73" transform="scale(0.015625)"/>
      </defs>
      <use xlink:href="#DejaVuSans-4e"/>
      <use x="74.804688" xlink:href="#DejaVuSans-6f"/>
      <use x="135.986328" xlink:href="#DejaVuSans-72"/>
      <use x="175.349609" xlink:href="#DejaVuSans-6d"/>
      <use x="272.761719" xlink:href="#DejaVuSans-61"/>
      <use x="334.041016" xlink:href="#DejaVuSans-6c"/>
      <use x="361.824219" xlink:href="#DejaVuSans-69"/>
      <use x="389.607422" xlink:href="#DejaVuSans-7a"/>
      <use x="442.097656" xlink:href="#DejaVuSans-65"/>
      <use x="503.621094" xlink:href="#DejaVuSans-64"/>
      <use x="567.097656" xlink:href="#DejaVuSans-20"/>
      <use x="598.884766" xlink:href="#DejaVuSans-4c"/>
      <use x="652.847656" xlink:href="#DejaVuSans-6f"/>
      <use x="714.029297" xlink:href="#DejaVuSans-73"/>
      <use x="766.128906" xlink:href="#DejaVuSans-73"/>
     </g>
    </g>
   </g>
   <g id="line2d_9">
    <path clip-path="url(#pd907f2a73b)" d="M 82.701849 -1 
L 82.702504 5.090163 
L 85.346741 56.095475 
L 87.990978 81.65029 
L 90.635215 99.814959 
L 93.279452 112.271776 
L 95.923689 121.348556 
L 98.567926 128.816604 
L 101.212163 135.527249 
L 103.8564 140.164262 
L 106.500637 144.745991 
L 109.144874 148.693195 
L 111.789111 151.743897 
L 114.433348 154.369146 
L 117.077585 157.548312 
L 119.721822 159.255823 
L 122.366059 161.29984 
L 125.010296 163.042014 
L 127.654533 165.558075 
L 130.29877 167.626615 
L 132.943007 169.056276 
L 135.587244 169.789511 
L 138.231481 171.481172 
L 140.875718 172.797266 
L 143.519955 173.715491 
L 146.164192 175.162681 
L 148.808429 176.16057 
L 151.452666 176.772637 
L 154.096903 178.984118 
L 156.74114 179.332789 
L 159.385377 179.793201 
L 162.029614 180.542452 
L 164.673851 181.018543 
L 167.318088 182.144272 
L 169.962325 183.932669 
L 172.606562 183.826495 
L 175.2508 184.262238 
L 177.895037 184.933288 
L 180.539274 184.938158 
L 183.183511 185.246231 
L 185.827748 186.263545 
L 188.471985 186.60626 
L 191.116222 187.202784 
L 193.760459 187.39132 
L 196.404696 189.793536 
L 199.048933 187.78875 
L 201.69317 189.380351 
L 204.337407 189.818116 
L 206.981644 190.357151 
L 209.625881 191.689718 
L 212.270118 191.317692 
L 214.914355 191.107208 
L 217.558592 191.874913 
L 220.202829 191.523693 
L 222.847066 192.117556 
L 225.491303 192.565536 
L 228.13554 192.841323 
L 230.779777 193.511448 
L 233.424014 193.435443 
L 236.068251 194.346851 
L 238.712488 193.523847 
L 241.356725 194.333341 
L 244.000962 193.823093 
L 246.645199 195.116333 
L 249.289436 195.398894 
L 251.933673 195.052874 
L 254.57791 196.195192 
L 257.222147 196.064122 
L 259.866384 196.537602 
L 262.510621 196.212904 
L 265.154858 197.063488 
" style="fill:none;stroke:#c44e52;stroke-linecap:round;stroke-width:1.5;"/>
   </g>
   <g id="line2d_10">
    <path clip-path="url(#pd907f2a73b)" d="M 80.121134 -1 
L 82.702504 69.45232 
L 85.346741 95.004279 
L 87.990978 105.887698 
L 90.635215 126.75433 
L 93.279452 127.765803 
L 95.923689 141.402136 
L 98.567926 149.700621 
L 101.212163 152.852802 
L 103.8564 153.857159 
L 106.500637 160.78347 
L 109.144874 161.249879 
L 111.789111 167.413455 
L 114.433348 163.061294 
L 117.077585 170.18502 
L 119.721822 168.997026 
L 122.366059 168.149238 
L 125.010296 161.618222 
L 127.654533 169.610181 
L 130.29877 176.387458 
L 132.943007 175.671369 
L 135.587244 175.003651 
L 138.231481 177.447677 
L 140.875718 182.99975 
L 143.519955 175.331533 
L 146.164192 176.543242 
L 148.808429 180.543081 
L 151.452666 180.003817 
L 154.096903 184.951865 
L 156.74114 183.62863 
L 159.385377 185.822032 
L 162.029614 184.398162 
L 164.673851 184.812032 
L 167.318088 184.468605 
L 169.962325 180.308532 
L 172.606562 182.769155 
L 175.2508 185.162533 
L 177.895037 186.046898 
L 180.539274 187.392987 
L 183.183511 190.866526 
L 185.827748 187.412911 
L 188.471985 190.756976 
L 191.116222 187.333506 
L 193.760459 189.552926 
L 196.404696 185.422402 
L 199.048933 190.391716 
L 201.69317 191.375526 
L 204.337407 188.167522 
L 206.981644 188.041793 
L 209.625881 191.417282 
L 212.270118 192.40941 
L 214.914355 192.487856 
L 217.558592 190.613314 
L 220.202829 191.099865 
L 222.847066 194.021387 
L 225.491303 194.028244 
L 228.13554 194.55782 
L 230.779777 193.315806 
L 233.424014 189.707113 
L 236.068251 193.312373 
L 238.712488 187.256384 
L 241.356725 194.197547 
L 244.000962 194.425162 
L 246.645199 191.626939 
L 249.289436 195.674307 
L 251.933673 196.751882 
L 254.57791 196.701458 
L 257.222147 196.127771 
L 259.866384 186.386906 
L 262.510621 194.267685 
L 265.154858 193.094996 
" style="fill:none;stroke:#c44e52;stroke-dasharray:5.55,2.4;stroke-dashoffset:0;stroke-width:1.5;"/>
   </g>
   <g id="patch_3">
    <path d="M 70.803438 224.553333 
L 70.803438 48.12 
" style="fill:none;stroke:#ffffff;stroke-linecap:square;stroke-linejoin:miter;stroke-width:1.25;"/>
   </g>
   <g id="patch_4">
    <path d="M 274.409687 224.553333 
L 274.409687 48.12 
" style="fill:none;stroke:#ffffff;stroke-linecap:square;stroke-linejoin:miter;stroke-width:1.25;"/>
   </g>
   <g id="patch_5">
    <path d="M 70.803438 224.553333 
L 274.409687 224.553333 
" style="fill:none;stroke:#ffffff;stroke-linecap:square;stroke-linejoin:miter;stroke-width:1.25;"/>
   </g>
   <g id="patch_6">
    <path d="M 70.803438 48.12 
L 274.409687 48.12 
" style="fill:none;stroke:#ffffff;stroke-linecap:square;stroke-linejoin:miter;stroke-width:1.25;"/>
   </g>
   <g id="text_7">
    <!-- Loss With No Normalization -->
    <g style="fill:#262626;" transform="translate(90.250937 42.12)scale(0.12 -0.12)">
     <defs>
      <path d="M 213 4666 
L 850 4666 
L 1831 722 
L 2809 4666 
L 3519 4666 
L 4500 722 
L 5478 4666 
L 6119 4666 
L 4947 0 
L 4153 0 
L 3169 4050 
L 2175 0 
L 1381 0 
L 213 4666 
z
" id="DejaVuSans-57" transform="scale(0.015625)"/>
      <path d="M 1172 4494 
L 1172 3500 
L 2356 3500 
L 2356 3053 
L 1172 3053 
L 1172 1153 
Q 1172 725 1289 603 
Q 1406 481 1766 481 
L 2356 481 
L 2356 0 
L 1766 0 
Q 1100 0 847 248 
Q 594 497 594 1153 
L 594 3053 
L 172 3053 
L 172 3500 
L 594 3500 
L 594 4494 
L 1172 4494 
z
" id="DejaVuSans-74" transform="scale(0.015625)"/>
      <path d="M 3513 2113 
L 3513 0 
L 2938 0 
L 2938 2094 
Q 2938 2591 2744 2837 
Q 2550 3084 2163 3084 
Q 1697 3084 1428 2787 
Q 1159 2491 1159 1978 
L 1159 0 
L 581 0 
L 581 3500 
L 1159 3500 
L 1159 2956 
Q 1366 3272 1645 3428 
Q 1925 3584 2291 3584 
Q 2894 3584 3203 3211 
Q 3513 2838 3513 2113 
z
" id="DejaVuSans-6e" transform="scale(0.015625)"/>
     </defs>
     <use xlink:href="#DejaVuSans-4c"/>
     <use x="53.962891" xlink:href="#DejaVuSans-6f"/>
     <use x="115.144531" xlink:href="#DejaVuSans-73"/>
     <use x="167.244141" xlink:href="#DejaVuSans-73"/>
     <use x="219.34375" xlink:href="#DejaVuSans-20"/>
     <use x="251.130859" xlink:href="#DejaVuSans-57"/>
     <use x="347.757812" xlink:href="#DejaVuSans-69"/>
     <use x="375.541016" xlink:href="#DejaVuSans-74"/>
     <use x="414.75" xlink:href="#DejaVuSans-68"/>
     <use x="478.128906" xlink:href="#DejaVuSans-20"/>
     <use x="509.916016" xlink:href="#DejaVuSans-4e"/>
     <use x="584.720703" xlink:href="#DejaVuSans-6f"/>
     <use x="645.902344" xlink:href="#DejaVuSans-20"/>
     <use x="677.689453" xlink:href="#DejaVuSans-4e"/>
     <use x="752.494141" xlink:href="#DejaVuSans-6f"/>
     <use x="813.675781" xlink:href="#DejaVuSans-72"/>
     <use x="853.039062" xlink:href="#DejaVuSans-6d"/>
     <use x="950.451172" xlink:href="#DejaVuSans-61"/>
     <use x="1011.730469" xlink:href="#DejaVuSans-6c"/>
     <use x="1039.513672" xlink:href="#DejaVuSans-69"/>
     <use x="1067.296875" xlink:href="#DejaVuSans-7a"/>
     <use x="1119.787109" xlink:href="#DejaVuSans-61"/>
     <use x="1181.066406" xlink:href="#DejaVuSans-74"/>
     <use x="1220.275391" xlink:href="#DejaVuSans-69"/>
     <use x="1248.058594" xlink:href="#DejaVuSans-6f"/>
     <use x="1309.240234" xlink:href="#DejaVuSans-6e"/>
    </g>
   </g>
   <g id="legend_1">
    <g id="patch_7">
     <path d="M 205.123437 89.211875 
L 266.709687 89.211875 
Q 268.909687 89.211875 268.909687 87.011875 
L 268.909687 55.82 
Q 268.909687 53.62 266.709687 53.62 
L 205.123437 53.62 
Q 202.923437 53.62 202.923437 55.82 
L 202.923437 87.011875 
Q 202.923437 89.211875 205.123437 89.211875 
z
" style="fill:#eaeaf2;opacity:0.8;stroke:#cccccc;stroke-linejoin:miter;"/>
    </g>
    <g id="line2d_11">
     <path d="M 207.323437 62.528281 
L 229.323437 62.528281 
" style="fill:none;stroke:#c44e52;stroke-linecap:round;stroke-width:1.5;"/>
    </g>
    <g id="line2d_12"/>
    <g id="text_8">
     <!-- Train -->
     <g style="fill:#262626;" transform="translate(238.123437 66.378281)scale(0.11 -0.11)">
      <defs>
       <path d="M -19 4666 
L 3928 4666 
L 3928 4134 
L 2272 4134 
L 2272 0 
L 1638 0 
L 1638 4134 
L -19 4134 
L -19 4666 
z
" id="DejaVuSans-54" transform="scale(0.015625)"/>
      </defs>
      <use xlink:href="#DejaVuSans-54"/>
      <use x="46.333984" xlink:href="#DejaVuSans-72"/>
      <use x="87.447266" xlink:href="#DejaVuSans-61"/>
      <use x="148.726562" xlink:href="#DejaVuSans-69"/>
      <use x="176.509766" xlink:href="#DejaVuSans-6e"/>
     </g>
    </g>
    <g id="line2d_13">
     <path d="M 207.323437 78.674219 
L 229.323437 78.674219 
" style="fill:none;stroke:#c44e52;stroke-dasharray:5.55,2.4;stroke-dashoffset:0;stroke-width:1.5;"/>
    </g>
    <g id="line2d_14"/>
    <g id="text_9">
     <!-- Test -->
     <g style="fill:#262626;" transform="translate(238.123437 82.524219)scale(0.11 -0.11)">
      <use xlink:href="#DejaVuSans-54"/>
      <use x="44.083984" xlink:href="#DejaVuSans-65"/>
      <use x="105.607422" xlink:href="#DejaVuSans-73"/>
      <use x="157.707031" xlink:href="#DejaVuSans-74"/>
     </g>
    </g>
   </g>
  </g>
  <g id="axes_2">
   <g id="patch_8">
    <path d="M 70.803438 444.346667 
L 274.409687 444.346667 
L 274.409687 267.913333 
L 70.803438 267.913333 
z
" style="fill:#eaeaf2;"/>
   </g>
   <g id="matplotlib.axis_3">
    <g id="xtick_5">
     <g id="line2d_15">
      <path clip-path="url(#p222a39d19b)" d="M 80.058267 444.346667 
L 80.058267 267.913333 
" style="fill:none;stroke:#ffffff;stroke-linecap:round;"/>
     </g>
    </g>
    <g id="xtick_6">
     <g id="line2d_16">
      <path clip-path="url(#p222a39d19b)" d="M 132.943007 444.346667 
L 132.943007 267.913333 
" style="fill:none;stroke:#ffffff;stroke-linecap:round;"/>
     </g>
    </g>
    <g id="xtick_7">
     <g id="line2d_17">
      <path clip-path="url(#p222a39d19b)" d="M 185.827748 444.346667 
L 185.827748 267.913333 
" style="fill:none;stroke:#ffffff;stroke-linecap:round;"/>
     </g>
    </g>
    <g id="xtick_8">
     <g id="line2d_18">
      <path clip-path="url(#p222a39d19b)" d="M 238.712488 444.346667 
L 238.712488 267.913333 
" style="fill:none;stroke:#ffffff;stroke-linecap:round;"/>
     </g>
    </g>
    <g id="text_10">
     <!-- Epoch -->
     <g style="fill:#262626;" transform="translate(154.233438 457.464792)scale(0.12 -0.12)">
      <use xlink:href="#DejaVuSans-45"/>
      <use x="63.183594" xlink:href="#DejaVuSans-70"/>
      <use x="126.660156" xlink:href="#DejaVuSans-6f"/>
      <use x="187.841797" xlink:href="#DejaVuSans-63"/>
      <use x="242.822266" xlink:href="#DejaVuSans-68"/>
     </g>
    </g>
   </g>
   <g id="matplotlib.axis_4">
    <g id="ytick_5">
     <g id="line2d_19">
      <path clip-path="url(#p222a39d19b)" d="M 70.803438 415.309367 
L 274.409687 415.309367 
" style="fill:none;stroke:#ffffff;stroke-linecap:round;"/>
     </g>
     <g id="text_11">
      <!-- 0.0012 -->
      <g style="fill:#262626;" transform="translate(22.81375 419.488507)scale(0.11 -0.11)">
       <defs>
        <path d="M 684 794 
L 1344 794 
L 1344 0 
L 684 0 
L 684 794 
z
" id="DejaVuSans-2e" transform="scale(0.015625)"/>
       </defs>
       <use xlink:href="#DejaVuSans-30"/>
       <use x="63.623047" xlink:href="#DejaVuSans-2e"/>
       <use x="95.410156" xlink:href="#DejaVuSans-30"/>
       <use x="159.033203" xlink:href="#DejaVuSans-30"/>
       <use x="222.65625" xlink:href="#DejaVuSans-31"/>
       <use x="286.279297" xlink:href="#DejaVuSans-32"/>
      </g>
     </g>
    </g>
    <g id="ytick_6">
     <g id="line2d_20">
      <path clip-path="url(#p222a39d19b)" d="M 70.803438 385.637845 
L 274.409687 385.637845 
" style="fill:none;stroke:#ffffff;stroke-linecap:round;"/>
     </g>
     <g id="text_12">
      <!-- 0.0014 -->
      <g style="fill:#262626;" transform="translate(22.81375 389.816986)scale(0.11 -0.11)">
       <use xlink:href="#DejaVuSans-30"/>
       <use x="63.623047" xlink:href="#DejaVuSans-2e"/>
       <use x="95.410156" xlink:href="#DejaVuSans-30"/>
       <use x="159.033203" xlink:href="#DejaVuSans-30"/>
       <use x="222.65625" xlink:href="#DejaVuSans-31"/>
       <use x="286.279297" xlink:href="#DejaVuSans-34"/>
      </g>
     </g>
    </g>
    <g id="ytick_7">
     <g id="line2d_21">
      <path clip-path="url(#p222a39d19b)" d="M 70.803438 355.966324 
L 274.409687 355.966324 
" style="fill:none;stroke:#ffffff;stroke-linecap:round;"/>
     </g>
     <g id="text_13">
      <!-- 0.0016 -->
      <g style="fill:#262626;" transform="translate(22.81375 360.145465)scale(0.11 -0.11)">
       <use xlink:href="#DejaVuSans-30"/>
       <use x="63.623047" xlink:href="#DejaVuSans-2e"/>
       <use x="95.410156" xlink:href="#DejaVuSans-30"/>
       <use x="159.033203" xlink:href="#DejaVuSans-30"/>
       <use x="222.65625" xlink:href="#DejaVuSans-31"/>
       <use x="286.279297" xlink:href="#DejaVuSans-36"/>
      </g>
     </g>
    </g>
    <g id="ytick_8">
     <g id="line2d_22">
      <path clip-path="url(#p222a39d19b)" d="M 70.803438 326.294803 
L 274.409687 326.294803 
" style="fill:none;stroke:#ffffff;stroke-linecap:round;"/>
     </g>
     <g id="text_14">
      <!-- 0.0018 -->
      <g style="fill:#262626;" transform="translate(22.81375 330.473943)scale(0.11 -0.11)">
       <use xlink:href="#DejaVuSans-30"/>
       <use x="63.623047" xlink:href="#DejaVuSans-2e"/>
       <use x="95.410156" xlink:href="#DejaVuSans-30"/>
       <use x="159.033203" xlink:href="#DejaVuSans-30"/>
       <use x="222.65625" xlink:href="#DejaVuSans-31"/>
       <use x="286.279297" xlink:href="#DejaVuSans-38"/>
      </g>
     </g>
    </g>
    <g id="ytick_9">
     <g id="line2d_23">
      <path clip-path="url(#p222a39d19b)" d="M 70.803438 296.623282 
L 274.409687 296.623282 
" style="fill:none;stroke:#ffffff;stroke-linecap:round;"/>
     </g>
     <g id="text_15">
      <!-- 0.0020 -->
      <g style="fill:#262626;" transform="translate(22.81375 300.802422)scale(0.11 -0.11)">
       <use xlink:href="#DejaVuSans-30"/>
       <use x="63.623047" xlink:href="#DejaVuSans-2e"/>
       <use x="95.410156" xlink:href="#DejaVuSans-30"/>
       <use x="159.033203" xlink:href="#DejaVuSans-30"/>
       <use x="222.65625" xlink:href="#DejaVuSans-32"/>
       <use x="286.279297" xlink:href="#DejaVuSans-30"/>
      </g>
     </g>
    </g>
    <g id="text_16">
     <!-- Normalized Loss -->
     <g style="fill:#262626;" transform="translate(16.318125 405.224063)rotate(-90)scale(0.12 -0.12)">
      <use xlink:href="#DejaVuSans-4e"/>
      <use x="74.804688" xlink:href="#DejaVuSans-6f"/>
      <use x="135.986328" xlink:href="#DejaVuSans-72"/>
      <use x="175.349609" xlink:href="#DejaVuSans-6d"/>
      <use x="272.761719" xlink:href="#DejaVuSans-61"/>
      <use x="334.041016" xlink:href="#DejaVuSans-6c"/>
      <use x="361.824219" xlink:href="#DejaVuSans-69"/>
      <use x="389.607422" xlink:href="#DejaVuSans-7a"/>
      <use x="442.097656" xlink:href="#DejaVuSans-65"/>
      <use x="503.621094" xlink:href="#DejaVuSans-64"/>
      <use x="567.097656" xlink:href="#DejaVuSans-20"/>
      <use x="598.884766" xlink:href="#DejaVuSans-4c"/>
      <use x="652.847656" xlink:href="#DejaVuSans-6f"/>
      <use x="714.029297" xlink:href="#DejaVuSans-73"/>
      <use x="766.128906" xlink:href="#DejaVuSans-73"/>
     </g>
    </g>
   </g>
   <g id="line2d_24">
    <path clip-path="url(#p222a39d19b)" d="M 81.136812 -1 
L 82.702504 271.06961 
L 85.346741 276.971311 
L 87.990978 277.524743 
L 90.635215 278.482679 
L 93.279452 278.209094 
L 95.923689 277.723181 
L 98.567926 278.679976 
L 101.212163 278.838415 
L 103.8564 277.846204 
L 106.500637 277.892029 
L 109.144874 278.595269 
L 111.789111 279.358708 
L 114.433348 278.860846 
L 117.077585 279.394185 
L 119.721822 278.285042 
L 122.366059 341.003302 
L 125.010296 357.342437 
L 127.654533 361.796655 
L 130.29877 364.77214 
L 132.943007 366.523122 
L 135.587244 367.460519 
L 138.231481 368.586929 
L 140.875718 369.157071 
L 143.519955 370.465165 
L 146.164192 371.135093 
L 148.808429 372.333569 
L 151.452666 373.160928 
L 154.096903 374.289189 
L 156.74114 375.099376 
L 159.385377 375.493475 
L 162.029614 376.241265 
L 164.673851 376.817336 
L 167.318088 377.803752 
L 169.962325 378.431385 
L 172.606562 379.004852 
L 175.2508 379.186093 
L 177.895037 380.493065 
L 180.539274 380.540687 
L 183.183511 381.080087 
L 185.827748 381.31838 
L 188.471985 381.507591 
L 191.116222 382.200963 
L 193.760459 382.568352 
L 196.404696 382.895755 
L 199.048933 383.287679 
L 201.69317 383.401029 
L 204.337407 383.466088 
L 206.981644 384.185601 
L 209.625881 384.400851 
L 212.270118 384.397787 
L 214.914355 384.429724 
L 217.558592 384.747419 
L 220.202829 384.337497 
L 222.847066 384.724549 
L 225.491303 385.148543 
L 228.13554 384.800298 
L 230.779777 384.885436 
L 233.424014 385.498897 
L 236.068251 385.426343 
L 238.712488 385.799205 
L 241.356725 386.075259 
L 244.000962 386.410863 
L 246.645199 386.637851 
L 249.289436 386.556852 
L 251.933673 403.863462 
L 254.57791 407.966458 
L 257.222147 410.681319 
L 259.866384 412.174805 
L 262.510621 413.546095 
L 265.154858 414.471608 
" style="fill:none;stroke:#55a868;stroke-linecap:round;stroke-width:1.5;"/>
   </g>
   <g id="line2d_25">
    <path clip-path="url(#p222a39d19b)" d="M 80.058267 283.290597 
L 82.702504 289.299085 
L 85.346741 296.94363 
L 87.990978 284.184591 
L 90.635215 303.905977 
L 93.279452 298.356477 
L 95.923689 288.830392 
L 98.567926 301.142218 
L 101.212163 303.671232 
L 103.8564 299.566326 
L 106.500637 294.23209 
L 109.144874 285.375174 
L 111.789111 299.942983 
L 114.433348 288.744972 
L 117.077585 293.867109 
L 119.721822 299.053329 
L 122.366059 368.682254 
L 125.010296 378.807159 
L 127.654533 380.343719 
L 130.29877 381.679195 
L 132.943007 381.731854 
L 135.587244 386.455745 
L 138.231481 378.776491 
L 140.875718 386.144163 
L 143.519955 390.372337 
L 146.164192 388.799334 
L 148.808429 384.932235 
L 151.452666 389.033149 
L 154.096903 391.590042 
L 156.74114 389.444512 
L 159.385377 391.646952 
L 162.029614 392.815961 
L 164.673851 393.382998 
L 167.318088 392.683727 
L 169.962325 391.706901 
L 172.606562 396.353197 
L 175.2508 396.527938 
L 177.895037 395.038945 
L 180.539274 397.28029 
L 183.183511 394.566189 
L 185.827748 399.345171 
L 188.471985 398.978078 
L 191.116222 398.015684 
L 193.760459 395.110985 
L 196.404696 402.298298 
L 199.048933 402.024309 
L 201.69317 400.636797 
L 204.337407 394.177226 
L 206.981644 400.965372 
L 209.625881 400.642014 
L 212.270118 400.769903 
L 214.914355 399.150455 
L 217.558592 400.116057 
L 220.202829 403.917203 
L 222.847066 402.139478 
L 225.491303 402.438263 
L 228.13554 401.870121 
L 230.779777 400.18798 
L 233.424014 402.066629 
L 236.068251 395.915186 
L 238.712488 398.981723 
L 241.356725 386.223315 
L 244.000962 402.899814 
L 246.645199 399.474921 
L 249.289436 403.80652 
L 251.933673 421.285531 
L 254.57791 423.801083 
L 257.222147 426.016027 
L 259.866384 427.134934 
L 262.510621 427.792019 
L 265.154858 424.179699 
" style="fill:none;stroke:#55a868;stroke-dasharray:5.55,2.4;stroke-dashoffset:0;stroke-width:1.5;"/>
   </g>
   <g id="patch_9">
    <path d="M 70.803438 444.346667 
L 70.803438 267.913333 
" style="fill:none;stroke:#ffffff;stroke-linecap:square;stroke-linejoin:miter;stroke-width:1.25;"/>
   </g>
   <g id="patch_10">
    <path d="M 274.409687 444.346667 
L 274.409687 267.913333 
" style="fill:none;stroke:#ffffff;stroke-linecap:square;stroke-linejoin:miter;stroke-width:1.25;"/>
   </g>
   <g id="patch_11">
    <path d="M 70.803438 444.346667 
L 274.409687 444.346667 
" style="fill:none;stroke:#ffffff;stroke-linecap:square;stroke-linejoin:miter;stroke-width:1.25;"/>
   </g>
   <g id="patch_12">
    <path d="M 70.803438 267.913333 
L 274.409687 267.913333 
" style="fill:none;stroke:#ffffff;stroke-linecap:square;stroke-linejoin:miter;stroke-width:1.25;"/>
   </g>
   <g id="text_17">
    <!-- Loss With Min_max Normalization -->
    <g style="fill:#262626;" transform="translate(71.692188 261.913333)scale(0.12 -0.12)">
     <defs>
      <path d="M 628 4666 
L 1569 4666 
L 2759 1491 
L 3956 4666 
L 4897 4666 
L 4897 0 
L 4281 0 
L 4281 4097 
L 3078 897 
L 2444 897 
L 1241 4097 
L 1241 0 
L 628 0 
L 628 4666 
z
" id="DejaVuSans-4d" transform="scale(0.015625)"/>
      <path d="M 3263 -1063 
L 3263 -1509 
L -63 -1509 
L -63 -1063 
L 3263 -1063 
z
" id="DejaVuSans-5f" transform="scale(0.015625)"/>
      <path d="M 3513 3500 
L 2247 1797 
L 3578 0 
L 2900 0 
L 1881 1375 
L 863 0 
L 184 0 
L 1544 1831 
L 300 3500 
L 978 3500 
L 1906 2253 
L 2834 3500 
L 3513 3500 
z
" id="DejaVuSans-78" transform="scale(0.015625)"/>
     </defs>
     <use xlink:href="#DejaVuSans-4c"/>
     <use x="53.962891" xlink:href="#DejaVuSans-6f"/>
     <use x="115.144531" xlink:href="#DejaVuSans-73"/>
     <use x="167.244141" xlink:href="#DejaVuSans-73"/>
     <use x="219.34375" xlink:href="#DejaVuSans-20"/>
     <use x="251.130859" xlink:href="#DejaVuSans-57"/>
     <use x="347.757812" xlink:href="#DejaVuSans-69"/>
     <use x="375.541016" xlink:href="#DejaVuSans-74"/>
     <use x="414.75" xlink:href="#DejaVuSans-68"/>
     <use x="478.128906" xlink:href="#DejaVuSans-20"/>
     <use x="509.916016" xlink:href="#DejaVuSans-4d"/>
     <use x="596.195312" xlink:href="#DejaVuSans-69"/>
     <use x="623.978516" xlink:href="#DejaVuSans-6e"/>
     <use x="687.357422" xlink:href="#DejaVuSans-5f"/>
     <use x="737.357422" xlink:href="#DejaVuSans-6d"/>
     <use x="834.769531" xlink:href="#DejaVuSans-61"/>
     <use x="896.048828" xlink:href="#DejaVuSans-78"/>
     <use x="955.228516" xlink:href="#DejaVuSans-20"/>
     <use x="987.015625" xlink:href="#DejaVuSans-4e"/>
     <use x="1061.820312" xlink:href="#DejaVuSans-6f"/>
     <use x="1123.001953" xlink:href="#DejaVuSans-72"/>
     <use x="1162.365234" xlink:href="#DejaVuSans-6d"/>
     <use x="1259.777344" xlink:href="#DejaVuSans-61"/>
     <use x="1321.056641" xlink:href="#DejaVuSans-6c"/>
     <use x="1348.839844" xlink:href="#DejaVuSans-69"/>
     <use x="1376.623047" xlink:href="#DejaVuSans-7a"/>
     <use x="1429.113281" xlink:href="#DejaVuSans-61"/>
     <use x="1490.392578" xlink:href="#DejaVuSans-74"/>
     <use x="1529.601562" xlink:href="#DejaVuSans-69"/>
     <use x="1557.384766" xlink:href="#DejaVuSans-6f"/>
     <use x="1618.566406" xlink:href="#DejaVuSans-6e"/>
    </g>
   </g>
   <g id="legend_2">
    <g id="patch_13">
     <path d="M 205.123437 309.005208 
L 266.709687 309.005208 
Q 268.909687 309.005208 268.909687 306.805208 
L 268.909687 275.613333 
Q 268.909687 273.413333 266.709687 273.413333 
L 205.123437 273.413333 
Q 202.923437 273.413333 202.923437 275.613333 
L 202.923437 306.805208 
Q 202.923437 309.005208 205.123437 309.005208 
z
" style="fill:#eaeaf2;opacity:0.8;stroke:#cccccc;stroke-linejoin:miter;"/>
    </g>
    <g id="line2d_26">
     <path d="M 207.323437 282.321615 
L 229.323437 282.321615 
" style="fill:none;stroke:#55a868;stroke-linecap:round;stroke-width:1.5;"/>
    </g>
    <g id="line2d_27"/>
    <g id="text_18">
     <!-- Train -->
     <g style="fill:#262626;" transform="translate(238.123437 286.171615)scale(0.11 -0.11)">
      <use xlink:href="#DejaVuSans-54"/>
      <use x="46.333984" xlink:href="#DejaVuSans-72"/>
      <use x="87.447266" xlink:href="#DejaVuSans-61"/>
      <use x="148.726562" xlink:href="#DejaVuSans-69"/>
      <use x="176.509766" xlink:href="#DejaVuSans-6e"/>
     </g>
    </g>
    <g id="line2d_28">
     <path d="M 207.323437 298.467552 
L 229.323437 298.467552 
" style="fill:none;stroke:#55a868;stroke-dasharray:5.55,2.4;stroke-dashoffset:0;stroke-width:1.5;"/>
    </g>
    <g id="line2d_29"/>
    <g id="text_19">
     <!-- Test -->
     <g style="fill:#262626;" transform="translate(238.123437 302.317552)scale(0.11 -0.11)">
      <use xlink:href="#DejaVuSans-54"/>
      <use x="44.083984" xlink:href="#DejaVuSans-65"/>
      <use x="105.607422" xlink:href="#DejaVuSans-73"/>
      <use x="157.707031" xlink:href="#DejaVuSans-74"/>
     </g>
    </g>
   </g>
  </g>
  <g id="axes_3">
   <g id="patch_14">
    <path d="M 70.803438 664.14 
L 274.409687 664.14 
L 274.409687 487.706667 
L 70.803438 487.706667 
z
" style="fill:#eaeaf2;"/>
   </g>
   <g id="matplotlib.axis_5">
    <g id="xtick_9">
     <g id="line2d_30">
      <path clip-path="url(#pc11469a321)" d="M 80.058267 664.14 
L 80.058267 487.706667 
" style="fill:none;stroke:#ffffff;stroke-linecap:round;"/>
     </g>
     <g id="text_20">
      <!-- 0 -->
      <g style="fill:#262626;" transform="translate(76.558892 681.998281)scale(0.11 -0.11)">
       <use xlink:href="#DejaVuSans-30"/>
      </g>
     </g>
    </g>
    <g id="xtick_10">
     <g id="line2d_31">
      <path clip-path="url(#pc11469a321)" d="M 132.943007 664.14 
L 132.943007 487.706667 
" style="fill:none;stroke:#ffffff;stroke-linecap:round;"/>
     </g>
     <g id="text_21">
      <!-- 20 -->
      <g style="fill:#262626;" transform="translate(125.944257 681.998281)scale(0.11 -0.11)">
       <use xlink:href="#DejaVuSans-32"/>
       <use x="63.623047" xlink:href="#DejaVuSans-30"/>
      </g>
     </g>
    </g>
    <g id="xtick_11">
     <g id="line2d_32">
      <path clip-path="url(#pc11469a321)" d="M 185.827748 664.14 
L 185.827748 487.706667 
" style="fill:none;stroke:#ffffff;stroke-linecap:round;"/>
     </g>
     <g id="text_22">
      <!-- 40 -->
      <g style="fill:#262626;" transform="translate(178.828998 681.998281)scale(0.11 -0.11)">
       <use xlink:href="#DejaVuSans-34"/>
       <use x="63.623047" xlink:href="#DejaVuSans-30"/>
      </g>
     </g>
    </g>
    <g id="xtick_12">
     <g id="line2d_33">
      <path clip-path="url(#pc11469a321)" d="M 238.712488 664.14 
L 238.712488 487.706667 
" style="fill:none;stroke:#ffffff;stroke-linecap:round;"/>
     </g>
     <g id="text_23">
      <!-- 60 -->
      <g style="fill:#262626;" transform="translate(231.713738 681.998281)scale(0.11 -0.11)">
       <use xlink:href="#DejaVuSans-36"/>
       <use x="63.623047" xlink:href="#DejaVuSans-30"/>
      </g>
     </g>
    </g>
    <g id="text_24">
     <!-- Epoch -->
     <g style="fill:#262626;" transform="translate(154.233438 697.404063)scale(0.12 -0.12)">
      <use xlink:href="#DejaVuSans-45"/>
      <use x="63.183594" xlink:href="#DejaVuSans-70"/>
      <use x="126.660156" xlink:href="#DejaVuSans-6f"/>
      <use x="187.841797" xlink:href="#DejaVuSans-63"/>
      <use x="242.822266" xlink:href="#DejaVuSans-68"/>
     </g>
    </g>
   </g>
   <g id="matplotlib.axis_6">
    <g id="ytick_10">
     <g id="line2d_34">
      <path clip-path="url(#pc11469a321)" d="M 70.803438 647.742222 
L 274.409687 647.742222 
" style="fill:none;stroke:#ffffff;stroke-linecap:round;"/>
     </g>
     <g id="text_25">
      <!-- 0.07 -->
      <g style="fill:#262626;" transform="translate(36.81125 651.921363)scale(0.11 -0.11)">
       <defs>
        <path d="M 525 4666 
L 3525 4666 
L 3525 4397 
L 1831 0 
L 1172 0 
L 2766 4134 
L 525 4134 
L 525 4666 
z
" id="DejaVuSans-37" transform="scale(0.015625)"/>
       </defs>
       <use xlink:href="#DejaVuSans-30"/>
       <use x="63.623047" xlink:href="#DejaVuSans-2e"/>
       <use x="95.410156" xlink:href="#DejaVuSans-30"/>
       <use x="159.033203" xlink:href="#DejaVuSans-37"/>
      </g>
     </g>
    </g>
    <g id="ytick_11">
     <g id="line2d_35">
      <path clip-path="url(#pc11469a321)" d="M 70.803438 612.121999 
L 274.409687 612.121999 
" style="fill:none;stroke:#ffffff;stroke-linecap:round;"/>
     </g>
     <g id="text_26">
      <!-- 0.08 -->
      <g style="fill:#262626;" transform="translate(36.81125 616.30114)scale(0.11 -0.11)">
       <use xlink:href="#DejaVuSans-30"/>
       <use x="63.623047" xlink:href="#DejaVuSans-2e"/>
       <use x="95.410156" xlink:href="#DejaVuSans-30"/>
       <use x="159.033203" xlink:href="#DejaVuSans-38"/>
      </g>
     </g>
    </g>
    <g id="ytick_12">
     <g id="line2d_36">
      <path clip-path="url(#pc11469a321)" d="M 70.803438 576.501776 
L 274.409687 576.501776 
" style="fill:none;stroke:#ffffff;stroke-linecap:round;"/>
     </g>
     <g id="text_27">
      <!-- 0.09 -->
      <g style="fill:#262626;" transform="translate(36.81125 580.680917)scale(0.11 -0.11)">
       <defs>
        <path d="M 703 97 
L 703 672 
Q 941 559 1184 500 
Q 1428 441 1663 441 
Q 2288 441 2617 861 
Q 2947 1281 2994 2138 
Q 2813 1869 2534 1725 
Q 2256 1581 1919 1581 
Q 1219 1581 811 2004 
Q 403 2428 403 3163 
Q 403 3881 828 4315 
Q 1253 4750 1959 4750 
Q 2769 4750 3195 4129 
Q 3622 3509 3622 2328 
Q 3622 1225 3098 567 
Q 2575 -91 1691 -91 
Q 1453 -91 1209 -44 
Q 966 3 703 97 
z
M 1959 2075 
Q 2384 2075 2632 2365 
Q 2881 2656 2881 3163 
Q 2881 3666 2632 3958 
Q 2384 4250 1959 4250 
Q 1534 4250 1286 3958 
Q 1038 3666 1038 3163 
Q 1038 2656 1286 2365 
Q 1534 2075 1959 2075 
z
" id="DejaVuSans-39" transform="scale(0.015625)"/>
       </defs>
       <use xlink:href="#DejaVuSans-30"/>
       <use x="63.623047" xlink:href="#DejaVuSans-2e"/>
       <use x="95.410156" xlink:href="#DejaVuSans-30"/>
       <use x="159.033203" xlink:href="#DejaVuSans-39"/>
      </g>
     </g>
    </g>
    <g id="ytick_13">
     <g id="line2d_37">
      <path clip-path="url(#pc11469a321)" d="M 70.803438 540.881553 
L 274.409687 540.881553 
" style="fill:none;stroke:#ffffff;stroke-linecap:round;"/>
     </g>
     <g id="text_28">
      <!-- 0.10 -->
      <g style="fill:#262626;" transform="translate(36.81125 545.060694)scale(0.11 -0.11)">
       <use xlink:href="#DejaVuSans-30"/>
       <use x="63.623047" xlink:href="#DejaVuSans-2e"/>
       <use x="95.410156" xlink:href="#DejaVuSans-31"/>
       <use x="159.033203" xlink:href="#DejaVuSans-30"/>
      </g>
     </g>
    </g>
    <g id="ytick_14">
     <g id="line2d_38">
      <path clip-path="url(#pc11469a321)" d="M 70.803438 505.26133 
L 274.409687 505.26133 
" style="fill:none;stroke:#ffffff;stroke-linecap:round;"/>
     </g>
     <g id="text_29">
      <!-- 0.11 -->
      <g style="fill:#262626;" transform="translate(36.81125 509.44047)scale(0.11 -0.11)">
       <use xlink:href="#DejaVuSans-30"/>
       <use x="63.623047" xlink:href="#DejaVuSans-2e"/>
       <use x="95.410156" xlink:href="#DejaVuSans-31"/>
       <use x="159.033203" xlink:href="#DejaVuSans-31"/>
      </g>
     </g>
    </g>
    <g id="text_30">
     <!-- Normalized Loss -->
     <g style="fill:#262626;" transform="translate(30.315625 625.017396)rotate(-90)scale(0.12 -0.12)">
      <use xlink:href="#DejaVuSans-4e"/>
      <use x="74.804688" xlink:href="#DejaVuSans-6f"/>
      <use x="135.986328" xlink:href="#DejaVuSans-72"/>
      <use x="175.349609" xlink:href="#DejaVuSans-6d"/>
      <use x="272.761719" xlink:href="#DejaVuSans-61"/>
      <use x="334.041016" xlink:href="#DejaVuSans-6c"/>
      <use x="361.824219" xlink:href="#DejaVuSans-69"/>
      <use x="389.607422" xlink:href="#DejaVuSans-7a"/>
      <use x="442.097656" xlink:href="#DejaVuSans-65"/>
      <use x="503.621094" xlink:href="#DejaVuSans-64"/>
      <use x="567.097656" xlink:href="#DejaVuSans-20"/>
      <use x="598.884766" xlink:href="#DejaVuSans-4c"/>
      <use x="652.847656" xlink:href="#DejaVuSans-6f"/>
      <use x="714.029297" xlink:href="#DejaVuSans-73"/>
      <use x="766.128906" xlink:href="#DejaVuSans-73"/>
     </g>
    </g>
   </g>
   <g id="line2d_39">
    <path clip-path="url(#pc11469a321)" d="M 80.058267 303.164099 
L 82.702504 462.779795 
L 85.346741 493.103599 
L 87.990978 508.505828 
L 90.635215 518.736824 
L 93.279452 524.215275 
L 95.923689 526.766947 
L 98.567926 528.59947 
L 101.212163 531.072612 
L 103.8564 532.456103 
L 106.500637 534.795466 
L 109.144874 534.655523 
L 111.789111 535.5514 
L 114.433348 536.069847 
L 117.077585 537.519632 
L 119.721822 537.761863 
L 122.366059 538.994159 
L 125.010296 538.940642 
L 127.654533 539.274632 
L 130.29877 539.722957 
L 132.943007 540.099037 
L 135.587244 540.589092 
L 138.231481 540.906113 
L 140.875718 540.574445 
L 143.519955 541.885167 
L 146.164192 541.642779 
L 148.808429 542.007663 
L 151.452666 542.570721 
L 154.096903 543.309451 
L 156.74114 542.883582 
L 159.385377 542.764832 
L 162.029614 543.612981 
L 164.673851 543.237789 
L 167.318088 543.810001 
L 169.962325 543.441724 
L 172.606562 543.84292 
L 175.2508 543.938502 
L 177.895037 543.533111 
L 180.539274 543.361776 
L 183.183511 544.283262 
L 185.827748 543.728981 
L 188.471985 545.500218 
L 191.116222 544.539128 
L 193.760459 545.112011 
L 196.404696 544.001531 
L 199.048933 544.311066 
L 201.69317 543.165739 
L 204.337407 544.570093 
L 206.981644 544.233018 
L 209.625881 545.203389 
L 212.270118 598.285952 
L 214.914355 610.072715 
L 217.558592 613.766719 
L 220.202829 615.98395 
L 222.847066 617.446839 
L 225.491303 619.073629 
L 228.13554 619.593556 
L 230.779777 620.589708 
L 233.424014 620.596624 
L 236.068251 621.975909 
L 238.712488 621.469142 
L 241.356725 622.743921 
L 244.000962 622.930645 
L 246.645199 623.154591 
L 249.289436 622.925344 
L 251.933673 623.800622 
L 254.57791 623.303654 
L 257.222147 624.634255 
L 259.866384 624.190386 
L 262.510621 624.802578 
L 265.154858 625.472064 
" style="fill:none;stroke:#4c72b0;stroke-linecap:round;stroke-width:1.5;"/>
   </g>
   <g id="line2d_40">
    <path clip-path="url(#pc11469a321)" d="M 80.058267 443.945655 
L 82.702504 508.175522 
L 85.346741 531.348746 
L 87.990978 540.57191 
L 90.635215 551.659663 
L 93.279452 557.316053 
L 95.923689 547.169286 
L 98.567926 554.272116 
L 101.212163 565.073128 
L 103.8564 561.623091 
L 106.500637 560.893526 
L 109.144874 560.283478 
L 111.789111 551.466021 
L 114.433348 562.837261 
L 117.077585 566.562238 
L 119.721822 564.755759 
L 122.366059 561.726038 
L 125.010296 558.304152 
L 127.654533 569.69958 
L 130.29877 563.69569 
L 132.943007 568.815385 
L 135.587244 559.64782 
L 138.231481 571.064331 
L 140.875718 571.584177 
L 143.519955 562.900457 
L 146.164192 566.527402 
L 148.808429 564.528636 
L 151.452666 568.6975 
L 154.096903 567.754904 
L 156.74114 556.507573 
L 159.385377 568.930401 
L 162.029614 573.950783 
L 164.673851 566.80826 
L 167.318088 572.585938 
L 169.962325 564.35793 
L 172.606562 568.721761 
L 175.2508 564.046162 
L 177.895037 566.899159 
L 180.539274 576.508878 
L 183.183511 573.555817 
L 185.827748 566.123925 
L 188.471985 561.761636 
L 191.116222 571.542452 
L 193.760459 556.859796 
L 196.404696 574.699314 
L 199.048933 564.0182 
L 201.69317 575.672677 
L 204.337407 576.0897 
L 206.981644 575.161601 
L 209.625881 568.835253 
L 212.270118 621.083158 
L 214.914355 627.684766 
L 217.558592 628.885005 
L 220.202829 626.533098 
L 222.847066 629.357161 
L 225.491303 629.157531 
L 228.13554 633.640291 
L 230.779777 635.222442 
L 233.424014 634.332934 
L 236.068251 632.4834 
L 238.712488 637.123288 
L 241.356725 636.149558 
L 244.000962 637.342278 
L 246.645199 634.884429 
L 249.289436 631.906861 
L 251.933673 638.257357 
L 254.57791 637.34247 
L 257.222147 636.716124 
L 259.866384 637.631698 
L 262.510621 637.322318 
L 265.154858 637.230153 
" style="fill:none;stroke:#4c72b0;stroke-dasharray:5.55,2.4;stroke-dashoffset:0;stroke-width:1.5;"/>
   </g>
   <g id="patch_15">
    <path d="M 70.803438 664.14 
L 70.803438 487.706667 
" style="fill:none;stroke:#ffffff;stroke-linecap:square;stroke-linejoin:miter;stroke-width:1.25;"/>
   </g>
   <g id="patch_16">
    <path d="M 274.409687 664.14 
L 274.409687 487.706667 
" style="fill:none;stroke:#ffffff;stroke-linecap:square;stroke-linejoin:miter;stroke-width:1.25;"/>
   </g>
   <g id="patch_17">
    <path d="M 70.803438 664.14 
L 274.409687 664.14 
" style="fill:none;stroke:#ffffff;stroke-linecap:square;stroke-linejoin:miter;stroke-width:1.25;"/>
   </g>
   <g id="patch_18">
    <path d="M 70.803438 487.706667 
L 274.409687 487.706667 
" style="fill:none;stroke:#ffffff;stroke-linecap:square;stroke-linejoin:miter;stroke-width:1.25;"/>
   </g>
   <g id="text_31">
    <!-- Loss With Z_std Normalization -->
    <g style="fill:#262626;" transform="translate(82.014062 481.706667)scale(0.12 -0.12)">
     <defs>
      <path d="M 359 4666 
L 4025 4666 
L 4025 4184 
L 1075 531 
L 4097 531 
L 4097 0 
L 288 0 
L 288 481 
L 3238 4134 
L 359 4134 
L 359 4666 
z
" id="DejaVuSans-5a" transform="scale(0.015625)"/>
     </defs>
     <use xlink:href="#DejaVuSans-4c"/>
     <use x="53.962891" xlink:href="#DejaVuSans-6f"/>
     <use x="115.144531" xlink:href="#DejaVuSans-73"/>
     <use x="167.244141" xlink:href="#DejaVuSans-73"/>
     <use x="219.34375" xlink:href="#DejaVuSans-20"/>
     <use x="251.130859" xlink:href="#DejaVuSans-57"/>
     <use x="347.757812" xlink:href="#DejaVuSans-69"/>
     <use x="375.541016" xlink:href="#DejaVuSans-74"/>
     <use x="414.75" xlink:href="#DejaVuSans-68"/>
     <use x="478.128906" xlink:href="#DejaVuSans-20"/>
     <use x="509.916016" xlink:href="#DejaVuSans-5a"/>
     <use x="578.421875" xlink:href="#DejaVuSans-5f"/>
     <use x="628.421875" xlink:href="#DejaVuSans-73"/>
     <use x="680.521484" xlink:href="#DejaVuSans-74"/>
     <use x="719.730469" xlink:href="#DejaVuSans-64"/>
     <use x="783.207031" xlink:href="#DejaVuSans-20"/>
     <use x="814.994141" xlink:href="#DejaVuSans-4e"/>
     <use x="889.798828" xlink:href="#DejaVuSans-6f"/>
     <use x="950.980469" xlink:href="#DejaVuSans-72"/>
     <use x="990.34375" xlink:href="#DejaVuSans-6d"/>
     <use x="1087.755859" xlink:href="#DejaVuSans-61"/>
     <use x="1149.035156" xlink:href="#DejaVuSans-6c"/>
     <use x="1176.818359" xlink:href="#DejaVuSans-69"/>
     <use x="1204.601562" xlink:href="#DejaVuSans-7a"/>
     <use x="1257.091797" xlink:href="#DejaVuSans-61"/>
     <use x="1318.371094" xlink:href="#DejaVuSans-74"/>
     <use x="1357.580078" xlink:href="#DejaVuSans-69"/>
     <use x="1385.363281" xlink:href="#DejaVuSans-6f"/>
     <use x="1446.544922" xlink:href="#DejaVuSans-6e"/>
    </g>
   </g>
   <g id="legend_3">
    <g id="patch_19">
     <path d="M 205.123437 528.798542 
L 266.709687 528.798542 
Q 268.909687 528.798542 268.909687 526.598542 
L 268.909687 495.406667 
Q 268.909687 493.206667 266.709687 493.206667 
L 205.123437 493.206667 
Q 202.923437 493.206667 202.923437 495.406667 
L 202.923437 526.598542 
Q 202.923437 528.798542 205.123437 528.798542 
z
" style="fill:#eaeaf2;opacity:0.8;stroke:#cccccc;stroke-linejoin:miter;"/>
    </g>
    <g id="line2d_41">
     <path d="M 207.323437 502.114948 
L 229.323437 502.114948 
" style="fill:none;stroke:#4c72b0;stroke-linecap:round;stroke-width:1.5;"/>
    </g>
    <g id="line2d_42"/>
    <g id="text_32">
     <!-- Train -->
     <g style="fill:#262626;" transform="translate(238.123437 505.964948)scale(0.11 -0.11)">
      <use xlink:href="#DejaVuSans-54"/>
      <use x="46.333984" xlink:href="#DejaVuSans-72"/>
      <use x="87.447266" xlink:href="#DejaVuSans-61"/>
      <use x="148.726562" xlink:href="#DejaVuSans-69"/>
      <use x="176.509766" xlink:href="#DejaVuSans-6e"/>
     </g>
    </g>
    <g id="line2d_43">
     <path d="M 207.323437 518.260885 
L 229.323437 518.260885 
" style="fill:none;stroke:#4c72b0;stroke-dasharray:5.55,2.4;stroke-dashoffset:0;stroke-width:1.5;"/>
    </g>
    <g id="line2d_44"/>
    <g id="text_33">
     <!-- Test -->
     <g style="fill:#262626;" transform="translate(238.123437 522.110885)scale(0.11 -0.11)">
      <use xlink:href="#DejaVuSans-54"/>
      <use x="44.083984" xlink:href="#DejaVuSans-65"/>
      <use x="105.607422" xlink:href="#DejaVuSans-73"/>
      <use x="157.707031" xlink:href="#DejaVuSans-74"/>
     </g>
    </g>
   </g>
  </g>
  <g id="axes_4">
   <g id="patch_20">
    <path d="M 333.194688 664.14 
L 1061.583437 664.14 
L 1061.583437 48.12 
L 333.194688 48.12 
z
" style="fill:#eaeaf2;"/>
   </g>
   <g id="matplotlib.axis_7">
    <g id="xtick_13">
     <g id="line2d_45">
      <path clip-path="url(#p90e2dbffc0)" d="M 366.303267 664.14 
L 366.303267 48.12 
" style="fill:none;stroke:#ffffff;stroke-linecap:round;"/>
     </g>
     <g id="text_34">
      <!-- 0 -->
      <g style="fill:#262626;" transform="translate(362.803892 681.998281)scale(0.11 -0.11)">
       <use xlink:href="#DejaVuSans-30"/>
      </g>
     </g>
    </g>
    <g id="xtick_14">
     <g id="line2d_46">
      <path clip-path="url(#p90e2dbffc0)" d="M 460.899209 664.14 
L 460.899209 48.12 
" style="fill:none;stroke:#ffffff;stroke-linecap:round;"/>
     </g>
     <g id="text_35">
      <!-- 10 -->
      <g style="fill:#262626;" transform="translate(453.900459 681.998281)scale(0.11 -0.11)">
       <use xlink:href="#DejaVuSans-31"/>
       <use x="63.623047" xlink:href="#DejaVuSans-30"/>
      </g>
     </g>
    </g>
    <g id="xtick_15">
     <g id="line2d_47">
      <path clip-path="url(#p90e2dbffc0)" d="M 555.49515 664.14 
L 555.49515 48.12 
" style="fill:none;stroke:#ffffff;stroke-linecap:round;"/>
     </g>
     <g id="text_36">
      <!-- 20 -->
      <g style="fill:#262626;" transform="translate(548.4964 681.998281)scale(0.11 -0.11)">
       <use xlink:href="#DejaVuSans-32"/>
       <use x="63.623047" xlink:href="#DejaVuSans-30"/>
      </g>
     </g>
    </g>
    <g id="xtick_16">
     <g id="line2d_48">
      <path clip-path="url(#p90e2dbffc0)" d="M 650.091092 664.14 
L 650.091092 48.12 
" style="fill:none;stroke:#ffffff;stroke-linecap:round;"/>
     </g>
     <g id="text_37">
      <!-- 30 -->
      <g style="fill:#262626;" transform="translate(643.092342 681.998281)scale(0.11 -0.11)">
       <defs>
        <path d="M 2597 2516 
Q 3050 2419 3304 2112 
Q 3559 1806 3559 1356 
Q 3559 666 3084 287 
Q 2609 -91 1734 -91 
Q 1441 -91 1130 -33 
Q 819 25 488 141 
L 488 750 
Q 750 597 1062 519 
Q 1375 441 1716 441 
Q 2309 441 2620 675 
Q 2931 909 2931 1356 
Q 2931 1769 2642 2001 
Q 2353 2234 1838 2234 
L 1294 2234 
L 1294 2753 
L 1863 2753 
Q 2328 2753 2575 2939 
Q 2822 3125 2822 3475 
Q 2822 3834 2567 4026 
Q 2313 4219 1838 4219 
Q 1578 4219 1281 4162 
Q 984 4106 628 3988 
L 628 4550 
Q 988 4650 1302 4700 
Q 1616 4750 1894 4750 
Q 2613 4750 3031 4423 
Q 3450 4097 3450 3541 
Q 3450 3153 3228 2886 
Q 3006 2619 2597 2516 
z
" id="DejaVuSans-33" transform="scale(0.015625)"/>
       </defs>
       <use xlink:href="#DejaVuSans-33"/>
       <use x="63.623047" xlink:href="#DejaVuSans-30"/>
      </g>
     </g>
    </g>
    <g id="xtick_17">
     <g id="line2d_49">
      <path clip-path="url(#p90e2dbffc0)" d="M 744.687033 664.14 
L 744.687033 48.12 
" style="fill:none;stroke:#ffffff;stroke-linecap:round;"/>
     </g>
     <g id="text_38">
      <!-- 40 -->
      <g style="fill:#262626;" transform="translate(737.688283 681.998281)scale(0.11 -0.11)">
       <use xlink:href="#DejaVuSans-34"/>
       <use x="63.623047" xlink:href="#DejaVuSans-30"/>
      </g>
     </g>
    </g>
    <g id="xtick_18">
     <g id="line2d_50">
      <path clip-path="url(#p90e2dbffc0)" d="M 839.282975 664.14 
L 839.282975 48.12 
" style="fill:none;stroke:#ffffff;stroke-linecap:round;"/>
     </g>
     <g id="text_39">
      <!-- 50 -->
      <g style="fill:#262626;" transform="translate(832.284225 681.998281)scale(0.11 -0.11)">
       <defs>
        <path d="M 691 4666 
L 3169 4666 
L 3169 4134 
L 1269 4134 
L 1269 2991 
Q 1406 3038 1543 3061 
Q 1681 3084 1819 3084 
Q 2600 3084 3056 2656 
Q 3513 2228 3513 1497 
Q 3513 744 3044 326 
Q 2575 -91 1722 -91 
Q 1428 -91 1123 -41 
Q 819 9 494 109 
L 494 744 
Q 775 591 1075 516 
Q 1375 441 1709 441 
Q 2250 441 2565 725 
Q 2881 1009 2881 1497 
Q 2881 1984 2565 2268 
Q 2250 2553 1709 2553 
Q 1456 2553 1204 2497 
Q 953 2441 691 2322 
L 691 4666 
z
" id="DejaVuSans-35" transform="scale(0.015625)"/>
       </defs>
       <use xlink:href="#DejaVuSans-35"/>
       <use x="63.623047" xlink:href="#DejaVuSans-30"/>
      </g>
     </g>
    </g>
    <g id="xtick_19">
     <g id="line2d_51">
      <path clip-path="url(#p90e2dbffc0)" d="M 933.878916 664.14 
L 933.878916 48.12 
" style="fill:none;stroke:#ffffff;stroke-linecap:round;"/>
     </g>
     <g id="text_40">
      <!-- 60 -->
      <g style="fill:#262626;" transform="translate(926.880166 681.998281)scale(0.11 -0.11)">
       <use xlink:href="#DejaVuSans-36"/>
       <use x="63.623047" xlink:href="#DejaVuSans-30"/>
      </g>
     </g>
    </g>
    <g id="xtick_20">
     <g id="line2d_52">
      <path clip-path="url(#p90e2dbffc0)" d="M 1028.474858 664.14 
L 1028.474858 48.12 
" style="fill:none;stroke:#ffffff;stroke-linecap:round;"/>
     </g>
     <g id="text_41">
      <!-- 70 -->
      <g style="fill:#262626;" transform="translate(1021.476108 681.998281)scale(0.11 -0.11)">
       <use xlink:href="#DejaVuSans-37"/>
       <use x="63.623047" xlink:href="#DejaVuSans-30"/>
      </g>
     </g>
    </g>
    <g id="text_42">
     <!-- Epoch -->
     <g style="fill:#262626;" transform="translate(679.015937 697.404063)scale(0.12 -0.12)">
      <use xlink:href="#DejaVuSans-45"/>
      <use x="63.183594" xlink:href="#DejaVuSans-70"/>
      <use x="126.660156" xlink:href="#DejaVuSans-6f"/>
      <use x="187.841797" xlink:href="#DejaVuSans-63"/>
      <use x="242.822266" xlink:href="#DejaVuSans-68"/>
     </g>
    </g>
   </g>
   <g id="matplotlib.axis_8">
    <g id="ytick_15">
     <g id="line2d_53">
      <path clip-path="url(#p90e2dbffc0)" d="M 333.194688 617.157758 
L 1061.583437 617.157758 
" style="fill:none;stroke:#ffffff;stroke-linecap:round;"/>
     </g>
     <g id="text_43">
      <!-- 150 -->
      <g style="fill:#262626;" transform="translate(302.698438 621.336899)scale(0.11 -0.11)">
       <use xlink:href="#DejaVuSans-31"/>
       <use x="63.623047" xlink:href="#DejaVuSans-35"/>
       <use x="127.246094" xlink:href="#DejaVuSans-30"/>
      </g>
     </g>
    </g>
    <g id="ytick_16">
     <g id="line2d_54">
      <path clip-path="url(#p90e2dbffc0)" d="M 333.194688 490.644517 
L 1061.583437 490.644517 
" style="fill:none;stroke:#ffffff;stroke-linecap:round;"/>
     </g>
     <g id="text_44">
      <!-- 200 -->
      <g style="fill:#262626;" transform="translate(302.698438 494.823658)scale(0.11 -0.11)">
       <use xlink:href="#DejaVuSans-32"/>
       <use x="63.623047" xlink:href="#DejaVuSans-30"/>
       <use x="127.246094" xlink:href="#DejaVuSans-30"/>
      </g>
     </g>
    </g>
    <g id="ytick_17">
     <g id="line2d_55">
      <path clip-path="url(#p90e2dbffc0)" d="M 333.194688 364.131276 
L 1061.583437 364.131276 
" style="fill:none;stroke:#ffffff;stroke-linecap:round;"/>
     </g>
     <g id="text_45">
      <!-- 250 -->
      <g style="fill:#262626;" transform="translate(302.698438 368.310417)scale(0.11 -0.11)">
       <use xlink:href="#DejaVuSans-32"/>
       <use x="63.623047" xlink:href="#DejaVuSans-35"/>
       <use x="127.246094" xlink:href="#DejaVuSans-30"/>
      </g>
     </g>
    </g>
    <g id="ytick_18">
     <g id="line2d_56">
      <path clip-path="url(#p90e2dbffc0)" d="M 333.194688 237.618035 
L 1061.583437 237.618035 
" style="fill:none;stroke:#ffffff;stroke-linecap:round;"/>
     </g>
     <g id="text_46">
      <!-- 300 -->
      <g style="fill:#262626;" transform="translate(302.698438 241.797176)scale(0.11 -0.11)">
       <use xlink:href="#DejaVuSans-33"/>
       <use x="63.623047" xlink:href="#DejaVuSans-30"/>
       <use x="127.246094" xlink:href="#DejaVuSans-30"/>
      </g>
     </g>
    </g>
    <g id="ytick_19">
     <g id="line2d_57">
      <path clip-path="url(#p90e2dbffc0)" d="M 333.194688 111.104794 
L 1061.583437 111.104794 
" style="fill:none;stroke:#ffffff;stroke-linecap:round;"/>
     </g>
     <g id="text_47">
      <!-- 350 -->
      <g style="fill:#262626;" transform="translate(302.698438 115.283935)scale(0.11 -0.11)">
       <use xlink:href="#DejaVuSans-33"/>
       <use x="63.623047" xlink:href="#DejaVuSans-35"/>
       <use x="127.246094" xlink:href="#DejaVuSans-30"/>
      </g>
     </g>
    </g>
    <g id="text_48">
     <!-- Denormalized Testing Loss -->
     <g style="fill:#262626;" transform="translate(296.202813 435.849375)rotate(-90)scale(0.12 -0.12)">
      <defs>
       <path d="M 1259 4147 
L 1259 519 
L 2022 519 
Q 2988 519 3436 956 
Q 3884 1394 3884 2338 
Q 3884 3275 3436 3711 
Q 2988 4147 2022 4147 
L 1259 4147 
z
M 628 4666 
L 1925 4666 
Q 3281 4666 3915 4102 
Q 4550 3538 4550 2338 
Q 4550 1131 3912 565 
Q 3275 0 1925 0 
L 628 0 
L 628 4666 
z
" id="DejaVuSans-44" transform="scale(0.015625)"/>
       <path d="M 2906 1791 
Q 2906 2416 2648 2759 
Q 2391 3103 1925 3103 
Q 1463 3103 1205 2759 
Q 947 2416 947 1791 
Q 947 1169 1205 825 
Q 1463 481 1925 481 
Q 2391 481 2648 825 
Q 2906 1169 2906 1791 
z
M 3481 434 
Q 3481 -459 3084 -895 
Q 2688 -1331 1869 -1331 
Q 1566 -1331 1297 -1286 
Q 1028 -1241 775 -1147 
L 775 -588 
Q 1028 -725 1275 -790 
Q 1522 -856 1778 -856 
Q 2344 -856 2625 -561 
Q 2906 -266 2906 331 
L 2906 616 
Q 2728 306 2450 153 
Q 2172 0 1784 0 
Q 1141 0 747 490 
Q 353 981 353 1791 
Q 353 2603 747 3093 
Q 1141 3584 1784 3584 
Q 2172 3584 2450 3431 
Q 2728 3278 2906 2969 
L 2906 3500 
L 3481 3500 
L 3481 434 
z
" id="DejaVuSans-67" transform="scale(0.015625)"/>
      </defs>
      <use xlink:href="#DejaVuSans-44"/>
      <use x="77.001953" xlink:href="#DejaVuSans-65"/>
      <use x="138.525391" xlink:href="#DejaVuSans-6e"/>
      <use x="201.904297" xlink:href="#DejaVuSans-6f"/>
      <use x="263.085938" xlink:href="#DejaVuSans-72"/>
      <use x="302.449219" xlink:href="#DejaVuSans-6d"/>
      <use x="399.861328" xlink:href="#DejaVuSans-61"/>
      <use x="461.140625" xlink:href="#DejaVuSans-6c"/>
      <use x="488.923828" xlink:href="#DejaVuSans-69"/>
      <use x="516.707031" xlink:href="#DejaVuSans-7a"/>
      <use x="569.197266" xlink:href="#DejaVuSans-65"/>
      <use x="630.720703" xlink:href="#DejaVuSans-64"/>
      <use x="694.197266" xlink:href="#DejaVuSans-20"/>
      <use x="725.984375" xlink:href="#DejaVuSans-54"/>
      <use x="770.068359" xlink:href="#DejaVuSans-65"/>
      <use x="831.591797" xlink:href="#DejaVuSans-73"/>
      <use x="883.691406" xlink:href="#DejaVuSans-74"/>
      <use x="922.900391" xlink:href="#DejaVuSans-69"/>
      <use x="950.683594" xlink:href="#DejaVuSans-6e"/>
      <use x="1014.0625" xlink:href="#DejaVuSans-67"/>
      <use x="1077.539062" xlink:href="#DejaVuSans-20"/>
      <use x="1109.326172" xlink:href="#DejaVuSans-4c"/>
      <use x="1163.289062" xlink:href="#DejaVuSans-6f"/>
      <use x="1224.470703" xlink:href="#DejaVuSans-73"/>
      <use x="1276.570312" xlink:href="#DejaVuSans-73"/>
     </g>
    </g>
   </g>
   <g id="line2d_58">
    <path clip-path="url(#p90e2dbffc0)" d="M 366.303267 377.448472 
L 375.762861 471.043664 
L 385.222455 504.182125 
L 394.68205 518.296885 
L 404.141644 545.358922 
L 413.601238 546.670707 
L 423.060832 564.355735 
L 432.520426 575.11808 
L 441.98002 579.206159 
L 451.439614 580.508714 
L 460.899209 589.491481 
L 470.358803 590.096369 
L 479.818397 598.089941 
L 489.277991 592.445602 
L 498.737585 601.684397 
L 508.197179 600.143682 
L 517.656774 599.044182 
L 527.116368 590.574075 
L 536.575962 600.938886 
L 546.035556 609.72837 
L 555.49515 608.799671 
L 564.954744 607.933704 
L 574.414338 611.103373 
L 583.873933 618.303884 
L 593.333527 608.358936 
L 602.793121 609.930407 
L 612.252715 615.117818 
L 621.712309 614.418443 
L 631.171903 620.835591 
L 640.631498 619.119481 
L 650.091092 621.964115 
L 659.550686 620.117492 
L 669.01028 620.654241 
L 678.469874 620.208848 
L 687.929468 614.813629 
L 697.389062 618.004824 
L 706.848657 621.108808 
L 716.308251 622.255745 
L 725.767845 624.001494 
L 735.227439 628.506344 
L 744.687033 624.027333 
L 754.146627 628.364268 
L 763.606222 623.924353 
L 773.065816 626.80273 
L 782.52541 621.445833 
L 791.985004 627.890561 
L 801.444598 629.166469 
L 810.904192 625.005992 
L 820.363787 624.842934 
L 829.823381 629.220622 
L 839.282975 630.507318 
L 848.742569 630.609055 
L 858.202163 628.177952 
L 867.661757 628.808962 
L 877.121351 632.597899 
L 886.580946 632.606792 
L 896.04054 633.293601 
L 905.500134 631.682828 
L 914.959728 627.002696 
L 924.419322 631.678375 
L 933.878916 623.824333 
L 943.338511 632.826361 
L 952.798105 633.121556 
L 962.257699 629.492528 
L 971.717293 634.741579 
L 981.176887 636.139091 
L 990.636481 636.073696 
L 1000.096075 635.329678 
L 1009.55567 622.696703 
L 1019.015264 632.917324 
L 1028.474858 631.396457 
" style="fill:none;stroke:#c44e52;stroke-linecap:round;stroke-width:1.5;"/>
   </g>
   <g id="line2d_59">
    <path clip-path="url(#p90e2dbffc0)" d="M 366.303267 76.120909 
L 375.762861 93.960974 
L 385.222455 116.6587 
L 394.68205 78.775303 
L 404.141644 137.330926 
L 413.601238 120.85366 
L 423.060832 92.569355 
L 432.520426 129.124921 
L 441.98002 136.633945 
L 451.439614 124.445877 
L 460.899209 108.60778 
L 470.358803 82.310309 
L 479.818397 125.564218 
L 489.277991 92.315736 
L 498.737585 107.524074 
L 508.197179 122.922704 
L 517.656774 329.660961 
L 527.116368 359.723252 
L 536.575962 364.285523 
L 546.035556 368.250733 
L 555.49515 368.407092 
L 564.954744 382.432988 
L 574.414338 359.632182 
L 583.873933 381.507861 
L 593.333527 394.061916 
L 602.793121 389.391451 
L 612.252715 377.909473 
L 621.712309 390.085669 
L 631.171903 397.677459 
L 640.631498 391.307069 
L 650.091092 397.846427 
L 659.550686 401.31739 
L 669.01028 403.000996 
L 678.469874 400.924761 
L 687.929468 398.024424 
L 697.389062 411.819942 
L 706.848657 412.338778 
L 716.308251 407.917744 
L 725.767845 414.572615 
L 735.227439 406.514061 
L 744.687033 420.703542 
L 754.146627 419.613587 
L 763.606222 416.756111 
L 773.065816 408.131637 
L 782.52541 429.471803 
L 791.985004 428.65829 
L 801.444598 424.538559 
L 810.904192 405.359176 
L 820.363787 425.514152 
L 829.823381 424.554059 
L 839.282975 424.933779 
L 848.742569 420.125399 
L 858.202163 422.992413 
L 867.661757 434.278559 
L 877.121351 429.000242 
L 886.580946 429.887375 
L 896.04054 428.20049 
L 905.500134 423.20595 
L 914.959728 428.783938 
L 924.419322 410.519421 
L 933.878916 419.624416 
L 943.338511 381.742872 
L 952.798105 431.25779 
L 962.257699 421.08879 
L 971.717293 433.949928 
L 981.176887 485.847617 
L 990.636481 493.316638 
L 1000.096075 499.893132 
L 1009.55567 503.215322 
L 1019.015264 505.166305 
L 1028.474858 494.440809 
" style="fill:none;stroke:#55a868;stroke-linecap:round;stroke-width:1.5;"/>
   </g>
   <g id="line2d_60">
    <path clip-path="url(#p90e2dbffc0)" d="M 366.303267 329.519457 
L 375.762861 424.088317 
L 385.222455 458.207413 
L 394.68205 471.787142 
L 404.141644 488.112193 
L 413.601238 496.440383 
L 423.060832 481.500787 
L 432.520426 491.958648 
L 441.98002 507.861516 
L 451.439614 502.781857 
L 460.899209 501.707675 
L 470.358803 500.809473 
L 479.818397 487.827095 
L 489.277991 504.56953 
L 498.737585 510.054007 
L 508.197179 507.394241 
L 517.656774 502.933427 
L 527.116368 497.895215 
L 536.575962 514.673274 
L 546.035556 505.833441 
L 555.49515 513.371431 
L 564.954744 499.873562 
L 574.414338 516.682666 
L 583.873933 517.448061 
L 593.333527 504.662588 
L 602.793121 510.002716 
L 612.252715 507.059819 
L 621.712309 513.197858 
L 631.171903 511.810025 
L 640.631498 495.250019 
L 650.091092 513.540772 
L 659.550686 520.932534 
L 669.01028 510.416234 
L 678.469874 518.923 
L 687.929468 506.808491 
L 697.389062 513.233573 
L 706.848657 506.349457 
L 716.308251 510.550075 
L 725.767845 524.698944 
L 735.227439 520.351008 
L 744.687033 509.408656 
L 754.146627 502.985835 
L 763.606222 517.386629 
L 773.065816 495.768606 
L 782.52541 522.034623 
L 791.985004 506.308292 
L 801.444598 523.46776 
L 810.904192 524.081766 
L 820.363787 522.715274 
L 829.823381 513.400685 
L 839.282975 590.327894 
L 848.742569 600.047772 
L 858.202163 601.814944 
L 867.661757 598.352117 
L 877.121351 602.510121 
L 886.580946 602.216199 
L 896.04054 608.816399 
L 905.500134 611.145866 
L 914.959728 609.836208 
L 924.419322 607.113044 
L 933.878916 613.944585 
L 943.338511 612.510914 
L 952.798105 614.267009 
L 962.257699 610.648202 
L 971.717293 606.264175 
L 981.176887 615.614331 
L 990.636481 614.267296 
L 1000.096075 613.345097 
L 1009.55567 614.693143 
L 1019.015264 614.237618 
L 1028.474858 614.10193 
" style="fill:none;stroke:#4c72b0;stroke-linecap:round;stroke-width:1.5;"/>
   </g>
   <g id="line2d_61">
    <defs>
     <path d="M 0 3 
C 0.795609 3 1.55874 2.683901 2.12132 2.12132 
C 2.683901 1.55874 3 0.795609 3 0 
C 3 -0.795609 2.683901 -1.55874 2.12132 -2.12132 
C 1.55874 -2.683901 0.795609 -3 0 -3 
C -0.795609 -3 -1.55874 -2.683901 -2.12132 -2.12132 
C -2.683901 -1.55874 -3 -0.795609 -3 0 
C -3 0.795609 -2.683901 1.55874 -2.12132 2.12132 
C -1.55874 2.683901 -0.795609 3 0 3 
z
" id="mc57120061b" style="stroke:#1a1a1a;"/>
    </defs>
    <g clip-path="url(#p90e2dbffc0)">
     <use style="fill:#1a1a1a;stroke:#1a1a1a;" x="981.176887" xlink:href="#mc57120061b" y="636.139091"/>
    </g>
   </g>
   <g id="patch_21">
    <path d="M 333.194688 664.14 
L 333.194688 48.12 
" style="fill:none;stroke:#ffffff;stroke-linecap:square;stroke-linejoin:miter;stroke-width:1.25;"/>
   </g>
   <g id="patch_22">
    <path d="M 1061.583437 664.14 
L 1061.583437 48.12 
" style="fill:none;stroke:#ffffff;stroke-linecap:square;stroke-linejoin:miter;stroke-width:1.25;"/>
   </g>
   <g id="patch_23">
    <path d="M 333.194688 664.14 
L 1061.583437 664.14 
" style="fill:none;stroke:#ffffff;stroke-linecap:square;stroke-linejoin:miter;stroke-width:1.25;"/>
   </g>
   <g id="patch_24">
    <path d="M 333.194688 48.12 
L 1061.583437 48.12 
" style="fill:none;stroke:#ffffff;stroke-linecap:square;stroke-linejoin:miter;stroke-width:1.25;"/>
   </g>
   <g id="text_49">
    <!-- Denormalized Testing Loss For Each Normalization Scheme -->
    <g style="fill:#262626;" transform="translate(520.267187 42.12)scale(0.12 -0.12)">
     <defs>
      <path d="M 628 4666 
L 3309 4666 
L 3309 4134 
L 1259 4134 
L 1259 2759 
L 3109 2759 
L 3109 2228 
L 1259 2228 
L 1259 0 
L 628 0 
L 628 4666 
z
" id="DejaVuSans-46" transform="scale(0.015625)"/>
      <path d="M 3425 4513 
L 3425 3897 
Q 3066 4069 2747 4153 
Q 2428 4238 2131 4238 
Q 1616 4238 1336 4038 
Q 1056 3838 1056 3469 
Q 1056 3159 1242 3001 
Q 1428 2844 1947 2747 
L 2328 2669 
Q 3034 2534 3370 2195 
Q 3706 1856 3706 1288 
Q 3706 609 3251 259 
Q 2797 -91 1919 -91 
Q 1588 -91 1214 -16 
Q 841 59 441 206 
L 441 856 
Q 825 641 1194 531 
Q 1563 422 1919 422 
Q 2459 422 2753 634 
Q 3047 847 3047 1241 
Q 3047 1584 2836 1778 
Q 2625 1972 2144 2069 
L 1759 2144 
Q 1053 2284 737 2584 
Q 422 2884 422 3419 
Q 422 4038 858 4394 
Q 1294 4750 2059 4750 
Q 2388 4750 2728 4690 
Q 3069 4631 3425 4513 
z
" id="DejaVuSans-53" transform="scale(0.015625)"/>
     </defs>
     <use xlink:href="#DejaVuSans-44"/>
     <use x="77.001953" xlink:href="#DejaVuSans-65"/>
     <use x="138.525391" xlink:href="#DejaVuSans-6e"/>
     <use x="201.904297" xlink:href="#DejaVuSans-6f"/>
     <use x="263.085938" xlink:href="#DejaVuSans-72"/>
     <use x="302.449219" xlink:href="#DejaVuSans-6d"/>
     <use x="399.861328" xlink:href="#DejaVuSans-61"/>
     <use x="461.140625" xlink:href="#DejaVuSans-6c"/>
     <use x="488.923828" xlink:href="#DejaVuSans-69"/>
     <use x="516.707031" xlink:href="#DejaVuSans-7a"/>
     <use x="569.197266" xlink:href="#DejaVuSans-65"/>
     <use x="630.720703" xlink:href="#DejaVuSans-64"/>
     <use x="694.197266" xlink:href="#DejaVuSans-20"/>
     <use x="725.984375" xlink:href="#DejaVuSans-54"/>
     <use x="770.068359" xlink:href="#DejaVuSans-65"/>
     <use x="831.591797" xlink:href="#DejaVuSans-73"/>
     <use x="883.691406" xlink:href="#DejaVuSans-74"/>
     <use x="922.900391" xlink:href="#DejaVuSans-69"/>
     <use x="950.683594" xlink:href="#DejaVuSans-6e"/>
     <use x="1014.0625" xlink:href="#DejaVuSans-67"/>
     <use x="1077.539062" xlink:href="#DejaVuSans-20"/>
     <use x="1109.326172" xlink:href="#DejaVuSans-4c"/>
     <use x="1163.289062" xlink:href="#DejaVuSans-6f"/>
     <use x="1224.470703" xlink:href="#DejaVuSans-73"/>
     <use x="1276.570312" xlink:href="#DejaVuSans-73"/>
     <use x="1328.669922" xlink:href="#DejaVuSans-20"/>
     <use x="1360.457031" xlink:href="#DejaVuSans-46"/>
     <use x="1414.351562" xlink:href="#DejaVuSans-6f"/>
     <use x="1475.533203" xlink:href="#DejaVuSans-72"/>
     <use x="1516.646484" xlink:href="#DejaVuSans-20"/>
     <use x="1548.433594" xlink:href="#DejaVuSans-45"/>
     <use x="1611.617188" xlink:href="#DejaVuSans-61"/>
     <use x="1672.896484" xlink:href="#DejaVuSans-63"/>
     <use x="1727.876953" xlink:href="#DejaVuSans-68"/>
     <use x="1791.255859" xlink:href="#DejaVuSans-20"/>
     <use x="1823.042969" xlink:href="#DejaVuSans-4e"/>
     <use x="1897.847656" xlink:href="#DejaVuSans-6f"/>
     <use x="1959.029297" xlink:href="#DejaVuSans-72"/>
     <use x="1998.392578" xlink:href="#DejaVuSans-6d"/>
     <use x="2095.804688" xlink:href="#DejaVuSans-61"/>
     <use x="2157.083984" xlink:href="#DejaVuSans-6c"/>
     <use x="2184.867188" xlink:href="#DejaVuSans-69"/>
     <use x="2212.650391" xlink:href="#DejaVuSans-7a"/>
     <use x="2265.140625" xlink:href="#DejaVuSans-61"/>
     <use x="2326.419922" xlink:href="#DejaVuSans-74"/>
     <use x="2365.628906" xlink:href="#DejaVuSans-69"/>
     <use x="2393.412109" xlink:href="#DejaVuSans-6f"/>
     <use x="2454.59375" xlink:href="#DejaVuSans-6e"/>
     <use x="2517.972656" xlink:href="#DejaVuSans-20"/>
     <use x="2549.759766" xlink:href="#DejaVuSans-53"/>
     <use x="2613.236328" xlink:href="#DejaVuSans-63"/>
     <use x="2668.216797" xlink:href="#DejaVuSans-68"/>
     <use x="2731.595703" xlink:href="#DejaVuSans-65"/>
     <use x="2793.119141" xlink:href="#DejaVuSans-6d"/>
     <use x="2890.53125" xlink:href="#DejaVuSans-65"/>
    </g>
   </g>
   <g id="legend_4">
    <g id="patch_25">
     <path d="M 957.800156 122.115625 
L 1053.883437 122.115625 
Q 1056.083437 122.115625 1056.083437 119.915625 
L 1056.083437 55.82 
Q 1056.083437 53.62 1053.883437 53.62 
L 957.800156 53.62 
Q 955.600156 53.62 955.600156 55.82 
L 955.600156 119.915625 
Q 955.600156 122.115625 957.800156 122.115625 
z
" style="fill:#eaeaf2;opacity:0.8;stroke:#cccccc;stroke-linejoin:miter;"/>
    </g>
    <g id="line2d_62">
     <path d="M 960.000156 62.528281 
L 982.000156 62.528281 
" style="fill:none;stroke:#c44e52;stroke-linecap:round;stroke-width:1.5;"/>
    </g>
    <g id="line2d_63"/>
    <g id="text_50">
     <!-- None -->
     <g style="fill:#262626;" transform="translate(990.800156 66.378281)scale(0.11 -0.11)">
      <use xlink:href="#DejaVuSans-4e"/>
      <use x="74.804688" xlink:href="#DejaVuSans-6f"/>
      <use x="135.986328" xlink:href="#DejaVuSans-6e"/>
      <use x="199.365234" xlink:href="#DejaVuSans-65"/>
     </g>
    </g>
    <g id="line2d_64">
     <path d="M 960.000156 78.674219 
L 982.000156 78.674219 
" style="fill:none;stroke:#55a868;stroke-linecap:round;stroke-width:1.5;"/>
    </g>
    <g id="line2d_65"/>
    <g id="text_51">
     <!-- Min_max -->
     <g style="fill:#262626;" transform="translate(990.800156 82.524219)scale(0.11 -0.11)">
      <use xlink:href="#DejaVuSans-4d"/>
      <use x="86.279297" xlink:href="#DejaVuSans-69"/>
      <use x="114.0625" xlink:href="#DejaVuSans-6e"/>
      <use x="177.441406" xlink:href="#DejaVuSans-5f"/>
      <use x="227.441406" xlink:href="#DejaVuSans-6d"/>
      <use x="324.853516" xlink:href="#DejaVuSans-61"/>
      <use x="386.132812" xlink:href="#DejaVuSans-78"/>
     </g>
    </g>
    <g id="line2d_66">
     <path d="M 960.000156 95.126094 
L 982.000156 95.126094 
" style="fill:none;stroke:#4c72b0;stroke-linecap:round;stroke-width:1.5;"/>
    </g>
    <g id="line2d_67"/>
    <g id="text_52">
     <!-- Z_std -->
     <g style="fill:#262626;" transform="translate(990.800156 98.976094)scale(0.11 -0.11)">
      <use xlink:href="#DejaVuSans-5a"/>
      <use x="68.505859" xlink:href="#DejaVuSans-5f"/>
      <use x="118.505859" xlink:href="#DejaVuSans-73"/>
      <use x="170.605469" xlink:href="#DejaVuSans-74"/>
      <use x="209.814453" xlink:href="#DejaVuSans-64"/>
     </g>
    </g>
    <g id="line2d_68"/>
    <g id="line2d_69">
     <g>
      <use style="fill:#1a1a1a;stroke:#1a1a1a;" x="971.000156" xlink:href="#mc57120061b" y="111.577969"/>
     </g>
    </g>
    <g id="text_53">
     <!-- Best Model -->
     <g style="fill:#262626;" transform="translate(990.800156 115.427969)scale(0.11 -0.11)">
      <defs>
       <path d="M 1259 2228 
L 1259 519 
L 2272 519 
Q 2781 519 3026 730 
Q 3272 941 3272 1375 
Q 3272 1813 3026 2020 
Q 2781 2228 2272 2228 
L 1259 2228 
z
M 1259 4147 
L 1259 2741 
L 2194 2741 
Q 2656 2741 2882 2914 
Q 3109 3088 3109 3444 
Q 3109 3797 2882 3972 
Q 2656 4147 2194 4147 
L 1259 4147 
z
M 628 4666 
L 2241 4666 
Q 2963 4666 3353 4366 
Q 3744 4066 3744 3513 
Q 3744 3084 3544 2831 
Q 3344 2578 2956 2516 
Q 3422 2416 3680 2098 
Q 3938 1781 3938 1306 
Q 3938 681 3513 340 
Q 3088 0 2303 0 
L 628 0 
L 628 4666 
z
" id="DejaVuSans-42" transform="scale(0.015625)"/>
      </defs>
      <use xlink:href="#DejaVuSans-42"/>
      <use x="68.603516" xlink:href="#DejaVuSans-65"/>
      <use x="130.126953" xlink:href="#DejaVuSans-73"/>
      <use x="182.226562" xlink:href="#DejaVuSans-74"/>
      <use x="221.435547" xlink:href="#DejaVuSans-20"/>
      <use x="253.222656" xlink:href="#DejaVuSans-4d"/>
      <use x="339.501953" xlink:href="#DejaVuSans-6f"/>
      <use x="400.683594" xlink:href="#DejaVuSans-64"/>
      <use x="464.160156" xlink:href="#DejaVuSans-65"/>
      <use x="525.683594" xlink:href="#DejaVuSans-6c"/>
     </g>
    </g>
   </g>
  </g>
  <g id="text_54">
   <!-- SASA: VAE Frozen with 3x256 Prediction Network -->
   <g style="fill:#262626;" transform="translate(358.029812 18.14175)scale(0.144 -0.144)">
    <defs>
     <path d="M 2188 4044 
L 1331 1722 
L 3047 1722 
L 2188 4044 
z
M 1831 4666 
L 2547 4666 
L 4325 0 
L 3669 0 
L 3244 1197 
L 1141 1197 
L 716 0 
L 50 0 
L 1831 4666 
z
" id="DejaVuSans-41" transform="scale(0.015625)"/>
     <path d="M 750 794 
L 1409 794 
L 1409 0 
L 750 0 
L 750 794 
z
M 750 3309 
L 1409 3309 
L 1409 2516 
L 750 2516 
L 750 3309 
z
" id="DejaVuSans-3a" transform="scale(0.015625)"/>
     <path d="M 1831 0 
L 50 4666 
L 709 4666 
L 2188 738 
L 3669 4666 
L 4325 4666 
L 2547 0 
L 1831 0 
z
" id="DejaVuSans-56" transform="scale(0.015625)"/>
     <path d="M 269 3500 
L 844 3500 
L 1563 769 
L 2278 3500 
L 2956 3500 
L 3675 769 
L 4391 3500 
L 4966 3500 
L 4050 0 
L 3372 0 
L 2619 2869 
L 1863 0 
L 1184 0 
L 269 3500 
z
" id="DejaVuSans-77" transform="scale(0.015625)"/>
     <path d="M 1259 4147 
L 1259 2394 
L 2053 2394 
Q 2494 2394 2734 2622 
Q 2975 2850 2975 3272 
Q 2975 3691 2734 3919 
Q 2494 4147 2053 4147 
L 1259 4147 
z
M 628 4666 
L 2053 4666 
Q 2838 4666 3239 4311 
Q 3641 3956 3641 3272 
Q 3641 2581 3239 2228 
Q 2838 1875 2053 1875 
L 1259 1875 
L 1259 0 
L 628 0 
L 628 4666 
z
" id="DejaVuSans-50" transform="scale(0.015625)"/>
     <path d="M 581 4863 
L 1159 4863 
L 1159 1991 
L 2875 3500 
L 3609 3500 
L 1753 1863 
L 3688 0 
L 2938 0 
L 1159 1709 
L 1159 0 
L 581 0 
L 581 4863 
z
" id="DejaVuSans-6b" transform="scale(0.015625)"/>
    </defs>
    <use xlink:href="#DejaVuSans-53"/>
    <use x="65.351562" xlink:href="#DejaVuSans-41"/>
    <use x="133.759766" xlink:href="#DejaVuSans-53"/>
    <use x="199.111328" xlink:href="#DejaVuSans-41"/>
    <use x="265.769531" xlink:href="#DejaVuSans-3a"/>
    <use x="299.460938" xlink:href="#DejaVuSans-20"/>
    <use x="331.248047" xlink:href="#DejaVuSans-56"/>
    <use x="393.28125" xlink:href="#DejaVuSans-41"/>
    <use x="461.689453" xlink:href="#DejaVuSans-45"/>
    <use x="524.873047" xlink:href="#DejaVuSans-20"/>
    <use x="556.660156" xlink:href="#DejaVuSans-46"/>
    <use x="606.929688" xlink:href="#DejaVuSans-72"/>
    <use x="645.792969" xlink:href="#DejaVuSans-6f"/>
    <use x="706.974609" xlink:href="#DejaVuSans-7a"/>
    <use x="759.464844" xlink:href="#DejaVuSans-65"/>
    <use x="820.988281" xlink:href="#DejaVuSans-6e"/>
    <use x="884.367188" xlink:href="#DejaVuSans-20"/>
    <use x="916.154297" xlink:href="#DejaVuSans-77"/>
    <use x="997.941406" xlink:href="#DejaVuSans-69"/>
    <use x="1025.724609" xlink:href="#DejaVuSans-74"/>
    <use x="1064.933594" xlink:href="#DejaVuSans-68"/>
    <use x="1128.3125" xlink:href="#DejaVuSans-20"/>
    <use x="1160.099609" xlink:href="#DejaVuSans-33"/>
    <use x="1223.722656" xlink:href="#DejaVuSans-78"/>
    <use x="1282.902344" xlink:href="#DejaVuSans-32"/>
    <use x="1346.525391" xlink:href="#DejaVuSans-35"/>
    <use x="1410.148438" xlink:href="#DejaVuSans-36"/>
    <use x="1473.771484" xlink:href="#DejaVuSans-20"/>
    <use x="1505.558594" xlink:href="#DejaVuSans-50"/>
    <use x="1564.111328" xlink:href="#DejaVuSans-72"/>
    <use x="1602.974609" xlink:href="#DejaVuSans-65"/>
    <use x="1664.498047" xlink:href="#DejaVuSans-64"/>
    <use x="1727.974609" xlink:href="#DejaVuSans-69"/>
    <use x="1755.757812" xlink:href="#DejaVuSans-63"/>
    <use x="1810.738281" xlink:href="#DejaVuSans-74"/>
    <use x="1849.947266" xlink:href="#DejaVuSans-69"/>
    <use x="1877.730469" xlink:href="#DejaVuSans-6f"/>
    <use x="1938.912109" xlink:href="#DejaVuSans-6e"/>
    <use x="2002.291016" xlink:href="#DejaVuSans-20"/>
    <use x="2034.078125" xlink:href="#DejaVuSans-4e"/>
    <use x="2108.882812" xlink:href="#DejaVuSans-65"/>
    <use x="2170.40625" xlink:href="#DejaVuSans-74"/>
    <use x="2209.615234" xlink:href="#DejaVuSans-77"/>
    <use x="2291.402344" xlink:href="#DejaVuSans-6f"/>
    <use x="2352.583984" xlink:href="#DejaVuSans-72"/>
    <use x="2393.697266" xlink:href="#DejaVuSans-6b"/>
   </g>
  </g>
 </g>
 <defs>
  <clipPath id="pd907f2a73b">
   <rect height="176.433333" width="203.60625" x="70.803438" y="48.12"/>
  </clipPath>
  <clipPath id="p222a39d19b">
   <rect height="176.433333" width="203.60625" x="70.803438" y="267.913333"/>
  </clipPath>
  <clipPath id="pc11469a321">
   <rect height="176.433333" width="203.60625" x="70.803438" y="487.706667"/>
  </clipPath>
  <clipPath id="p90e2dbffc0">
   <rect height="616.02" width="728.38875" x="333.194688" y="48.12"/>
  </clipPath>
 </defs>
</svg>
