<?xml version="1.0" encoding="utf-8" standalone="no"?>
<!DOCTYPE svg PUBLIC "-//W3C//DTD SVG 1.1//EN"
  "http://www.w3.org/Graphics/SVG/1.1/DTD/svg11.dtd">
<svg height="707.099687pt" version="1.1" viewBox="0 0 1068.807187 707.099687" width="1068.807187pt" xmlns="http://www.w3.org/2000/svg" xmlns:xlink="http://www.w3.org/1999/xlink">
 <metadata>
  <rdf:RDF xmlns:cc="http://creativecommons.org/ns#" xmlns:dc="http://purl.org/dc/elements/1.1/" xmlns:rdf="http://www.w3.org/1999/02/22-rdf-syntax-ns#">
   <cc:Work>
    <dc:type rdf:resource="http://purl.org/dc/dcmitype/StillImage"/>
    <dc:date>2021-12-08T14:08:43.724379</dc:date>
    <dc:format>image/svg+xml</dc:format>
    <dc:creator>
     <cc:Agent>
      <dc:title>Matplotlib v3.4.3, https://matplotlib.org/</dc:title>
     </cc:Agent>
    </dc:creator>
   </cc:Work>
  </rdf:RDF>
 </metadata>
 <defs>
  <style type="text/css">*{stroke-linecap:butt;stroke-linejoin:round;}</style>
 </defs>
 <g id="figure_1">
  <g id="patch_1">
   <path d="M 0 707.099687 
L 1068.807187 707.099687 
L 1068.807187 0 
L 0 0 
z
" style="fill:#ffffff;"/>
  </g>
  <g id="axes_1">
   <g id="patch_2">
    <path d="M 77.802188 226.153333 
L 277.020938 226.153333 
L 277.020938 50.52 
L 77.802188 50.52 
z
" style="fill:#eaeaf2;"/>
   </g>
   <g id="matplotlib.axis_1">
    <g id="xtick_1">
     <g id="line2d_1">
      <path clip-path="url(#p553908a011)" d="M 86.857585 226.153333 
L 86.857585 50.52 
" style="fill:none;stroke:#ffffff;stroke-linecap:round;"/>
     </g>
    </g>
    <g id="xtick_2">
     <g id="line2d_2">
      <path clip-path="url(#p553908a011)" d="M 138.602715 226.153333 
L 138.602715 50.52 
" style="fill:none;stroke:#ffffff;stroke-linecap:round;"/>
     </g>
    </g>
    <g id="xtick_3">
     <g id="line2d_3">
      <path clip-path="url(#p553908a011)" d="M 190.347845 226.153333 
L 190.347845 50.52 
" style="fill:none;stroke:#ffffff;stroke-linecap:round;"/>
     </g>
    </g>
    <g id="xtick_4">
     <g id="line2d_4">
      <path clip-path="url(#p553908a011)" d="M 242.092975 226.153333 
L 242.092975 50.52 
" style="fill:none;stroke:#ffffff;stroke-linecap:round;"/>
     </g>
    </g>
    <g id="text_1">
     <!-- Epoch -->
     <g style="fill:#262626;" transform="translate(159.038438 239.271458)scale(0.12 -0.12)">
      <defs>
       <path d="M 628 4666 
L 3578 4666 
L 3578 4134 
L 1259 4134 
L 1259 2753 
L 3481 2753 
L 3481 2222 
L 1259 2222 
L 1259 531 
L 3634 531 
L 3634 0 
L 628 0 
L 628 4666 
z
" id="DejaVuSans-45" transform="scale(0.015625)"/>
       <path d="M 1159 525 
L 1159 -1331 
L 581 -1331 
L 581 3500 
L 1159 3500 
L 1159 2969 
Q 1341 3281 1617 3432 
Q 1894 3584 2278 3584 
Q 2916 3584 3314 3078 
Q 3713 2572 3713 1747 
Q 3713 922 3314 415 
Q 2916 -91 2278 -91 
Q 1894 -91 1617 61 
Q 1341 213 1159 525 
z
M 3116 1747 
Q 3116 2381 2855 2742 
Q 2594 3103 2138 3103 
Q 1681 3103 1420 2742 
Q 1159 2381 1159 1747 
Q 1159 1113 1420 752 
Q 1681 391 2138 391 
Q 2594 391 2855 752 
Q 3116 1113 3116 1747 
z
" id="DejaVuSans-70" transform="scale(0.015625)"/>
       <path d="M 1959 3097 
Q 1497 3097 1228 2736 
Q 959 2375 959 1747 
Q 959 1119 1226 758 
Q 1494 397 1959 397 
Q 2419 397 2687 759 
Q 2956 1122 2956 1747 
Q 2956 2369 2687 2733 
Q 2419 3097 1959 3097 
z
M 1959 3584 
Q 2709 3584 3137 3096 
Q 3566 2609 3566 1747 
Q 3566 888 3137 398 
Q 2709 -91 1959 -91 
Q 1206 -91 779 398 
Q 353 888 353 1747 
Q 353 2609 779 3096 
Q 1206 3584 1959 3584 
z
" id="DejaVuSans-6f" transform="scale(0.015625)"/>
       <path d="M 3122 3366 
L 3122 2828 
Q 2878 2963 2633 3030 
Q 2388 3097 2138 3097 
Q 1578 3097 1268 2742 
Q 959 2388 959 1747 
Q 959 1106 1268 751 
Q 1578 397 2138 397 
Q 2388 397 2633 464 
Q 2878 531 3122 666 
L 3122 134 
Q 2881 22 2623 -34 
Q 2366 -91 2075 -91 
Q 1284 -91 818 406 
Q 353 903 353 1747 
Q 353 2603 823 3093 
Q 1294 3584 2113 3584 
Q 2378 3584 2631 3529 
Q 2884 3475 3122 3366 
z
" id="DejaVuSans-63" transform="scale(0.015625)"/>
       <path d="M 3513 2113 
L 3513 0 
L 2938 0 
L 2938 2094 
Q 2938 2591 2744 2837 
Q 2550 3084 2163 3084 
Q 1697 3084 1428 2787 
Q 1159 2491 1159 1978 
L 1159 0 
L 581 0 
L 581 4863 
L 1159 4863 
L 1159 2956 
Q 1366 3272 1645 3428 
Q 1925 3584 2291 3584 
Q 2894 3584 3203 3211 
Q 3513 2838 3513 2113 
z
" id="DejaVuSans-68" transform="scale(0.015625)"/>
      </defs>
      <use xlink:href="#DejaVuSans-45"/>
      <use x="63.183594" xlink:href="#DejaVuSans-70"/>
      <use x="126.660156" xlink:href="#DejaVuSans-6f"/>
      <use x="187.841797" xlink:href="#DejaVuSans-63"/>
      <use x="242.822266" xlink:href="#DejaVuSans-68"/>
     </g>
    </g>
   </g>
   <g id="matplotlib.axis_2">
    <g id="ytick_1">
     <g id="line2d_5">
      <path clip-path="url(#p553908a011)" d="M 77.802188 186.218762 
L 277.020938 186.218762 
" style="fill:none;stroke:#ffffff;stroke-linecap:round;"/>
     </g>
     <g id="text_2">
      <!-- 0.08 -->
      <g style="fill:#262626;" transform="translate(43.81 190.397902)scale(0.11 -0.11)">
       <defs>
        <path d="M 2034 4250 
Q 1547 4250 1301 3770 
Q 1056 3291 1056 2328 
Q 1056 1369 1301 889 
Q 1547 409 2034 409 
Q 2525 409 2770 889 
Q 3016 1369 3016 2328 
Q 3016 3291 2770 3770 
Q 2525 4250 2034 4250 
z
M 2034 4750 
Q 2819 4750 3233 4129 
Q 3647 3509 3647 2328 
Q 3647 1150 3233 529 
Q 2819 -91 2034 -91 
Q 1250 -91 836 529 
Q 422 1150 422 2328 
Q 422 3509 836 4129 
Q 1250 4750 2034 4750 
z
" id="DejaVuSans-30" transform="scale(0.015625)"/>
        <path d="M 684 794 
L 1344 794 
L 1344 0 
L 684 0 
L 684 794 
z
" id="DejaVuSans-2e" transform="scale(0.015625)"/>
        <path d="M 2034 2216 
Q 1584 2216 1326 1975 
Q 1069 1734 1069 1313 
Q 1069 891 1326 650 
Q 1584 409 2034 409 
Q 2484 409 2743 651 
Q 3003 894 3003 1313 
Q 3003 1734 2745 1975 
Q 2488 2216 2034 2216 
z
M 1403 2484 
Q 997 2584 770 2862 
Q 544 3141 544 3541 
Q 544 4100 942 4425 
Q 1341 4750 2034 4750 
Q 2731 4750 3128 4425 
Q 3525 4100 3525 3541 
Q 3525 3141 3298 2862 
Q 3072 2584 2669 2484 
Q 3125 2378 3379 2068 
Q 3634 1759 3634 1313 
Q 3634 634 3220 271 
Q 2806 -91 2034 -91 
Q 1263 -91 848 271 
Q 434 634 434 1313 
Q 434 1759 690 2068 
Q 947 2378 1403 2484 
z
M 1172 3481 
Q 1172 3119 1398 2916 
Q 1625 2713 2034 2713 
Q 2441 2713 2670 2916 
Q 2900 3119 2900 3481 
Q 2900 3844 2670 4047 
Q 2441 4250 2034 4250 
Q 1625 4250 1398 4047 
Q 1172 3844 1172 3481 
z
" id="DejaVuSans-38" transform="scale(0.015625)"/>
       </defs>
       <use xlink:href="#DejaVuSans-30"/>
       <use x="63.623047" xlink:href="#DejaVuSans-2e"/>
       <use x="95.410156" xlink:href="#DejaVuSans-30"/>
       <use x="159.033203" xlink:href="#DejaVuSans-38"/>
      </g>
     </g>
    </g>
    <g id="ytick_2">
     <g id="line2d_6">
      <path clip-path="url(#p553908a011)" d="M 77.802188 141.559975 
L 277.020938 141.559975 
" style="fill:none;stroke:#ffffff;stroke-linecap:round;"/>
     </g>
     <g id="text_3">
      <!-- 0.10 -->
      <g style="fill:#262626;" transform="translate(43.81 145.739116)scale(0.11 -0.11)">
       <defs>
        <path d="M 794 531 
L 1825 531 
L 1825 4091 
L 703 3866 
L 703 4441 
L 1819 4666 
L 2450 4666 
L 2450 531 
L 3481 531 
L 3481 0 
L 794 0 
L 794 531 
z
" id="DejaVuSans-31" transform="scale(0.015625)"/>
       </defs>
       <use xlink:href="#DejaVuSans-30"/>
       <use x="63.623047" xlink:href="#DejaVuSans-2e"/>
       <use x="95.410156" xlink:href="#DejaVuSans-31"/>
       <use x="159.033203" xlink:href="#DejaVuSans-30"/>
      </g>
     </g>
    </g>
    <g id="ytick_3">
     <g id="line2d_7">
      <path clip-path="url(#p553908a011)" d="M 77.802188 96.901189 
L 277.020938 96.901189 
" style="fill:none;stroke:#ffffff;stroke-linecap:round;"/>
     </g>
     <g id="text_4">
      <!-- 0.12 -->
      <g style="fill:#262626;" transform="translate(43.81 101.080329)scale(0.11 -0.11)">
       <defs>
        <path d="M 1228 531 
L 3431 531 
L 3431 0 
L 469 0 
L 469 531 
Q 828 903 1448 1529 
Q 2069 2156 2228 2338 
Q 2531 2678 2651 2914 
Q 2772 3150 2772 3378 
Q 2772 3750 2511 3984 
Q 2250 4219 1831 4219 
Q 1534 4219 1204 4116 
Q 875 4013 500 3803 
L 500 4441 
Q 881 4594 1212 4672 
Q 1544 4750 1819 4750 
Q 2544 4750 2975 4387 
Q 3406 4025 3406 3419 
Q 3406 3131 3298 2873 
Q 3191 2616 2906 2266 
Q 2828 2175 2409 1742 
Q 1991 1309 1228 531 
z
" id="DejaVuSans-32" transform="scale(0.015625)"/>
       </defs>
       <use xlink:href="#DejaVuSans-30"/>
       <use x="63.623047" xlink:href="#DejaVuSans-2e"/>
       <use x="95.410156" xlink:href="#DejaVuSans-31"/>
       <use x="159.033203" xlink:href="#DejaVuSans-32"/>
      </g>
     </g>
    </g>
    <g id="ytick_4">
     <g id="line2d_8">
      <path clip-path="url(#p553908a011)" d="M 77.802188 52.242402 
L 277.020938 52.242402 
" style="fill:none;stroke:#ffffff;stroke-linecap:round;"/>
     </g>
     <g id="text_5">
      <!-- 0.14 -->
      <g style="fill:#262626;" transform="translate(43.81 56.421543)scale(0.11 -0.11)">
       <defs>
        <path d="M 2419 4116 
L 825 1625 
L 2419 1625 
L 2419 4116 
z
M 2253 4666 
L 3047 4666 
L 3047 1625 
L 3713 1625 
L 3713 1100 
L 3047 1100 
L 3047 0 
L 2419 0 
L 2419 1100 
L 313 1100 
L 313 1709 
L 2253 4666 
z
" id="DejaVuSans-34" transform="scale(0.015625)"/>
       </defs>
       <use xlink:href="#DejaVuSans-30"/>
       <use x="63.623047" xlink:href="#DejaVuSans-2e"/>
       <use x="95.410156" xlink:href="#DejaVuSans-31"/>
       <use x="159.033203" xlink:href="#DejaVuSans-34"/>
      </g>
     </g>
    </g>
    <g id="text_6">
     <!-- Normalized Loss -->
     <g style="fill:#262626;" transform="translate(37.314375 187.430729)rotate(-90)scale(0.12 -0.12)">
      <defs>
       <path d="M 628 4666 
L 1478 4666 
L 3547 763 
L 3547 4666 
L 4159 4666 
L 4159 0 
L 3309 0 
L 1241 3903 
L 1241 0 
L 628 0 
L 628 4666 
z
" id="DejaVuSans-4e" transform="scale(0.015625)"/>
       <path d="M 2631 2963 
Q 2534 3019 2420 3045 
Q 2306 3072 2169 3072 
Q 1681 3072 1420 2755 
Q 1159 2438 1159 1844 
L 1159 0 
L 581 0 
L 581 3500 
L 1159 3500 
L 1159 2956 
Q 1341 3275 1631 3429 
Q 1922 3584 2338 3584 
Q 2397 3584 2469 3576 
Q 2541 3569 2628 3553 
L 2631 2963 
z
" id="DejaVuSans-72" transform="scale(0.015625)"/>
       <path d="M 3328 2828 
Q 3544 3216 3844 3400 
Q 4144 3584 4550 3584 
Q 5097 3584 5394 3201 
Q 5691 2819 5691 2113 
L 5691 0 
L 5113 0 
L 5113 2094 
Q 5113 2597 4934 2840 
Q 4756 3084 4391 3084 
Q 3944 3084 3684 2787 
Q 3425 2491 3425 1978 
L 3425 0 
L 2847 0 
L 2847 2094 
Q 2847 2600 2669 2842 
Q 2491 3084 2119 3084 
Q 1678 3084 1418 2786 
Q 1159 2488 1159 1978 
L 1159 0 
L 581 0 
L 581 3500 
L 1159 3500 
L 1159 2956 
Q 1356 3278 1631 3431 
Q 1906 3584 2284 3584 
Q 2666 3584 2933 3390 
Q 3200 3197 3328 2828 
z
" id="DejaVuSans-6d" transform="scale(0.015625)"/>
       <path d="M 2194 1759 
Q 1497 1759 1228 1600 
Q 959 1441 959 1056 
Q 959 750 1161 570 
Q 1363 391 1709 391 
Q 2188 391 2477 730 
Q 2766 1069 2766 1631 
L 2766 1759 
L 2194 1759 
z
M 3341 1997 
L 3341 0 
L 2766 0 
L 2766 531 
Q 2569 213 2275 61 
Q 1981 -91 1556 -91 
Q 1019 -91 701 211 
Q 384 513 384 1019 
Q 384 1609 779 1909 
Q 1175 2209 1959 2209 
L 2766 2209 
L 2766 2266 
Q 2766 2663 2505 2880 
Q 2244 3097 1772 3097 
Q 1472 3097 1187 3025 
Q 903 2953 641 2809 
L 641 3341 
Q 956 3463 1253 3523 
Q 1550 3584 1831 3584 
Q 2591 3584 2966 3190 
Q 3341 2797 3341 1997 
z
" id="DejaVuSans-61" transform="scale(0.015625)"/>
       <path d="M 603 4863 
L 1178 4863 
L 1178 0 
L 603 0 
L 603 4863 
z
" id="DejaVuSans-6c" transform="scale(0.015625)"/>
       <path d="M 603 3500 
L 1178 3500 
L 1178 0 
L 603 0 
L 603 3500 
z
M 603 4863 
L 1178 4863 
L 1178 4134 
L 603 4134 
L 603 4863 
z
" id="DejaVuSans-69" transform="scale(0.015625)"/>
       <path d="M 353 3500 
L 3084 3500 
L 3084 2975 
L 922 459 
L 3084 459 
L 3084 0 
L 275 0 
L 275 525 
L 2438 3041 
L 353 3041 
L 353 3500 
z
" id="DejaVuSans-7a" transform="scale(0.015625)"/>
       <path d="M 3597 1894 
L 3597 1613 
L 953 1613 
Q 991 1019 1311 708 
Q 1631 397 2203 397 
Q 2534 397 2845 478 
Q 3156 559 3463 722 
L 3463 178 
Q 3153 47 2828 -22 
Q 2503 -91 2169 -91 
Q 1331 -91 842 396 
Q 353 884 353 1716 
Q 353 2575 817 3079 
Q 1281 3584 2069 3584 
Q 2775 3584 3186 3129 
Q 3597 2675 3597 1894 
z
M 3022 2063 
Q 3016 2534 2758 2815 
Q 2500 3097 2075 3097 
Q 1594 3097 1305 2825 
Q 1016 2553 972 2059 
L 3022 2063 
z
" id="DejaVuSans-65" transform="scale(0.015625)"/>
       <path d="M 2906 2969 
L 2906 4863 
L 3481 4863 
L 3481 0 
L 2906 0 
L 2906 525 
Q 2725 213 2448 61 
Q 2172 -91 1784 -91 
Q 1150 -91 751 415 
Q 353 922 353 1747 
Q 353 2572 751 3078 
Q 1150 3584 1784 3584 
Q 2172 3584 2448 3432 
Q 2725 3281 2906 2969 
z
M 947 1747 
Q 947 1113 1208 752 
Q 1469 391 1925 391 
Q 2381 391 2643 752 
Q 2906 1113 2906 1747 
Q 2906 2381 2643 2742 
Q 2381 3103 1925 3103 
Q 1469 3103 1208 2742 
Q 947 2381 947 1747 
z
" id="DejaVuSans-64" transform="scale(0.015625)"/>
       <path id="DejaVuSans-20" transform="scale(0.015625)"/>
       <path d="M 628 4666 
L 1259 4666 
L 1259 531 
L 3531 531 
L 3531 0 
L 628 0 
L 628 4666 
z
" id="DejaVuSans-4c" transform="scale(0.015625)"/>
       <path d="M 2834 3397 
L 2834 2853 
Q 2591 2978 2328 3040 
Q 2066 3103 1784 3103 
Q 1356 3103 1142 2972 
Q 928 2841 928 2578 
Q 928 2378 1081 2264 
Q 1234 2150 1697 2047 
L 1894 2003 
Q 2506 1872 2764 1633 
Q 3022 1394 3022 966 
Q 3022 478 2636 193 
Q 2250 -91 1575 -91 
Q 1294 -91 989 -36 
Q 684 19 347 128 
L 347 722 
Q 666 556 975 473 
Q 1284 391 1588 391 
Q 1994 391 2212 530 
Q 2431 669 2431 922 
Q 2431 1156 2273 1281 
Q 2116 1406 1581 1522 
L 1381 1569 
Q 847 1681 609 1914 
Q 372 2147 372 2553 
Q 372 3047 722 3315 
Q 1072 3584 1716 3584 
Q 2034 3584 2315 3537 
Q 2597 3491 2834 3397 
z
" id="DejaVuSans-73" transform="scale(0.015625)"/>
      </defs>
      <use xlink:href="#DejaVuSans-4e"/>
      <use x="74.804688" xlink:href="#DejaVuSans-6f"/>
      <use x="135.986328" xlink:href="#DejaVuSans-72"/>
      <use x="175.349609" xlink:href="#DejaVuSans-6d"/>
      <use x="272.761719" xlink:href="#DejaVuSans-61"/>
      <use x="334.041016" xlink:href="#DejaVuSans-6c"/>
      <use x="361.824219" xlink:href="#DejaVuSans-69"/>
      <use x="389.607422" xlink:href="#DejaVuSans-7a"/>
      <use x="442.097656" xlink:href="#DejaVuSans-65"/>
      <use x="503.621094" xlink:href="#DejaVuSans-64"/>
      <use x="567.097656" xlink:href="#DejaVuSans-20"/>
      <use x="598.884766" xlink:href="#DejaVuSans-4c"/>
      <use x="652.847656" xlink:href="#DejaVuSans-6f"/>
      <use x="714.029297" xlink:href="#DejaVuSans-73"/>
      <use x="766.128906" xlink:href="#DejaVuSans-73"/>
     </g>
    </g>
   </g>
   <g id="line2d_9">
    <path clip-path="url(#p553908a011)" d="M 89.427562 -1 
L 89.444842 50.827429 
L 89.444842 100.097933 
L 92.032098 112.611839 
L 94.619355 119.398475 
L 97.206611 121.680431 
L 99.793868 130.509563 
L 102.381124 133.487729 
L 104.968381 137.032568 
L 107.555637 139.909924 
L 110.142894 140.961499 
L 112.73015 144.24099 
L 115.317407 146.233452 
L 117.904663 147.733093 
L 120.49192 149.467247 
L 123.079176 149.854826 
L 125.666433 151.304918 
L 128.253689 152.343145 
L 130.840946 152.568097 
L 133.428202 153.58767 
L 136.015459 154.758371 
L 138.602715 154.659115 
L 141.189972 154.862228 
L 143.777228 155.074632 
L 146.364485 155.565602 
L 148.951741 155.269403 
L 151.538998 156.771557 
L 154.126254 156.857193 
L 156.713511 157.121576 
L 159.300767 157.703766 
L 161.888024 157.423086 
L 164.47528 157.86822 
L 167.062537 158.88517 
L 169.649793 158.445981 
L 172.23705 158.411444 
L 174.824306 159.0874 
L 177.411563 159.448161 
L 179.998819 159.030282 
L 182.586075 159.764764 
L 185.173332 159.742838 
L 187.760588 189.438464 
L 190.347845 196.493607 
L 192.935101 200.023114 
L 195.522358 202.661756 
L 198.109614 204.903248 
L 200.696871 205.914913 
L 203.284127 207.434036 
L 205.871384 208.298994 
L 208.45864 209.17306 
L 211.045897 210.170125 
L 213.633153 210.469639 
L 216.22041 211.223235 
L 218.807666 211.962419 
L 221.394923 212.054105 
L 223.982179 212.681893 
L 226.569436 212.982088 
L 229.156692 213.515499 
L 231.743949 213.815889 
L 234.331205 214.002095 
L 236.918462 214.281232 
L 239.505718 214.335011 
L 242.092975 214.290043 
L 244.680231 215.157125 
L 247.267488 215.140694 
L 249.854744 215.31644 
L 252.442001 215.414861 
L 255.029257 215.653865 
L 257.616514 215.708154 
L 260.20377 215.866008 
L 262.791027 216.058352 
L 265.378283 216.246177 
L 267.96554 216.609336 
" style="fill:none;stroke:#c44e52;stroke-linecap:round;stroke-width:1.5;"/>
   </g>
   <g id="line2d_10">
    <path clip-path="url(#p553908a011)" d="M 86.857585 19.701023 
L 89.444842 66.236695 
L 89.444842 115.960729 
L 92.032098 126.890979 
L 94.619355 121.631041 
L 97.206611 138.525962 
L 99.793868 135.215788 
L 102.381124 146.911021 
L 104.968381 144.767087 
L 107.555637 114.919985 
L 110.142894 147.343024 
L 112.73015 140.78025 
L 115.317407 154.637829 
L 117.904663 156.590936 
L 120.49192 161.143048 
L 123.079176 161.27828 
L 125.666433 161.422632 
L 128.253689 152.314327 
L 130.840946 156.970991 
L 133.428202 163.797262 
L 136.015459 155.253035 
L 138.602715 165.002441 
L 141.189972 158.966082 
L 143.777228 120.651068 
L 146.364485 165.521049 
L 148.951741 168.675074 
L 151.538998 166.92561 
L 154.126254 162.318566 
L 156.713511 170.641257 
L 159.300767 108.507395 
L 161.888024 148.657335 
L 164.47528 168.199805 
L 167.062537 155.678862 
L 169.649793 165.835083 
L 172.23705 163.408211 
L 174.824306 147.243326 
L 177.411563 168.437903 
L 179.998819 159.443964 
L 182.586075 164.19469 
L 185.173332 169.658791 
L 187.760588 195.546532 
L 190.347845 197.556464 
L 192.935101 200.349798 
L 195.522358 202.377484 
L 198.109614 203.631362 
L 200.696871 205.664045 
L 203.284127 206.02262 
L 205.871384 205.93754 
L 208.45864 206.746683 
L 211.045897 207.040918 
L 213.633153 208.127783 
L 216.22041 208.828012 
L 218.807666 207.854466 
L 221.394923 205.609939 
L 223.982179 207.592754 
L 226.569436 208.989079 
L 229.156692 209.260186 
L 231.743949 207.962269 
L 234.331205 210.006526 
L 236.918462 209.678078 
L 239.505718 210.372595 
L 242.092975 209.05037 
L 244.680231 210.618416 
L 247.267488 210.450763 
L 249.854744 210.742158 
L 252.442001 210.259737 
L 255.029257 209.388664 
L 257.616514 210.511814 
L 260.20377 209.357589 
L 262.791027 210.246622 
L 265.378283 210.635537 
L 267.96554 210.288786 
" style="fill:none;stroke:#c44e52;stroke-dasharray:5.55,2.4;stroke-dashoffset:0;stroke-width:1.5;"/>
   </g>
   <g id="patch_3">
    <path d="M 77.802188 226.153333 
L 77.802188 50.52 
" style="fill:none;stroke:#ffffff;stroke-linecap:square;stroke-linejoin:miter;stroke-width:1.25;"/>
   </g>
   <g id="patch_4">
    <path d="M 277.020938 226.153333 
L 277.020938 50.52 
" style="fill:none;stroke:#ffffff;stroke-linecap:square;stroke-linejoin:miter;stroke-width:1.25;"/>
   </g>
   <g id="patch_5">
    <path d="M 77.802188 226.153333 
L 277.020938 226.153333 
" style="fill:none;stroke:#ffffff;stroke-linecap:square;stroke-linejoin:miter;stroke-width:1.25;"/>
   </g>
   <g id="patch_6">
    <path d="M 77.802188 50.52 
L 277.020938 50.52 
" style="fill:none;stroke:#ffffff;stroke-linecap:square;stroke-linejoin:miter;stroke-width:1.25;"/>
   </g>
   <g id="text_7">
    <!-- Loss With No Normalization -->
    <g style="fill:#262626;" transform="translate(95.055937 44.52)scale(0.12 -0.12)">
     <defs>
      <path d="M 213 4666 
L 850 4666 
L 1831 722 
L 2809 4666 
L 3519 4666 
L 4500 722 
L 5478 4666 
L 6119 4666 
L 4947 0 
L 4153 0 
L 3169 4050 
L 2175 0 
L 1381 0 
L 213 4666 
z
" id="DejaVuSans-57" transform="scale(0.015625)"/>
      <path d="M 1172 4494 
L 1172 3500 
L 2356 3500 
L 2356 3053 
L 1172 3053 
L 1172 1153 
Q 1172 725 1289 603 
Q 1406 481 1766 481 
L 2356 481 
L 2356 0 
L 1766 0 
Q 1100 0 847 248 
Q 594 497 594 1153 
L 594 3053 
L 172 3053 
L 172 3500 
L 594 3500 
L 594 4494 
L 1172 4494 
z
" id="DejaVuSans-74" transform="scale(0.015625)"/>
      <path d="M 3513 2113 
L 3513 0 
L 2938 0 
L 2938 2094 
Q 2938 2591 2744 2837 
Q 2550 3084 2163 3084 
Q 1697 3084 1428 2787 
Q 1159 2491 1159 1978 
L 1159 0 
L 581 0 
L 581 3500 
L 1159 3500 
L 1159 2956 
Q 1366 3272 1645 3428 
Q 1925 3584 2291 3584 
Q 2894 3584 3203 3211 
Q 3513 2838 3513 2113 
z
" id="DejaVuSans-6e" transform="scale(0.015625)"/>
     </defs>
     <use xlink:href="#DejaVuSans-4c"/>
     <use x="53.962891" xlink:href="#DejaVuSans-6f"/>
     <use x="115.144531" xlink:href="#DejaVuSans-73"/>
     <use x="167.244141" xlink:href="#DejaVuSans-73"/>
     <use x="219.34375" xlink:href="#DejaVuSans-20"/>
     <use x="251.130859" xlink:href="#DejaVuSans-57"/>
     <use x="347.757812" xlink:href="#DejaVuSans-69"/>
     <use x="375.541016" xlink:href="#DejaVuSans-74"/>
     <use x="414.75" xlink:href="#DejaVuSans-68"/>
     <use x="478.128906" xlink:href="#DejaVuSans-20"/>
     <use x="509.916016" xlink:href="#DejaVuSans-4e"/>
     <use x="584.720703" xlink:href="#DejaVuSans-6f"/>
     <use x="645.902344" xlink:href="#DejaVuSans-20"/>
     <use x="677.689453" xlink:href="#DejaVuSans-4e"/>
     <use x="752.494141" xlink:href="#DejaVuSans-6f"/>
     <use x="813.675781" xlink:href="#DejaVuSans-72"/>
     <use x="853.039062" xlink:href="#DejaVuSans-6d"/>
     <use x="950.451172" xlink:href="#DejaVuSans-61"/>
     <use x="1011.730469" xlink:href="#DejaVuSans-6c"/>
     <use x="1039.513672" xlink:href="#DejaVuSans-69"/>
     <use x="1067.296875" xlink:href="#DejaVuSans-7a"/>
     <use x="1119.787109" xlink:href="#DejaVuSans-61"/>
     <use x="1181.066406" xlink:href="#DejaVuSans-74"/>
     <use x="1220.275391" xlink:href="#DejaVuSans-69"/>
     <use x="1248.058594" xlink:href="#DejaVuSans-6f"/>
     <use x="1309.240234" xlink:href="#DejaVuSans-6e"/>
    </g>
   </g>
   <g id="legend_1">
    <g id="patch_7">
     <path d="M 207.734688 91.611875 
L 269.320938 91.611875 
Q 271.520938 91.611875 271.520938 89.411875 
L 271.520938 58.22 
Q 271.520938 56.02 269.320938 56.02 
L 207.734688 56.02 
Q 205.534688 56.02 205.534688 58.22 
L 205.534688 89.411875 
Q 205.534688 91.611875 207.734688 91.611875 
z
" style="fill:#eaeaf2;opacity:0.8;stroke:#cccccc;stroke-linejoin:miter;"/>
    </g>
    <g id="line2d_11">
     <path d="M 209.934688 64.928281 
L 231.934688 64.928281 
" style="fill:none;stroke:#c44e52;stroke-linecap:round;stroke-width:1.5;"/>
    </g>
    <g id="line2d_12"/>
    <g id="text_8">
     <!-- Train -->
     <g style="fill:#262626;" transform="translate(240.734688 68.778281)scale(0.11 -0.11)">
      <defs>
       <path d="M -19 4666 
L 3928 4666 
L 3928 4134 
L 2272 4134 
L 2272 0 
L 1638 0 
L 1638 4134 
L -19 4134 
L -19 4666 
z
" id="DejaVuSans-54" transform="scale(0.015625)"/>
      </defs>
      <use xlink:href="#DejaVuSans-54"/>
      <use x="46.333984" xlink:href="#DejaVuSans-72"/>
      <use x="87.447266" xlink:href="#DejaVuSans-61"/>
      <use x="148.726562" xlink:href="#DejaVuSans-69"/>
      <use x="176.509766" xlink:href="#DejaVuSans-6e"/>
     </g>
    </g>
    <g id="line2d_13">
     <path d="M 209.934688 81.074219 
L 231.934688 81.074219 
" style="fill:none;stroke:#c44e52;stroke-dasharray:5.55,2.4;stroke-dashoffset:0;stroke-width:1.5;"/>
    </g>
    <g id="line2d_14"/>
    <g id="text_9">
     <!-- Test -->
     <g style="fill:#262626;" transform="translate(240.734688 84.924219)scale(0.11 -0.11)">
      <use xlink:href="#DejaVuSans-54"/>
      <use x="44.083984" xlink:href="#DejaVuSans-65"/>
      <use x="105.607422" xlink:href="#DejaVuSans-73"/>
      <use x="157.707031" xlink:href="#DejaVuSans-74"/>
     </g>
    </g>
   </g>
  </g>
  <g id="axes_2">
   <g id="patch_8">
    <path d="M 77.802188 445.146667 
L 277.020938 445.146667 
L 277.020938 269.513333 
L 77.802188 269.513333 
z
" style="fill:#eaeaf2;"/>
   </g>
   <g id="matplotlib.axis_3">
    <g id="xtick_5">
     <g id="line2d_15">
      <path clip-path="url(#p439d1588dd)" d="M 86.857585 445.146667 
L 86.857585 269.513333 
" style="fill:none;stroke:#ffffff;stroke-linecap:round;"/>
     </g>
    </g>
    <g id="xtick_6">
     <g id="line2d_16">
      <path clip-path="url(#p439d1588dd)" d="M 138.602715 445.146667 
L 138.602715 269.513333 
" style="fill:none;stroke:#ffffff;stroke-linecap:round;"/>
     </g>
    </g>
    <g id="xtick_7">
     <g id="line2d_17">
      <path clip-path="url(#p439d1588dd)" d="M 190.347845 445.146667 
L 190.347845 269.513333 
" style="fill:none;stroke:#ffffff;stroke-linecap:round;"/>
     </g>
    </g>
    <g id="xtick_8">
     <g id="line2d_18">
      <path clip-path="url(#p439d1588dd)" d="M 242.092975 445.146667 
L 242.092975 269.513333 
" style="fill:none;stroke:#ffffff;stroke-linecap:round;"/>
     </g>
    </g>
    <g id="text_10">
     <!-- Epoch -->
     <g style="fill:#262626;" transform="translate(159.038438 458.264792)scale(0.12 -0.12)">
      <use xlink:href="#DejaVuSans-45"/>
      <use x="63.183594" xlink:href="#DejaVuSans-70"/>
      <use x="126.660156" xlink:href="#DejaVuSans-6f"/>
      <use x="187.841797" xlink:href="#DejaVuSans-63"/>
      <use x="242.822266" xlink:href="#DejaVuSans-68"/>
     </g>
    </g>
   </g>
   <g id="matplotlib.axis_4">
    <g id="ytick_5">
     <g id="line2d_19">
      <path clip-path="url(#p439d1588dd)" d="M 77.802188 427.498105 
L 277.020938 427.498105 
" style="fill:none;stroke:#ffffff;stroke-linecap:round;"/>
     </g>
     <g id="text_11">
      <!-- 0.00200 -->
      <g style="fill:#262626;" transform="translate(22.81375 431.677246)scale(0.11 -0.11)">
       <use xlink:href="#DejaVuSans-30"/>
       <use x="63.623047" xlink:href="#DejaVuSans-2e"/>
       <use x="95.410156" xlink:href="#DejaVuSans-30"/>
       <use x="159.033203" xlink:href="#DejaVuSans-30"/>
       <use x="222.65625" xlink:href="#DejaVuSans-32"/>
       <use x="286.279297" xlink:href="#DejaVuSans-30"/>
       <use x="349.902344" xlink:href="#DejaVuSans-30"/>
      </g>
     </g>
    </g>
    <g id="ytick_6">
     <g id="line2d_20">
      <path clip-path="url(#p439d1588dd)" d="M 77.802188 400.557282 
L 277.020938 400.557282 
" style="fill:none;stroke:#ffffff;stroke-linecap:round;"/>
     </g>
     <g id="text_12">
      <!-- 0.00225 -->
      <g style="fill:#262626;" transform="translate(22.81375 404.736423)scale(0.11 -0.11)">
       <defs>
        <path d="M 691 4666 
L 3169 4666 
L 3169 4134 
L 1269 4134 
L 1269 2991 
Q 1406 3038 1543 3061 
Q 1681 3084 1819 3084 
Q 2600 3084 3056 2656 
Q 3513 2228 3513 1497 
Q 3513 744 3044 326 
Q 2575 -91 1722 -91 
Q 1428 -91 1123 -41 
Q 819 9 494 109 
L 494 744 
Q 775 591 1075 516 
Q 1375 441 1709 441 
Q 2250 441 2565 725 
Q 2881 1009 2881 1497 
Q 2881 1984 2565 2268 
Q 2250 2553 1709 2553 
Q 1456 2553 1204 2497 
Q 953 2441 691 2322 
L 691 4666 
z
" id="DejaVuSans-35" transform="scale(0.015625)"/>
       </defs>
       <use xlink:href="#DejaVuSans-30"/>
       <use x="63.623047" xlink:href="#DejaVuSans-2e"/>
       <use x="95.410156" xlink:href="#DejaVuSans-30"/>
       <use x="159.033203" xlink:href="#DejaVuSans-30"/>
       <use x="222.65625" xlink:href="#DejaVuSans-32"/>
       <use x="286.279297" xlink:href="#DejaVuSans-32"/>
       <use x="349.902344" xlink:href="#DejaVuSans-35"/>
      </g>
     </g>
    </g>
    <g id="ytick_7">
     <g id="line2d_21">
      <path clip-path="url(#p439d1588dd)" d="M 77.802188 373.616459 
L 277.020938 373.616459 
" style="fill:none;stroke:#ffffff;stroke-linecap:round;"/>
     </g>
     <g id="text_13">
      <!-- 0.00250 -->
      <g style="fill:#262626;" transform="translate(22.81375 377.795599)scale(0.11 -0.11)">
       <use xlink:href="#DejaVuSans-30"/>
       <use x="63.623047" xlink:href="#DejaVuSans-2e"/>
       <use x="95.410156" xlink:href="#DejaVuSans-30"/>
       <use x="159.033203" xlink:href="#DejaVuSans-30"/>
       <use x="222.65625" xlink:href="#DejaVuSans-32"/>
       <use x="286.279297" xlink:href="#DejaVuSans-35"/>
       <use x="349.902344" xlink:href="#DejaVuSans-30"/>
      </g>
     </g>
    </g>
    <g id="ytick_8">
     <g id="line2d_22">
      <path clip-path="url(#p439d1588dd)" d="M 77.802188 346.675635 
L 277.020938 346.675635 
" style="fill:none;stroke:#ffffff;stroke-linecap:round;"/>
     </g>
     <g id="text_14">
      <!-- 0.00275 -->
      <g style="fill:#262626;" transform="translate(22.81375 350.854776)scale(0.11 -0.11)">
       <defs>
        <path d="M 525 4666 
L 3525 4666 
L 3525 4397 
L 1831 0 
L 1172 0 
L 2766 4134 
L 525 4134 
L 525 4666 
z
" id="DejaVuSans-37" transform="scale(0.015625)"/>
       </defs>
       <use xlink:href="#DejaVuSans-30"/>
       <use x="63.623047" xlink:href="#DejaVuSans-2e"/>
       <use x="95.410156" xlink:href="#DejaVuSans-30"/>
       <use x="159.033203" xlink:href="#DejaVuSans-30"/>
       <use x="222.65625" xlink:href="#DejaVuSans-32"/>
       <use x="286.279297" xlink:href="#DejaVuSans-37"/>
       <use x="349.902344" xlink:href="#DejaVuSans-35"/>
      </g>
     </g>
    </g>
    <g id="ytick_9">
     <g id="line2d_23">
      <path clip-path="url(#p439d1588dd)" d="M 77.802188 319.734812 
L 277.020938 319.734812 
" style="fill:none;stroke:#ffffff;stroke-linecap:round;"/>
     </g>
     <g id="text_15">
      <!-- 0.00300 -->
      <g style="fill:#262626;" transform="translate(22.81375 323.913953)scale(0.11 -0.11)">
       <defs>
        <path d="M 2597 2516 
Q 3050 2419 3304 2112 
Q 3559 1806 3559 1356 
Q 3559 666 3084 287 
Q 2609 -91 1734 -91 
Q 1441 -91 1130 -33 
Q 819 25 488 141 
L 488 750 
Q 750 597 1062 519 
Q 1375 441 1716 441 
Q 2309 441 2620 675 
Q 2931 909 2931 1356 
Q 2931 1769 2642 2001 
Q 2353 2234 1838 2234 
L 1294 2234 
L 1294 2753 
L 1863 2753 
Q 2328 2753 2575 2939 
Q 2822 3125 2822 3475 
Q 2822 3834 2567 4026 
Q 2313 4219 1838 4219 
Q 1578 4219 1281 4162 
Q 984 4106 628 3988 
L 628 4550 
Q 988 4650 1302 4700 
Q 1616 4750 1894 4750 
Q 2613 4750 3031 4423 
Q 3450 4097 3450 3541 
Q 3450 3153 3228 2886 
Q 3006 2619 2597 2516 
z
" id="DejaVuSans-33" transform="scale(0.015625)"/>
       </defs>
       <use xlink:href="#DejaVuSans-30"/>
       <use x="63.623047" xlink:href="#DejaVuSans-2e"/>
       <use x="95.410156" xlink:href="#DejaVuSans-30"/>
       <use x="159.033203" xlink:href="#DejaVuSans-30"/>
       <use x="222.65625" xlink:href="#DejaVuSans-33"/>
       <use x="286.279297" xlink:href="#DejaVuSans-30"/>
       <use x="349.902344" xlink:href="#DejaVuSans-30"/>
      </g>
     </g>
    </g>
    <g id="ytick_10">
     <g id="line2d_24">
      <path clip-path="url(#p439d1588dd)" d="M 77.802188 292.793989 
L 277.020938 292.793989 
" style="fill:none;stroke:#ffffff;stroke-linecap:round;"/>
     </g>
     <g id="text_16">
      <!-- 0.00325 -->
      <g style="fill:#262626;" transform="translate(22.81375 296.973129)scale(0.11 -0.11)">
       <use xlink:href="#DejaVuSans-30"/>
       <use x="63.623047" xlink:href="#DejaVuSans-2e"/>
       <use x="95.410156" xlink:href="#DejaVuSans-30"/>
       <use x="159.033203" xlink:href="#DejaVuSans-30"/>
       <use x="222.65625" xlink:href="#DejaVuSans-33"/>
       <use x="286.279297" xlink:href="#DejaVuSans-32"/>
       <use x="349.902344" xlink:href="#DejaVuSans-35"/>
      </g>
     </g>
    </g>
    <g id="text_17">
     <!-- Normalized Loss -->
     <g style="fill:#262626;" transform="translate(16.318125 406.424062)rotate(-90)scale(0.12 -0.12)">
      <use xlink:href="#DejaVuSans-4e"/>
      <use x="74.804688" xlink:href="#DejaVuSans-6f"/>
      <use x="135.986328" xlink:href="#DejaVuSans-72"/>
      <use x="175.349609" xlink:href="#DejaVuSans-6d"/>
      <use x="272.761719" xlink:href="#DejaVuSans-61"/>
      <use x="334.041016" xlink:href="#DejaVuSans-6c"/>
      <use x="361.824219" xlink:href="#DejaVuSans-69"/>
      <use x="389.607422" xlink:href="#DejaVuSans-7a"/>
      <use x="442.097656" xlink:href="#DejaVuSans-65"/>
      <use x="503.621094" xlink:href="#DejaVuSans-64"/>
      <use x="567.097656" xlink:href="#DejaVuSans-20"/>
      <use x="598.884766" xlink:href="#DejaVuSans-4c"/>
      <use x="652.847656" xlink:href="#DejaVuSans-6f"/>
      <use x="714.029297" xlink:href="#DejaVuSans-73"/>
      <use x="766.128906" xlink:href="#DejaVuSans-73"/>
     </g>
    </g>
   </g>
   <g id="line2d_25">
    <path clip-path="url(#p439d1588dd)" d="M 86.857585 128.603007 
L 89.444842 311.215349 
L 92.032098 317.573535 
L 94.619355 318.533399 
L 97.206611 319.557234 
L 99.793868 320.422856 
L 102.381124 319.939636 
L 104.968381 320.423007 
L 107.555637 320.744281 
L 110.142894 319.631468 
L 112.73015 320.145954 
L 115.317407 319.834484 
L 117.904663 319.291862 
L 120.49192 319.649322 
L 123.079176 319.919876 
L 125.666433 319.381205 
L 128.253689 319.360767 
L 130.840946 319.697399 
L 133.428202 319.908964 
L 136.015459 319.709177 
L 138.602715 319.49336 
L 141.189972 374.808555 
L 143.777228 391.632553 
L 146.364485 397.70593 
L 148.951741 400.878357 
L 151.538998 402.996793 
L 154.126254 404.354014 
L 156.713511 405.323902 
L 159.300767 406.749357 
L 161.888024 407.639579 
L 164.47528 408.24449 
L 167.062537 409.308754 
L 169.649793 410.007955 
L 172.23705 410.529186 
L 174.824306 411.203047 
L 177.411563 411.81593 
L 179.998819 412.277788 
L 182.586075 412.638364 
L 185.173332 413.383858 
L 187.760588 413.497298 
L 190.347845 414.015782 
L 192.935101 413.886548 
L 195.522358 414.453229 
L 198.109614 414.534793 
L 200.696871 414.94582 
L 203.284127 415.104383 
L 205.871384 415.22702 
L 208.45864 415.743429 
L 211.045897 415.623758 
L 213.633153 415.565143 
L 216.22041 415.812787 
L 218.807666 416.038549 
L 221.394923 415.948148 
L 223.982179 416.163355 
L 226.569436 416.108846 
L 229.156692 416.199753 
L 231.743949 416.625836 
L 234.331205 416.662742 
L 236.918462 416.685135 
L 239.505718 416.626896 
L 242.092975 416.678614 
L 244.680231 417.231442 
L 247.267488 417.355336 
L 249.854744 417.274338 
L 252.442001 417.423403 
L 255.029257 417.494925 
L 257.616514 417.461283 
L 260.20377 417.514788 
L 262.791027 417.948288 
L 265.378283 417.822492 
L 267.96554 418.054564 
" style="fill:none;stroke:#55a868;stroke-linecap:round;stroke-width:1.5;"/>
   </g>
   <g id="line2d_26">
    <path clip-path="url(#p439d1588dd)" d="M 86.857585 302.802646 
L 89.444842 323.979036 
L 92.032098 319.272033 
L 94.619355 329.150964 
L 97.206611 326.79033 
L 99.793868 320.979555 
L 102.381124 325.870966 
L 104.968381 328.501496 
L 107.555637 327.961987 
L 110.142894 333.618701 
L 112.73015 322.271397 
L 115.317407 288.188901 
L 117.904663 324.042119 
L 120.49192 329.253509 
L 123.079176 319.7541 
L 125.666433 325.650265 
L 128.253689 329.382913 
L 130.840946 318.079492 
L 133.428202 324.782346 
L 136.015459 328.855068 
L 138.602715 317.676007 
L 141.189972 394.780182 
L 143.777228 401.732838 
L 146.364485 405.471735 
L 148.951741 409.27446 
L 151.538998 408.957017 
L 154.126254 407.175098 
L 156.713511 409.711062 
L 159.300767 415.052585 
L 161.888024 412.452394 
L 164.47528 414.500482 
L 167.062537 415.675443 
L 169.649793 415.074221 
L 172.23705 417.519306 
L 174.824306 416.696685 
L 177.411563 415.043161 
L 179.998819 417.11959 
L 182.586075 416.442308 
L 185.173332 415.886025 
L 187.760588 421.199527 
L 190.347845 419.779941 
L 192.935101 419.031038 
L 195.522358 420.020885 
L 198.109614 419.168518 
L 200.696871 417.078663 
L 203.284127 419.63973 
L 205.871384 420.148814 
L 208.45864 419.805477 
L 211.045897 420.205136 
L 213.633153 419.867825 
L 216.22041 421.459136 
L 218.807666 419.602572 
L 221.394923 418.025803 
L 223.982179 422.134296 
L 226.569436 413.417296 
L 229.156692 422.282736 
L 231.743949 421.624393 
L 234.331205 421.286952 
L 236.918462 419.954704 
L 239.505718 418.368474 
L 242.092975 422.598651 
L 244.680231 422.411044 
L 247.267488 421.441022 
L 249.854744 420.203214 
L 252.442001 423.150506 
L 255.029257 423.160219 
L 257.616514 419.413219 
L 260.20377 421.222488 
L 262.791027 421.548888 
L 265.378283 422.831981 
L 267.96554 422.797851 
" style="fill:none;stroke:#55a868;stroke-dasharray:5.55,2.4;stroke-dashoffset:0;stroke-width:1.5;"/>
   </g>
   <g id="patch_9">
    <path d="M 77.802188 445.146667 
L 77.802188 269.513333 
" style="fill:none;stroke:#ffffff;stroke-linecap:square;stroke-linejoin:miter;stroke-width:1.25;"/>
   </g>
   <g id="patch_10">
    <path d="M 277.020938 445.146667 
L 277.020938 269.513333 
" style="fill:none;stroke:#ffffff;stroke-linecap:square;stroke-linejoin:miter;stroke-width:1.25;"/>
   </g>
   <g id="patch_11">
    <path d="M 77.802188 445.146667 
L 277.020938 445.146667 
" style="fill:none;stroke:#ffffff;stroke-linecap:square;stroke-linejoin:miter;stroke-width:1.25;"/>
   </g>
   <g id="patch_12">
    <path d="M 77.802188 269.513333 
L 277.020938 269.513333 
" style="fill:none;stroke:#ffffff;stroke-linecap:square;stroke-linejoin:miter;stroke-width:1.25;"/>
   </g>
   <g id="text_18">
    <!-- Loss With Min_max Normalization -->
    <g style="fill:#262626;" transform="translate(76.497188 263.513333)scale(0.12 -0.12)">
     <defs>
      <path d="M 628 4666 
L 1569 4666 
L 2759 1491 
L 3956 4666 
L 4897 4666 
L 4897 0 
L 4281 0 
L 4281 4097 
L 3078 897 
L 2444 897 
L 1241 4097 
L 1241 0 
L 628 0 
L 628 4666 
z
" id="DejaVuSans-4d" transform="scale(0.015625)"/>
      <path d="M 3263 -1063 
L 3263 -1509 
L -63 -1509 
L -63 -1063 
L 3263 -1063 
z
" id="DejaVuSans-5f" transform="scale(0.015625)"/>
      <path d="M 3513 3500 
L 2247 1797 
L 3578 0 
L 2900 0 
L 1881 1375 
L 863 0 
L 184 0 
L 1544 1831 
L 300 3500 
L 978 3500 
L 1906 2253 
L 2834 3500 
L 3513 3500 
z
" id="DejaVuSans-78" transform="scale(0.015625)"/>
     </defs>
     <use xlink:href="#DejaVuSans-4c"/>
     <use x="53.962891" xlink:href="#DejaVuSans-6f"/>
     <use x="115.144531" xlink:href="#DejaVuSans-73"/>
     <use x="167.244141" xlink:href="#DejaVuSans-73"/>
     <use x="219.34375" xlink:href="#DejaVuSans-20"/>
     <use x="251.130859" xlink:href="#DejaVuSans-57"/>
     <use x="347.757812" xlink:href="#DejaVuSans-69"/>
     <use x="375.541016" xlink:href="#DejaVuSans-74"/>
     <use x="414.75" xlink:href="#DejaVuSans-68"/>
     <use x="478.128906" xlink:href="#DejaVuSans-20"/>
     <use x="509.916016" xlink:href="#DejaVuSans-4d"/>
     <use x="596.195312" xlink:href="#DejaVuSans-69"/>
     <use x="623.978516" xlink:href="#DejaVuSans-6e"/>
     <use x="687.357422" xlink:href="#DejaVuSans-5f"/>
     <use x="737.357422" xlink:href="#DejaVuSans-6d"/>
     <use x="834.769531" xlink:href="#DejaVuSans-61"/>
     <use x="896.048828" xlink:href="#DejaVuSans-78"/>
     <use x="955.228516" xlink:href="#DejaVuSans-20"/>
     <use x="987.015625" xlink:href="#DejaVuSans-4e"/>
     <use x="1061.820312" xlink:href="#DejaVuSans-6f"/>
     <use x="1123.001953" xlink:href="#DejaVuSans-72"/>
     <use x="1162.365234" xlink:href="#DejaVuSans-6d"/>
     <use x="1259.777344" xlink:href="#DejaVuSans-61"/>
     <use x="1321.056641" xlink:href="#DejaVuSans-6c"/>
     <use x="1348.839844" xlink:href="#DejaVuSans-69"/>
     <use x="1376.623047" xlink:href="#DejaVuSans-7a"/>
     <use x="1429.113281" xlink:href="#DejaVuSans-61"/>
     <use x="1490.392578" xlink:href="#DejaVuSans-74"/>
     <use x="1529.601562" xlink:href="#DejaVuSans-69"/>
     <use x="1557.384766" xlink:href="#DejaVuSans-6f"/>
     <use x="1618.566406" xlink:href="#DejaVuSans-6e"/>
    </g>
   </g>
   <g id="legend_2">
    <g id="patch_13">
     <path d="M 207.734688 310.605208 
L 269.320938 310.605208 
Q 271.520938 310.605208 271.520938 308.405208 
L 271.520938 277.213333 
Q 271.520938 275.013333 269.320938 275.013333 
L 207.734688 275.013333 
Q 205.534688 275.013333 205.534688 277.213333 
L 205.534688 308.405208 
Q 205.534688 310.605208 207.734688 310.605208 
z
" style="fill:#eaeaf2;opacity:0.8;stroke:#cccccc;stroke-linejoin:miter;"/>
    </g>
    <g id="line2d_27">
     <path d="M 209.934688 283.921615 
L 231.934688 283.921615 
" style="fill:none;stroke:#55a868;stroke-linecap:round;stroke-width:1.5;"/>
    </g>
    <g id="line2d_28"/>
    <g id="text_19">
     <!-- Train -->
     <g style="fill:#262626;" transform="translate(240.734688 287.771615)scale(0.11 -0.11)">
      <use xlink:href="#DejaVuSans-54"/>
      <use x="46.333984" xlink:href="#DejaVuSans-72"/>
      <use x="87.447266" xlink:href="#DejaVuSans-61"/>
      <use x="148.726562" xlink:href="#DejaVuSans-69"/>
      <use x="176.509766" xlink:href="#DejaVuSans-6e"/>
     </g>
    </g>
    <g id="line2d_29">
     <path d="M 209.934688 300.067552 
L 231.934688 300.067552 
" style="fill:none;stroke:#55a868;stroke-dasharray:5.55,2.4;stroke-dashoffset:0;stroke-width:1.5;"/>
    </g>
    <g id="line2d_30"/>
    <g id="text_20">
     <!-- Test -->
     <g style="fill:#262626;" transform="translate(240.734688 303.917552)scale(0.11 -0.11)">
      <use xlink:href="#DejaVuSans-54"/>
      <use x="44.083984" xlink:href="#DejaVuSans-65"/>
      <use x="105.607422" xlink:href="#DejaVuSans-73"/>
      <use x="157.707031" xlink:href="#DejaVuSans-74"/>
     </g>
    </g>
   </g>
  </g>
  <g id="axes_3">
   <g id="patch_14">
    <path d="M 77.802188 664.14 
L 277.020938 664.14 
L 277.020938 488.506667 
L 77.802188 488.506667 
z
" style="fill:#eaeaf2;"/>
   </g>
   <g id="matplotlib.axis_5">
    <g id="xtick_9">
     <g id="line2d_31">
      <path clip-path="url(#pf1dedf8d8d)" d="M 86.857585 664.14 
L 86.857585 488.506667 
" style="fill:none;stroke:#ffffff;stroke-linecap:round;"/>
     </g>
     <g id="text_21">
      <!-- 0 -->
      <g style="fill:#262626;" transform="translate(83.35821 681.998281)scale(0.11 -0.11)">
       <use xlink:href="#DejaVuSans-30"/>
      </g>
     </g>
    </g>
    <g id="xtick_10">
     <g id="line2d_32">
      <path clip-path="url(#pf1dedf8d8d)" d="M 138.602715 664.14 
L 138.602715 488.506667 
" style="fill:none;stroke:#ffffff;stroke-linecap:round;"/>
     </g>
     <g id="text_22">
      <!-- 20 -->
      <g style="fill:#262626;" transform="translate(131.603965 681.998281)scale(0.11 -0.11)">
       <use xlink:href="#DejaVuSans-32"/>
       <use x="63.623047" xlink:href="#DejaVuSans-30"/>
      </g>
     </g>
    </g>
    <g id="xtick_11">
     <g id="line2d_33">
      <path clip-path="url(#pf1dedf8d8d)" d="M 190.347845 664.14 
L 190.347845 488.506667 
" style="fill:none;stroke:#ffffff;stroke-linecap:round;"/>
     </g>
     <g id="text_23">
      <!-- 40 -->
      <g style="fill:#262626;" transform="translate(183.349095 681.998281)scale(0.11 -0.11)">
       <use xlink:href="#DejaVuSans-34"/>
       <use x="63.623047" xlink:href="#DejaVuSans-30"/>
      </g>
     </g>
    </g>
    <g id="xtick_12">
     <g id="line2d_34">
      <path clip-path="url(#pf1dedf8d8d)" d="M 242.092975 664.14 
L 242.092975 488.506667 
" style="fill:none;stroke:#ffffff;stroke-linecap:round;"/>
     </g>
     <g id="text_24">
      <!-- 60 -->
      <g style="fill:#262626;" transform="translate(235.094225 681.998281)scale(0.11 -0.11)">
       <defs>
        <path d="M 2113 2584 
Q 1688 2584 1439 2293 
Q 1191 2003 1191 1497 
Q 1191 994 1439 701 
Q 1688 409 2113 409 
Q 2538 409 2786 701 
Q 3034 994 3034 1497 
Q 3034 2003 2786 2293 
Q 2538 2584 2113 2584 
z
M 3366 4563 
L 3366 3988 
Q 3128 4100 2886 4159 
Q 2644 4219 2406 4219 
Q 1781 4219 1451 3797 
Q 1122 3375 1075 2522 
Q 1259 2794 1537 2939 
Q 1816 3084 2150 3084 
Q 2853 3084 3261 2657 
Q 3669 2231 3669 1497 
Q 3669 778 3244 343 
Q 2819 -91 2113 -91 
Q 1303 -91 875 529 
Q 447 1150 447 2328 
Q 447 3434 972 4092 
Q 1497 4750 2381 4750 
Q 2619 4750 2861 4703 
Q 3103 4656 3366 4563 
z
" id="DejaVuSans-36" transform="scale(0.015625)"/>
       </defs>
       <use xlink:href="#DejaVuSans-36"/>
       <use x="63.623047" xlink:href="#DejaVuSans-30"/>
      </g>
     </g>
    </g>
    <g id="text_25">
     <!-- Epoch -->
     <g style="fill:#262626;" transform="translate(159.038438 697.404062)scale(0.12 -0.12)">
      <use xlink:href="#DejaVuSans-45"/>
      <use x="63.183594" xlink:href="#DejaVuSans-70"/>
      <use x="126.660156" xlink:href="#DejaVuSans-6f"/>
      <use x="187.841797" xlink:href="#DejaVuSans-63"/>
      <use x="242.822266" xlink:href="#DejaVuSans-68"/>
     </g>
    </g>
   </g>
   <g id="matplotlib.axis_6">
    <g id="ytick_11">
     <g id="line2d_35">
      <path clip-path="url(#pf1dedf8d8d)" d="M 77.802188 618.061949 
L 277.020938 618.061949 
" style="fill:none;stroke:#ffffff;stroke-linecap:round;"/>
     </g>
     <g id="text_26">
      <!-- 0.14 -->
      <g style="fill:#262626;" transform="translate(43.81 622.24109)scale(0.11 -0.11)">
       <use xlink:href="#DejaVuSans-30"/>
       <use x="63.623047" xlink:href="#DejaVuSans-2e"/>
       <use x="95.410156" xlink:href="#DejaVuSans-31"/>
       <use x="159.033203" xlink:href="#DejaVuSans-34"/>
      </g>
     </g>
    </g>
    <g id="ytick_12">
     <g id="line2d_36">
      <path clip-path="url(#pf1dedf8d8d)" d="M 77.802188 570.871794 
L 277.020938 570.871794 
" style="fill:none;stroke:#ffffff;stroke-linecap:round;"/>
     </g>
     <g id="text_27">
      <!-- 0.16 -->
      <g style="fill:#262626;" transform="translate(43.81 575.050935)scale(0.11 -0.11)">
       <use xlink:href="#DejaVuSans-30"/>
       <use x="63.623047" xlink:href="#DejaVuSans-2e"/>
       <use x="95.410156" xlink:href="#DejaVuSans-31"/>
       <use x="159.033203" xlink:href="#DejaVuSans-36"/>
      </g>
     </g>
    </g>
    <g id="ytick_13">
     <g id="line2d_37">
      <path clip-path="url(#pf1dedf8d8d)" d="M 77.802188 523.681639 
L 277.020938 523.681639 
" style="fill:none;stroke:#ffffff;stroke-linecap:round;"/>
     </g>
     <g id="text_28">
      <!-- 0.18 -->
      <g style="fill:#262626;" transform="translate(43.81 527.86078)scale(0.11 -0.11)">
       <use xlink:href="#DejaVuSans-30"/>
       <use x="63.623047" xlink:href="#DejaVuSans-2e"/>
       <use x="95.410156" xlink:href="#DejaVuSans-31"/>
       <use x="159.033203" xlink:href="#DejaVuSans-38"/>
      </g>
     </g>
    </g>
    <g id="text_29">
     <!-- Normalized Loss -->
     <g style="fill:#262626;" transform="translate(37.314375 625.417396)rotate(-90)scale(0.12 -0.12)">
      <use xlink:href="#DejaVuSans-4e"/>
      <use x="74.804688" xlink:href="#DejaVuSans-6f"/>
      <use x="135.986328" xlink:href="#DejaVuSans-72"/>
      <use x="175.349609" xlink:href="#DejaVuSans-6d"/>
      <use x="272.761719" xlink:href="#DejaVuSans-61"/>
      <use x="334.041016" xlink:href="#DejaVuSans-6c"/>
      <use x="361.824219" xlink:href="#DejaVuSans-69"/>
      <use x="389.607422" xlink:href="#DejaVuSans-7a"/>
      <use x="442.097656" xlink:href="#DejaVuSans-65"/>
      <use x="503.621094" xlink:href="#DejaVuSans-64"/>
      <use x="567.097656" xlink:href="#DejaVuSans-20"/>
      <use x="598.884766" xlink:href="#DejaVuSans-4c"/>
      <use x="652.847656" xlink:href="#DejaVuSans-6f"/>
      <use x="714.029297" xlink:href="#DejaVuSans-73"/>
      <use x="766.128906" xlink:href="#DejaVuSans-73"/>
     </g>
    </g>
   </g>
   <g id="line2d_38">
    <path clip-path="url(#pf1dedf8d8d)" d="M 86.857585 348.29415 
L 89.444842 481.320683 
L 92.032098 511.342803 
L 94.619355 525.645297 
L 97.206611 532.931745 
L 99.793868 538.24761 
L 102.381124 541.755493 
L 104.968381 544.567353 
L 107.555637 546.377678 
L 110.142894 548.688932 
L 112.73015 549.344516 
L 115.317407 551.038153 
L 117.904663 551.988815 
L 120.49192 553.709251 
L 123.079176 555.06444 
L 125.666433 555.958798 
L 128.253689 556.406242 
L 130.840946 556.982128 
L 133.428202 557.227987 
L 136.015459 558.18464 
L 138.602715 558.826722 
L 141.189972 559.030148 
L 143.777228 559.273738 
L 146.364485 559.688496 
L 148.951741 560.10322 
L 151.538998 560.855132 
L 154.126254 560.47768 
L 156.713511 561.281791 
L 159.300767 560.990906 
L 161.888024 561.378571 
L 164.47528 560.947898 
L 167.062537 561.413725 
L 169.649793 561.1884 
L 172.23705 561.447969 
L 174.824306 610.173101 
L 177.411563 622.824297 
L 179.998819 627.262425 
L 182.586075 629.483379 
L 185.173332 631.028865 
L 187.760588 632.985975 
L 190.347845 633.921708 
L 192.935101 634.665944 
L 195.522358 635.742801 
L 198.109614 636.161482 
L 200.696871 636.480955 
L 203.284127 637.333038 
L 205.871384 637.429048 
L 208.45864 638.3554 
L 211.045897 638.988025 
L 213.633153 638.846479 
L 216.22041 639.179398 
L 218.807666 639.546206 
L 221.394923 639.770898 
L 223.982179 640.483003 
L 226.569436 640.27654 
L 229.156692 640.702313 
L 231.743949 640.861904 
L 234.331205 640.670838 
L 236.918462 640.951491 
L 239.505718 640.97815 
L 242.092975 641.698152 
L 244.680231 641.288503 
L 247.267488 641.897687 
L 249.854744 642.038998 
L 252.442001 641.896825 
L 255.029257 642.074831 
L 257.616514 642.113514 
L 260.20377 642.248029 
L 262.791027 642.183584 
L 265.378283 642.335079 
L 267.96554 642.474441 
" style="fill:none;stroke:#4c72b0;stroke-linecap:round;stroke-width:1.5;"/>
   </g>
   <g id="line2d_39">
    <path clip-path="url(#pf1dedf8d8d)" d="M 86.857585 452.892462 
L 89.444842 511.500985 
L 92.032098 527.276548 
L 94.619355 529.488558 
L 97.206611 542.582072 
L 99.793868 541.196333 
L 102.381124 546.148502 
L 104.968381 551.551809 
L 107.555637 548.456975 
L 110.142894 554.620111 
L 112.73015 556.802169 
L 115.317407 554.634405 
L 117.904663 547.268422 
L 120.49192 554.256838 
L 123.079176 558.991912 
L 125.666433 560.415901 
L 128.253689 557.343168 
L 130.840946 565.823372 
L 133.428202 559.443573 
L 136.015459 564.86684 
L 138.602715 567.04738 
L 141.189972 557.75493 
L 143.777228 570.512134 
L 146.364485 559.950951 
L 148.951741 568.371401 
L 151.538998 565.759683 
L 154.126254 560.005673 
L 156.713511 567.295567 
L 159.300767 570.503855 
L 161.888024 562.438368 
L 164.47528 568.93839 
L 167.062537 567.048217 
L 169.649793 566.713305 
L 172.23705 555.95217 
L 174.824306 615.351984 
L 177.411563 619.191992 
L 179.998819 620.65489 
L 182.586075 622.698236 
L 185.173332 621.334148 
L 187.760588 620.753712 
L 190.347845 627.512379 
L 192.935101 625.612276 
L 195.522358 625.046857 
L 198.109614 627.311012 
L 200.696871 627.812257 
L 203.284127 627.599062 
L 205.871384 625.91389 
L 208.45864 628.227012 
L 211.045897 626.972916 
L 213.633153 629.085763 
L 216.22041 627.324956 
L 218.807666 629.307177 
L 221.394923 629.137593 
L 223.982179 627.771314 
L 226.569436 628.970833 
L 229.156692 628.784878 
L 231.743949 628.654178 
L 234.331205 625.015471 
L 236.918462 630.791493 
L 239.505718 629.835654 
L 242.092975 629.459145 
L 244.680231 623.170658 
L 247.267488 632.205185 
L 249.854744 631.274086 
L 252.442001 629.497997 
L 255.029257 626.150509 
L 257.616514 630.316668 
L 260.20377 630.541475 
L 262.791027 632.55633 
L 265.378283 632.204437 
L 267.96554 631.056277 
" style="fill:none;stroke:#4c72b0;stroke-dasharray:5.55,2.4;stroke-dashoffset:0;stroke-width:1.5;"/>
   </g>
   <g id="patch_15">
    <path d="M 77.802188 664.14 
L 77.802188 488.506667 
" style="fill:none;stroke:#ffffff;stroke-linecap:square;stroke-linejoin:miter;stroke-width:1.25;"/>
   </g>
   <g id="patch_16">
    <path d="M 277.020938 664.14 
L 277.020938 488.506667 
" style="fill:none;stroke:#ffffff;stroke-linecap:square;stroke-linejoin:miter;stroke-width:1.25;"/>
   </g>
   <g id="patch_17">
    <path d="M 77.802188 664.14 
L 277.020938 664.14 
" style="fill:none;stroke:#ffffff;stroke-linecap:square;stroke-linejoin:miter;stroke-width:1.25;"/>
   </g>
   <g id="patch_18">
    <path d="M 77.802188 488.506667 
L 277.020938 488.506667 
" style="fill:none;stroke:#ffffff;stroke-linecap:square;stroke-linejoin:miter;stroke-width:1.25;"/>
   </g>
   <g id="text_30">
    <!-- Loss With Z_std Normalization -->
    <g style="fill:#262626;" transform="translate(86.819063 482.506667)scale(0.12 -0.12)">
     <defs>
      <path d="M 359 4666 
L 4025 4666 
L 4025 4184 
L 1075 531 
L 4097 531 
L 4097 0 
L 288 0 
L 288 481 
L 3238 4134 
L 359 4134 
L 359 4666 
z
" id="DejaVuSans-5a" transform="scale(0.015625)"/>
     </defs>
     <use xlink:href="#DejaVuSans-4c"/>
     <use x="53.962891" xlink:href="#DejaVuSans-6f"/>
     <use x="115.144531" xlink:href="#DejaVuSans-73"/>
     <use x="167.244141" xlink:href="#DejaVuSans-73"/>
     <use x="219.34375" xlink:href="#DejaVuSans-20"/>
     <use x="251.130859" xlink:href="#DejaVuSans-57"/>
     <use x="347.757812" xlink:href="#DejaVuSans-69"/>
     <use x="375.541016" xlink:href="#DejaVuSans-74"/>
     <use x="414.75" xlink:href="#DejaVuSans-68"/>
     <use x="478.128906" xlink:href="#DejaVuSans-20"/>
     <use x="509.916016" xlink:href="#DejaVuSans-5a"/>
     <use x="578.421875" xlink:href="#DejaVuSans-5f"/>
     <use x="628.421875" xlink:href="#DejaVuSans-73"/>
     <use x="680.521484" xlink:href="#DejaVuSans-74"/>
     <use x="719.730469" xlink:href="#DejaVuSans-64"/>
     <use x="783.207031" xlink:href="#DejaVuSans-20"/>
     <use x="814.994141" xlink:href="#DejaVuSans-4e"/>
     <use x="889.798828" xlink:href="#DejaVuSans-6f"/>
     <use x="950.980469" xlink:href="#DejaVuSans-72"/>
     <use x="990.34375" xlink:href="#DejaVuSans-6d"/>
     <use x="1087.755859" xlink:href="#DejaVuSans-61"/>
     <use x="1149.035156" xlink:href="#DejaVuSans-6c"/>
     <use x="1176.818359" xlink:href="#DejaVuSans-69"/>
     <use x="1204.601562" xlink:href="#DejaVuSans-7a"/>
     <use x="1257.091797" xlink:href="#DejaVuSans-61"/>
     <use x="1318.371094" xlink:href="#DejaVuSans-74"/>
     <use x="1357.580078" xlink:href="#DejaVuSans-69"/>
     <use x="1385.363281" xlink:href="#DejaVuSans-6f"/>
     <use x="1446.544922" xlink:href="#DejaVuSans-6e"/>
    </g>
   </g>
   <g id="legend_3">
    <g id="patch_19">
     <path d="M 207.734688 529.598542 
L 269.320938 529.598542 
Q 271.520938 529.598542 271.520938 527.398542 
L 271.520938 496.206667 
Q 271.520938 494.006667 269.320938 494.006667 
L 207.734688 494.006667 
Q 205.534688 494.006667 205.534688 496.206667 
L 205.534688 527.398542 
Q 205.534688 529.598542 207.734688 529.598542 
z
" style="fill:#eaeaf2;opacity:0.8;stroke:#cccccc;stroke-linejoin:miter;"/>
    </g>
    <g id="line2d_40">
     <path d="M 209.934688 502.914948 
L 231.934688 502.914948 
" style="fill:none;stroke:#4c72b0;stroke-linecap:round;stroke-width:1.5;"/>
    </g>
    <g id="line2d_41"/>
    <g id="text_31">
     <!-- Train -->
     <g style="fill:#262626;" transform="translate(240.734688 506.764948)scale(0.11 -0.11)">
      <use xlink:href="#DejaVuSans-54"/>
      <use x="46.333984" xlink:href="#DejaVuSans-72"/>
      <use x="87.447266" xlink:href="#DejaVuSans-61"/>
      <use x="148.726562" xlink:href="#DejaVuSans-69"/>
      <use x="176.509766" xlink:href="#DejaVuSans-6e"/>
     </g>
    </g>
    <g id="line2d_42">
     <path d="M 209.934688 519.060885 
L 231.934688 519.060885 
" style="fill:none;stroke:#4c72b0;stroke-dasharray:5.55,2.4;stroke-dashoffset:0;stroke-width:1.5;"/>
    </g>
    <g id="line2d_43"/>
    <g id="text_32">
     <!-- Test -->
     <g style="fill:#262626;" transform="translate(240.734688 522.910885)scale(0.11 -0.11)">
      <use xlink:href="#DejaVuSans-54"/>
      <use x="44.083984" xlink:href="#DejaVuSans-65"/>
      <use x="105.607422" xlink:href="#DejaVuSans-73"/>
      <use x="157.707031" xlink:href="#DejaVuSans-74"/>
     </g>
    </g>
   </g>
  </g>
  <g id="axes_4">
   <g id="patch_20">
    <path d="M 339.330938 664.14 
L 1061.607188 664.14 
L 1061.607188 50.52 
L 339.330938 50.52 
z
" style="fill:#eaeaf2;"/>
   </g>
   <g id="matplotlib.axis_7">
    <g id="xtick_13">
     <g id="line2d_44">
      <path clip-path="url(#p32f85e0700)" d="M 372.161676 664.14 
L 372.161676 50.52 
" style="fill:none;stroke:#ffffff;stroke-linecap:round;"/>
     </g>
     <g id="text_33">
      <!-- 0 -->
      <g style="fill:#262626;" transform="translate(368.662301 681.998281)scale(0.11 -0.11)">
       <use xlink:href="#DejaVuSans-30"/>
      </g>
     </g>
    </g>
    <g id="xtick_14">
     <g id="line2d_45">
      <path clip-path="url(#p32f85e0700)" d="M 465.963787 664.14 
L 465.963787 50.52 
" style="fill:none;stroke:#ffffff;stroke-linecap:round;"/>
     </g>
     <g id="text_34">
      <!-- 10 -->
      <g style="fill:#262626;" transform="translate(458.965037 681.998281)scale(0.11 -0.11)">
       <use xlink:href="#DejaVuSans-31"/>
       <use x="63.623047" xlink:href="#DejaVuSans-30"/>
      </g>
     </g>
    </g>
    <g id="xtick_15">
     <g id="line2d_46">
      <path clip-path="url(#p32f85e0700)" d="M 559.765897 664.14 
L 559.765897 50.52 
" style="fill:none;stroke:#ffffff;stroke-linecap:round;"/>
     </g>
     <g id="text_35">
      <!-- 20 -->
      <g style="fill:#262626;" transform="translate(552.767147 681.998281)scale(0.11 -0.11)">
       <use xlink:href="#DejaVuSans-32"/>
       <use x="63.623047" xlink:href="#DejaVuSans-30"/>
      </g>
     </g>
    </g>
    <g id="xtick_16">
     <g id="line2d_47">
      <path clip-path="url(#p32f85e0700)" d="M 653.568007 664.14 
L 653.568007 50.52 
" style="fill:none;stroke:#ffffff;stroke-linecap:round;"/>
     </g>
     <g id="text_36">
      <!-- 30 -->
      <g style="fill:#262626;" transform="translate(646.569257 681.998281)scale(0.11 -0.11)">
       <use xlink:href="#DejaVuSans-33"/>
       <use x="63.623047" xlink:href="#DejaVuSans-30"/>
      </g>
     </g>
    </g>
    <g id="xtick_17">
     <g id="line2d_48">
      <path clip-path="url(#p32f85e0700)" d="M 747.370118 664.14 
L 747.370118 50.52 
" style="fill:none;stroke:#ffffff;stroke-linecap:round;"/>
     </g>
     <g id="text_37">
      <!-- 40 -->
      <g style="fill:#262626;" transform="translate(740.371368 681.998281)scale(0.11 -0.11)">
       <use xlink:href="#DejaVuSans-34"/>
       <use x="63.623047" xlink:href="#DejaVuSans-30"/>
      </g>
     </g>
    </g>
    <g id="xtick_18">
     <g id="line2d_49">
      <path clip-path="url(#p32f85e0700)" d="M 841.172228 664.14 
L 841.172228 50.52 
" style="fill:none;stroke:#ffffff;stroke-linecap:round;"/>
     </g>
     <g id="text_38">
      <!-- 50 -->
      <g style="fill:#262626;" transform="translate(834.173478 681.998281)scale(0.11 -0.11)">
       <use xlink:href="#DejaVuSans-35"/>
       <use x="63.623047" xlink:href="#DejaVuSans-30"/>
      </g>
     </g>
    </g>
    <g id="xtick_19">
     <g id="line2d_50">
      <path clip-path="url(#p32f85e0700)" d="M 934.974338 664.14 
L 934.974338 50.52 
" style="fill:none;stroke:#ffffff;stroke-linecap:round;"/>
     </g>
     <g id="text_39">
      <!-- 60 -->
      <g style="fill:#262626;" transform="translate(927.975588 681.998281)scale(0.11 -0.11)">
       <use xlink:href="#DejaVuSans-36"/>
       <use x="63.623047" xlink:href="#DejaVuSans-30"/>
      </g>
     </g>
    </g>
    <g id="xtick_20">
     <g id="line2d_51">
      <path clip-path="url(#p32f85e0700)" d="M 1028.776449 664.14 
L 1028.776449 50.52 
" style="fill:none;stroke:#ffffff;stroke-linecap:round;"/>
     </g>
     <g id="text_40">
      <!-- 70 -->
      <g style="fill:#262626;" transform="translate(1021.777699 681.998281)scale(0.11 -0.11)">
       <use xlink:href="#DejaVuSans-37"/>
       <use x="63.623047" xlink:href="#DejaVuSans-30"/>
      </g>
     </g>
    </g>
    <g id="text_41">
     <!-- Epoch -->
     <g style="fill:#262626;" transform="translate(682.095938 697.404062)scale(0.12 -0.12)">
      <use xlink:href="#DejaVuSans-45"/>
      <use x="63.183594" xlink:href="#DejaVuSans-70"/>
      <use x="126.660156" xlink:href="#DejaVuSans-6f"/>
      <use x="187.841797" xlink:href="#DejaVuSans-63"/>
      <use x="242.822266" xlink:href="#DejaVuSans-68"/>
     </g>
    </g>
   </g>
   <g id="matplotlib.axis_8">
    <g id="ytick_14">
     <g id="line2d_52">
      <path clip-path="url(#p32f85e0700)" d="M 339.330938 548.296409 
L 1061.607188 548.296409 
" style="fill:none;stroke:#ffffff;stroke-linecap:round;"/>
     </g>
     <g id="text_42">
      <!-- 0.08 -->
      <g style="fill:#262626;" transform="translate(305.33875 552.47555)scale(0.11 -0.11)">
       <use xlink:href="#DejaVuSans-30"/>
       <use x="63.623047" xlink:href="#DejaVuSans-2e"/>
       <use x="95.410156" xlink:href="#DejaVuSans-30"/>
       <use x="159.033203" xlink:href="#DejaVuSans-38"/>
      </g>
     </g>
    </g>
    <g id="ytick_15">
     <g id="line2d_53">
      <path clip-path="url(#p32f85e0700)" d="M 339.330938 422.276948 
L 1061.607188 422.276948 
" style="fill:none;stroke:#ffffff;stroke-linecap:round;"/>
     </g>
     <g id="text_43">
      <!-- 0.10 -->
      <g style="fill:#262626;" transform="translate(305.33875 426.456089)scale(0.11 -0.11)">
       <use xlink:href="#DejaVuSans-30"/>
       <use x="63.623047" xlink:href="#DejaVuSans-2e"/>
       <use x="95.410156" xlink:href="#DejaVuSans-31"/>
       <use x="159.033203" xlink:href="#DejaVuSans-30"/>
      </g>
     </g>
    </g>
    <g id="ytick_16">
     <g id="line2d_54">
      <path clip-path="url(#p32f85e0700)" d="M 339.330938 296.257488 
L 1061.607188 296.257488 
" style="fill:none;stroke:#ffffff;stroke-linecap:round;"/>
     </g>
     <g id="text_44">
      <!-- 0.12 -->
      <g style="fill:#262626;" transform="translate(305.33875 300.436628)scale(0.11 -0.11)">
       <use xlink:href="#DejaVuSans-30"/>
       <use x="63.623047" xlink:href="#DejaVuSans-2e"/>
       <use x="95.410156" xlink:href="#DejaVuSans-31"/>
       <use x="159.033203" xlink:href="#DejaVuSans-32"/>
      </g>
     </g>
    </g>
    <g id="ytick_17">
     <g id="line2d_55">
      <path clip-path="url(#p32f85e0700)" d="M 339.330938 170.238027 
L 1061.607188 170.238027 
" style="fill:none;stroke:#ffffff;stroke-linecap:round;"/>
     </g>
     <g id="text_45">
      <!-- 0.14 -->
      <g style="fill:#262626;" transform="translate(305.33875 174.417168)scale(0.11 -0.11)">
       <use xlink:href="#DejaVuSans-30"/>
       <use x="63.623047" xlink:href="#DejaVuSans-2e"/>
       <use x="95.410156" xlink:href="#DejaVuSans-31"/>
       <use x="159.033203" xlink:href="#DejaVuSans-34"/>
      </g>
     </g>
    </g>
    <g id="text_46">
     <!-- Denormalized Testing Loss -->
     <g style="fill:#262626;" transform="translate(298.843125 437.049375)rotate(-90)scale(0.12 -0.12)">
      <defs>
       <path d="M 1259 4147 
L 1259 519 
L 2022 519 
Q 2988 519 3436 956 
Q 3884 1394 3884 2338 
Q 3884 3275 3436 3711 
Q 2988 4147 2022 4147 
L 1259 4147 
z
M 628 4666 
L 1925 4666 
Q 3281 4666 3915 4102 
Q 4550 3538 4550 2338 
Q 4550 1131 3912 565 
Q 3275 0 1925 0 
L 628 0 
L 628 4666 
z
" id="DejaVuSans-44" transform="scale(0.015625)"/>
       <path d="M 2906 1791 
Q 2906 2416 2648 2759 
Q 2391 3103 1925 3103 
Q 1463 3103 1205 2759 
Q 947 2416 947 1791 
Q 947 1169 1205 825 
Q 1463 481 1925 481 
Q 2391 481 2648 825 
Q 2906 1169 2906 1791 
z
M 3481 434 
Q 3481 -459 3084 -895 
Q 2688 -1331 1869 -1331 
Q 1566 -1331 1297 -1286 
Q 1028 -1241 775 -1147 
L 775 -588 
Q 1028 -725 1275 -790 
Q 1522 -856 1778 -856 
Q 2344 -856 2625 -561 
Q 2906 -266 2906 331 
L 2906 616 
Q 2728 306 2450 153 
Q 2172 0 1784 0 
Q 1141 0 747 490 
Q 353 981 353 1791 
Q 353 2603 747 3093 
Q 1141 3584 1784 3584 
Q 2172 3584 2450 3431 
Q 2728 3278 2906 2969 
L 2906 3500 
L 3481 3500 
L 3481 434 
z
" id="DejaVuSans-67" transform="scale(0.015625)"/>
      </defs>
      <use xlink:href="#DejaVuSans-44"/>
      <use x="77.001953" xlink:href="#DejaVuSans-65"/>
      <use x="138.525391" xlink:href="#DejaVuSans-6e"/>
      <use x="201.904297" xlink:href="#DejaVuSans-6f"/>
      <use x="263.085938" xlink:href="#DejaVuSans-72"/>
      <use x="302.449219" xlink:href="#DejaVuSans-6d"/>
      <use x="399.861328" xlink:href="#DejaVuSans-61"/>
      <use x="461.140625" xlink:href="#DejaVuSans-6c"/>
      <use x="488.923828" xlink:href="#DejaVuSans-69"/>
      <use x="516.707031" xlink:href="#DejaVuSans-7a"/>
      <use x="569.197266" xlink:href="#DejaVuSans-65"/>
      <use x="630.720703" xlink:href="#DejaVuSans-64"/>
      <use x="694.197266" xlink:href="#DejaVuSans-20"/>
      <use x="725.984375" xlink:href="#DejaVuSans-54"/>
      <use x="770.068359" xlink:href="#DejaVuSans-65"/>
      <use x="831.591797" xlink:href="#DejaVuSans-73"/>
      <use x="883.691406" xlink:href="#DejaVuSans-74"/>
      <use x="922.900391" xlink:href="#DejaVuSans-69"/>
      <use x="950.683594" xlink:href="#DejaVuSans-6e"/>
      <use x="1014.0625" xlink:href="#DejaVuSans-67"/>
      <use x="1077.539062" xlink:href="#DejaVuSans-20"/>
      <use x="1109.326172" xlink:href="#DejaVuSans-4c"/>
      <use x="1163.289062" xlink:href="#DejaVuSans-6f"/>
      <use x="1224.470703" xlink:href="#DejaVuSans-73"/>
      <use x="1276.570312" xlink:href="#DejaVuSans-73"/>
     </g>
    </g>
   </g>
   <g id="line2d_56">
    <path clip-path="url(#p32f85e0700)" d="M 372.161676 78.411818 
L 381.541887 209.72753 
L 381.541887 350.040253 
L 390.922098 380.883549 
L 400.302309 366.040902 
L 409.68252 413.715483 
L 419.062731 404.374736 
L 428.442942 437.376684 
L 437.823153 431.326869 
L 447.203364 347.10345 
L 456.583575 438.595724 
L 465.963787 420.076697 
L 475.343998 459.180416 
L 484.724209 464.69175 
L 494.10442 477.537032 
L 503.484631 477.918632 
L 512.864842 478.325969 
L 522.245053 452.623891 
L 531.625264 465.7642 
L 541.005475 485.026771 
L 550.385686 460.916422 
L 559.765897 488.42758 
L 569.146108 471.394006 
L 578.526319 363.275586 
L 587.90653 489.891002 
L 597.286741 498.79112 
L 606.666952 493.854432 
L 616.047163 480.854143 
L 625.427374 504.339354 
L 634.807585 329.008218 
L 644.187796 442.304486 
L 653.568007 497.449993 
L 662.948218 462.118033 
L 672.328429 490.777152 
L 681.70864 483.928936 
L 691.088851 438.314393 
L 700.469063 498.121865 
L 709.849274 472.742506 
L 719.229485 486.148244 
L 728.609696 501.567003 
L 737.989907 574.617783 
L 747.370118 580.289467 
L 756.750329 588.171778 
L 766.13054 593.89356 
L 775.510751 597.43179 
L 784.890962 603.167674 
L 794.271173 604.179512 
L 803.651384 603.939431 
L 813.031595 606.222693 
L 822.411806 607.052975 
L 831.792017 610.119921 
L 841.172228 612.095849 
L 850.552439 609.348669 
L 859.93265 603.014996 
L 869.312861 608.610162 
L 878.693072 612.550353 
L 888.073283 613.31537 
L 897.453494 609.65287 
L 906.833705 615.421415 
L 916.213916 614.494589 
L 925.594127 616.454399 
L 934.974338 612.723304 
L 944.35455 617.148061 
L 953.734761 616.674975 
L 963.114972 617.497242 
L 972.495183 616.135932 
L 981.875394 613.677914 
L 991.255605 616.847249 
L 1000.635816 613.590223 
L 1010.016027 616.098924 
L 1019.396238 617.196375 
L 1028.776449 616.217904 
" style="fill:none;stroke:#c44e52;stroke-linecap:round;stroke-width:1.5;"/>
   </g>
   <g id="line2d_57">
    <path clip-path="url(#p32f85e0700)" d="M 372.161676 178.530421 
L 381.541887 232.920944 
L 390.922098 220.831236 
L 400.302309 246.20481 
L 409.68252 240.141631 
L 419.062731 225.216945 
L 428.442942 237.780289 
L 437.823153 244.536681 
L 447.203364 243.15098 
L 456.583575 257.679968 
L 465.963787 228.534961 
L 475.343998 140.995719 
L 484.724209 233.082983 
L 494.10442 246.468185 
L 503.484631 222.069411 
L 512.864842 237.213434 
L 522.245053 246.800545 
L 531.625264 217.768249 
L 541.005475 234.984225 
L 550.385686 245.444812 
L 559.765897 216.731917 
L 569.146108 414.770261 
L 578.526319 432.627825 
L 587.90653 442.230995 
L 597.286741 451.998115 
L 606.666952 451.182782 
L 616.047163 446.606003 
L 625.427374 453.119505 
L 634.807585 466.838942 
L 644.187796 460.160478 
L 653.568007 465.420896 
L 662.948218 468.438717 
L 672.328429 466.894515 
L 681.70864 473.17461 
L 691.088851 471.06174 
L 700.469063 466.814743 
L 709.849274 472.147956 
L 719.229485 470.408386 
L 728.609696 468.979593 
L 737.989907 482.627071 
L 747.370118 478.980924 
L 756.750329 477.057409 
L 766.13054 479.599786 
L 775.510751 477.410522 
L 784.890962 472.04283 
L 794.271173 478.620812 
L 803.651384 479.928367 
L 813.031595 479.046517 
L 822.411806 480.073034 
L 831.792017 479.206656 
L 841.172228 483.293859 
L 850.552439 478.525379 
L 859.93265 474.475505 
L 869.312861 485.027984 
L 878.693072 462.638786 
L 888.073283 485.409236 
L 897.453494 483.718315 
L 906.833705 482.851614 
L 916.213916 479.42981 
L 925.594127 475.355634 
L 934.974338 486.220657 
L 944.35455 485.738801 
L 953.734761 483.247349 
L 963.114972 480.068084 
L 972.495183 487.63806 
L 981.875394 487.663016 
L 991.255605 478.039028 
L 1000.635816 482.686044 
L 1010.016027 483.524377 
L 1019.396238 486.819946 
L 1028.776449 486.732278 
" style="fill:none;stroke:#55a868;stroke-linecap:round;stroke-width:1.5;"/>
   </g>
   <g id="line2d_58">
    <path clip-path="url(#p32f85e0700)" d="M 372.161676 399.534664 
L 381.541887 476.753458 
L 390.922098 497.538343 
L 400.302309 500.452725 
L 409.68252 517.703902 
L 419.062731 515.878139 
L 428.442942 522.402804 
L 437.823153 529.521851 
L 447.203364 525.444298 
L 456.583575 533.564448 
L 465.963787 536.439389 
L 475.343998 533.583286 
L 484.724209 523.878326 
L 494.10442 533.085821 
L 503.484631 539.32444 
L 512.864842 541.200599 
L 522.245053 537.152167 
L 531.625264 548.325136 
L 541.005475 539.919535 
L 550.385686 547.064873 
L 559.765897 549.937817 
L 569.146108 537.694683 
L 578.526319 554.502755 
L 587.90653 540.588021 
L 597.286741 551.682264 
L 606.666952 548.241231 
L 616.047163 540.660111 
L 625.427374 550.264809 
L 634.807585 554.491845 
L 644.187796 543.865275 
L 653.568007 552.429284 
L 662.948218 549.938915 
L 672.328429 549.497654 
L 681.70864 535.319475 
L 691.088851 613.580848 
L 700.469063 618.640196 
L 709.849274 620.567607 
L 719.229485 623.259793 
L 728.609696 621.462554 
L 737.989907 620.697819 
L 747.370118 629.602597 
L 756.750329 627.099147 
L 766.13054 626.354188 
L 775.510751 629.337291 
L 784.890962 629.997697 
L 794.271173 629.716801 
L 803.651384 627.496538 
L 813.031595 630.544158 
L 822.411806 628.891844 
L 831.792017 631.675591 
L 841.172228 629.355666 
L 850.552439 631.967319 
L 859.93265 631.743881 
L 869.312861 629.943758 
L 878.693072 631.524165 
L 888.073283 631.279171 
L 897.453494 631.106957 
L 906.833705 626.312836 
L 916.213916 633.922947 
L 925.594127 632.663593 
L 934.974338 632.167527 
L 944.35455 623.882226 
L 953.734761 635.785531 
L 963.114972 634.558785 
L 972.495183 632.218718 
L 981.875394 627.808286 
L 991.255605 633.297347 
L 1000.635816 633.593544 
L 1010.016027 636.248182 
L 1019.396238 635.784548 
L 1028.776449 634.271819 
" style="fill:none;stroke:#4c72b0;stroke-linecap:round;stroke-width:1.5;"/>
   </g>
   <g id="patch_21">
    <path d="M 339.330938 664.14 
L 339.330938 50.52 
" style="fill:none;stroke:#ffffff;stroke-linecap:square;stroke-linejoin:miter;stroke-width:1.25;"/>
   </g>
   <g id="patch_22">
    <path d="M 1061.607188 664.14 
L 1061.607188 50.52 
" style="fill:none;stroke:#ffffff;stroke-linecap:square;stroke-linejoin:miter;stroke-width:1.25;"/>
   </g>
   <g id="patch_23">
    <path d="M 339.330938 664.14 
L 1061.607188 664.14 
" style="fill:none;stroke:#ffffff;stroke-linecap:square;stroke-linejoin:miter;stroke-width:1.25;"/>
   </g>
   <g id="patch_24">
    <path d="M 339.330938 50.52 
L 1061.607188 50.52 
" style="fill:none;stroke:#ffffff;stroke-linecap:square;stroke-linejoin:miter;stroke-width:1.25;"/>
   </g>
   <g id="text_47">
    <!-- Denormalized Testing Loss For Each Normalization Scheme -->
    <g style="fill:#262626;" transform="translate(523.347188 44.52)scale(0.12 -0.12)">
     <defs>
      <path d="M 628 4666 
L 3309 4666 
L 3309 4134 
L 1259 4134 
L 1259 2759 
L 3109 2759 
L 3109 2228 
L 1259 2228 
L 1259 0 
L 628 0 
L 628 4666 
z
" id="DejaVuSans-46" transform="scale(0.015625)"/>
      <path d="M 3425 4513 
L 3425 3897 
Q 3066 4069 2747 4153 
Q 2428 4238 2131 4238 
Q 1616 4238 1336 4038 
Q 1056 3838 1056 3469 
Q 1056 3159 1242 3001 
Q 1428 2844 1947 2747 
L 2328 2669 
Q 3034 2534 3370 2195 
Q 3706 1856 3706 1288 
Q 3706 609 3251 259 
Q 2797 -91 1919 -91 
Q 1588 -91 1214 -16 
Q 841 59 441 206 
L 441 856 
Q 825 641 1194 531 
Q 1563 422 1919 422 
Q 2459 422 2753 634 
Q 3047 847 3047 1241 
Q 3047 1584 2836 1778 
Q 2625 1972 2144 2069 
L 1759 2144 
Q 1053 2284 737 2584 
Q 422 2884 422 3419 
Q 422 4038 858 4394 
Q 1294 4750 2059 4750 
Q 2388 4750 2728 4690 
Q 3069 4631 3425 4513 
z
" id="DejaVuSans-53" transform="scale(0.015625)"/>
     </defs>
     <use xlink:href="#DejaVuSans-44"/>
     <use x="77.001953" xlink:href="#DejaVuSans-65"/>
     <use x="138.525391" xlink:href="#DejaVuSans-6e"/>
     <use x="201.904297" xlink:href="#DejaVuSans-6f"/>
     <use x="263.085938" xlink:href="#DejaVuSans-72"/>
     <use x="302.449219" xlink:href="#DejaVuSans-6d"/>
     <use x="399.861328" xlink:href="#DejaVuSans-61"/>
     <use x="461.140625" xlink:href="#DejaVuSans-6c"/>
     <use x="488.923828" xlink:href="#DejaVuSans-69"/>
     <use x="516.707031" xlink:href="#DejaVuSans-7a"/>
     <use x="569.197266" xlink:href="#DejaVuSans-65"/>
     <use x="630.720703" xlink:href="#DejaVuSans-64"/>
     <use x="694.197266" xlink:href="#DejaVuSans-20"/>
     <use x="725.984375" xlink:href="#DejaVuSans-54"/>
     <use x="770.068359" xlink:href="#DejaVuSans-65"/>
     <use x="831.591797" xlink:href="#DejaVuSans-73"/>
     <use x="883.691406" xlink:href="#DejaVuSans-74"/>
     <use x="922.900391" xlink:href="#DejaVuSans-69"/>
     <use x="950.683594" xlink:href="#DejaVuSans-6e"/>
     <use x="1014.0625" xlink:href="#DejaVuSans-67"/>
     <use x="1077.539062" xlink:href="#DejaVuSans-20"/>
     <use x="1109.326172" xlink:href="#DejaVuSans-4c"/>
     <use x="1163.289062" xlink:href="#DejaVuSans-6f"/>
     <use x="1224.470703" xlink:href="#DejaVuSans-73"/>
     <use x="1276.570312" xlink:href="#DejaVuSans-73"/>
     <use x="1328.669922" xlink:href="#DejaVuSans-20"/>
     <use x="1360.457031" xlink:href="#DejaVuSans-46"/>
     <use x="1414.351562" xlink:href="#DejaVuSans-6f"/>
     <use x="1475.533203" xlink:href="#DejaVuSans-72"/>
     <use x="1516.646484" xlink:href="#DejaVuSans-20"/>
     <use x="1548.433594" xlink:href="#DejaVuSans-45"/>
     <use x="1611.617188" xlink:href="#DejaVuSans-61"/>
     <use x="1672.896484" xlink:href="#DejaVuSans-63"/>
     <use x="1727.876953" xlink:href="#DejaVuSans-68"/>
     <use x="1791.255859" xlink:href="#DejaVuSans-20"/>
     <use x="1823.042969" xlink:href="#DejaVuSans-4e"/>
     <use x="1897.847656" xlink:href="#DejaVuSans-6f"/>
     <use x="1959.029297" xlink:href="#DejaVuSans-72"/>
     <use x="1998.392578" xlink:href="#DejaVuSans-6d"/>
     <use x="2095.804688" xlink:href="#DejaVuSans-61"/>
     <use x="2157.083984" xlink:href="#DejaVuSans-6c"/>
     <use x="2184.867188" xlink:href="#DejaVuSans-69"/>
     <use x="2212.650391" xlink:href="#DejaVuSans-7a"/>
     <use x="2265.140625" xlink:href="#DejaVuSans-61"/>
     <use x="2326.419922" xlink:href="#DejaVuSans-74"/>
     <use x="2365.628906" xlink:href="#DejaVuSans-69"/>
     <use x="2393.412109" xlink:href="#DejaVuSans-6f"/>
     <use x="2454.59375" xlink:href="#DejaVuSans-6e"/>
     <use x="2517.972656" xlink:href="#DejaVuSans-20"/>
     <use x="2549.759766" xlink:href="#DejaVuSans-53"/>
     <use x="2613.236328" xlink:href="#DejaVuSans-63"/>
     <use x="2668.216797" xlink:href="#DejaVuSans-68"/>
     <use x="2731.595703" xlink:href="#DejaVuSans-65"/>
     <use x="2793.119141" xlink:href="#DejaVuSans-6d"/>
     <use x="2890.53125" xlink:href="#DejaVuSans-65"/>
    </g>
   </g>
   <g id="legend_4">
    <g id="patch_25">
     <path d="M 969.722812 108.369687 
L 1053.907187 108.369687 
Q 1056.107187 108.369687 1056.107187 106.169687 
L 1056.107187 58.22 
Q 1056.107187 56.02 1053.907187 56.02 
L 969.722812 56.02 
Q 967.522812 56.02 967.522812 58.22 
L 967.522812 106.169687 
Q 967.522812 108.369687 969.722812 108.369687 
z
" style="fill:#eaeaf2;opacity:0.8;stroke:#cccccc;stroke-linejoin:miter;"/>
    </g>
    <g id="line2d_59">
     <path d="M 971.922812 64.928281 
L 993.922812 64.928281 
" style="fill:none;stroke:#c44e52;stroke-linecap:round;stroke-width:1.5;"/>
    </g>
    <g id="line2d_60"/>
    <g id="text_48">
     <!-- None -->
     <g style="fill:#262626;" transform="translate(1002.722812 68.778281)scale(0.11 -0.11)">
      <use xlink:href="#DejaVuSans-4e"/>
      <use x="74.804688" xlink:href="#DejaVuSans-6f"/>
      <use x="135.986328" xlink:href="#DejaVuSans-6e"/>
      <use x="199.365234" xlink:href="#DejaVuSans-65"/>
     </g>
    </g>
    <g id="line2d_61">
     <path d="M 971.922812 81.074219 
L 993.922812 81.074219 
" style="fill:none;stroke:#55a868;stroke-linecap:round;stroke-width:1.5;"/>
    </g>
    <g id="line2d_62"/>
    <g id="text_49">
     <!-- Min_max -->
     <g style="fill:#262626;" transform="translate(1002.722812 84.924219)scale(0.11 -0.11)">
      <use xlink:href="#DejaVuSans-4d"/>
      <use x="86.279297" xlink:href="#DejaVuSans-69"/>
      <use x="114.0625" xlink:href="#DejaVuSans-6e"/>
      <use x="177.441406" xlink:href="#DejaVuSans-5f"/>
      <use x="227.441406" xlink:href="#DejaVuSans-6d"/>
      <use x="324.853516" xlink:href="#DejaVuSans-61"/>
      <use x="386.132812" xlink:href="#DejaVuSans-78"/>
     </g>
    </g>
    <g id="line2d_63">
     <path d="M 971.922812 97.526094 
L 993.922812 97.526094 
" style="fill:none;stroke:#4c72b0;stroke-linecap:round;stroke-width:1.5;"/>
    </g>
    <g id="line2d_64"/>
    <g id="text_50">
     <!-- Z_std -->
     <g style="fill:#262626;" transform="translate(1002.722812 101.376094)scale(0.11 -0.11)">
      <use xlink:href="#DejaVuSans-5a"/>
      <use x="68.505859" xlink:href="#DejaVuSans-5f"/>
      <use x="118.505859" xlink:href="#DejaVuSans-73"/>
      <use x="170.605469" xlink:href="#DejaVuSans-74"/>
      <use x="209.814453" xlink:href="#DejaVuSans-64"/>
     </g>
    </g>
   </g>
  </g>
  <g id="text_51">
   <!-- D4 Dispersion $P_{int}$: VAE Frozen with 3x256 Prediction Network -->
   <g style="fill:#262626;" transform="translate(311.943188 18.144)scale(0.144 -0.144)">
    <defs>
     <path d="M 1081 4666 
L 2541 4666 
Q 3178 4666 3512 4369 
Q 3847 4072 3847 3500 
Q 3847 2731 3353 2303 
Q 2859 1875 1966 1875 
L 1172 1875 
L 806 0 
L 172 0 
L 1081 4666 
z
M 1613 4147 
L 1275 2394 
L 2069 2394 
Q 2606 2394 2893 2669 
Q 3181 2944 3181 3456 
Q 3181 3784 2986 3965 
Q 2791 4147 2438 4147 
L 1613 4147 
z
" id="DejaVuSans-Oblique-50" transform="scale(0.015625)"/>
     <path d="M 1172 4863 
L 1747 4863 
L 1606 4134 
L 1031 4134 
L 1172 4863 
z
M 909 3500 
L 1484 3500 
L 800 0 
L 225 0 
L 909 3500 
z
" id="DejaVuSans-Oblique-69" transform="scale(0.015625)"/>
     <path d="M 3566 2113 
L 3156 0 
L 2578 0 
L 2988 2091 
Q 3016 2238 3031 2350 
Q 3047 2463 3047 2528 
Q 3047 2791 2881 2937 
Q 2716 3084 2419 3084 
Q 1956 3084 1622 2776 
Q 1288 2469 1184 1941 
L 800 0 
L 225 0 
L 903 3500 
L 1478 3500 
L 1363 2950 
Q 1603 3253 1940 3418 
Q 2278 3584 2650 3584 
Q 3113 3584 3367 3334 
Q 3622 3084 3622 2631 
Q 3622 2519 3608 2391 
Q 3594 2263 3566 2113 
z
" id="DejaVuSans-Oblique-6e" transform="scale(0.015625)"/>
     <path d="M 2706 3500 
L 2619 3053 
L 1472 3053 
L 1100 1153 
Q 1081 1047 1072 975 
Q 1063 903 1063 863 
Q 1063 663 1183 572 
Q 1303 481 1569 481 
L 2150 481 
L 2053 0 
L 1503 0 
Q 991 0 739 200 
Q 488 400 488 806 
Q 488 878 497 964 
Q 506 1050 525 1153 
L 897 3053 
L 409 3053 
L 500 3500 
L 978 3500 
L 1172 4494 
L 1747 4494 
L 1556 3500 
L 2706 3500 
z
" id="DejaVuSans-Oblique-74" transform="scale(0.015625)"/>
     <path d="M 750 794 
L 1409 794 
L 1409 0 
L 750 0 
L 750 794 
z
M 750 3309 
L 1409 3309 
L 1409 2516 
L 750 2516 
L 750 3309 
z
" id="DejaVuSans-3a" transform="scale(0.015625)"/>
     <path d="M 1831 0 
L 50 4666 
L 709 4666 
L 2188 738 
L 3669 4666 
L 4325 4666 
L 2547 0 
L 1831 0 
z
" id="DejaVuSans-56" transform="scale(0.015625)"/>
     <path d="M 2188 4044 
L 1331 1722 
L 3047 1722 
L 2188 4044 
z
M 1831 4666 
L 2547 4666 
L 4325 0 
L 3669 0 
L 3244 1197 
L 1141 1197 
L 716 0 
L 50 0 
L 1831 4666 
z
" id="DejaVuSans-41" transform="scale(0.015625)"/>
     <path d="M 269 3500 
L 844 3500 
L 1563 769 
L 2278 3500 
L 2956 3500 
L 3675 769 
L 4391 3500 
L 4966 3500 
L 4050 0 
L 3372 0 
L 2619 2869 
L 1863 0 
L 1184 0 
L 269 3500 
z
" id="DejaVuSans-77" transform="scale(0.015625)"/>
     <path d="M 1259 4147 
L 1259 2394 
L 2053 2394 
Q 2494 2394 2734 2622 
Q 2975 2850 2975 3272 
Q 2975 3691 2734 3919 
Q 2494 4147 2053 4147 
L 1259 4147 
z
M 628 4666 
L 2053 4666 
Q 2838 4666 3239 4311 
Q 3641 3956 3641 3272 
Q 3641 2581 3239 2228 
Q 2838 1875 2053 1875 
L 1259 1875 
L 1259 0 
L 628 0 
L 628 4666 
z
" id="DejaVuSans-50" transform="scale(0.015625)"/>
     <path d="M 581 4863 
L 1159 4863 
L 1159 1991 
L 2875 3500 
L 3609 3500 
L 1753 1863 
L 3688 0 
L 2938 0 
L 1159 1709 
L 1159 0 
L 581 0 
L 581 4863 
z
" id="DejaVuSans-6b" transform="scale(0.015625)"/>
    </defs>
    <use transform="translate(0 0.015625)" xlink:href="#DejaVuSans-44"/>
    <use transform="translate(77.001953 0.015625)" xlink:href="#DejaVuSans-34"/>
    <use transform="translate(140.625 0.015625)" xlink:href="#DejaVuSans-20"/>
    <use transform="translate(172.412109 0.015625)" xlink:href="#DejaVuSans-44"/>
    <use transform="translate(249.414062 0.015625)" xlink:href="#DejaVuSans-69"/>
    <use transform="translate(277.197266 0.015625)" xlink:href="#DejaVuSans-73"/>
    <use transform="translate(329.296875 0.015625)" xlink:href="#DejaVuSans-70"/>
    <use transform="translate(392.773438 0.015625)" xlink:href="#DejaVuSans-65"/>
    <use transform="translate(454.296875 0.015625)" xlink:href="#DejaVuSans-72"/>
    <use transform="translate(495.410156 0.015625)" xlink:href="#DejaVuSans-73"/>
    <use transform="translate(547.509766 0.015625)" xlink:href="#DejaVuSans-69"/>
    <use transform="translate(575.292969 0.015625)" xlink:href="#DejaVuSans-6f"/>
    <use transform="translate(636.474609 0.015625)" xlink:href="#DejaVuSans-6e"/>
    <use transform="translate(699.853516 0.015625)" xlink:href="#DejaVuSans-20"/>
    <use transform="translate(731.640625 0.015625)" xlink:href="#DejaVuSans-Oblique-50"/>
    <use transform="translate(791.943359 -16.390625)scale(0.7)" xlink:href="#DejaVuSans-Oblique-69"/>
    <use transform="translate(811.391602 -16.390625)scale(0.7)" xlink:href="#DejaVuSans-Oblique-6e"/>
    <use transform="translate(855.756836 -16.390625)scale(0.7)" xlink:href="#DejaVuSans-Oblique-74"/>
    <use transform="translate(885.9375 0.015625)" xlink:href="#DejaVuSans-3a"/>
    <use transform="translate(919.628906 0.015625)" xlink:href="#DejaVuSans-20"/>
    <use transform="translate(951.416016 0.015625)" xlink:href="#DejaVuSans-56"/>
    <use transform="translate(1019.824219 0.015625)" xlink:href="#DejaVuSans-41"/>
    <use transform="translate(1088.232422 0.015625)" xlink:href="#DejaVuSans-45"/>
    <use transform="translate(1151.416016 0.015625)" xlink:href="#DejaVuSans-20"/>
    <use transform="translate(1183.203125 0.015625)" xlink:href="#DejaVuSans-46"/>
    <use transform="translate(1240.722656 0.015625)" xlink:href="#DejaVuSans-72"/>
    <use transform="translate(1281.835938 0.015625)" xlink:href="#DejaVuSans-6f"/>
    <use transform="translate(1343.017578 0.015625)" xlink:href="#DejaVuSans-7a"/>
    <use transform="translate(1395.507812 0.015625)" xlink:href="#DejaVuSans-65"/>
    <use transform="translate(1457.03125 0.015625)" xlink:href="#DejaVuSans-6e"/>
    <use transform="translate(1520.410156 0.015625)" xlink:href="#DejaVuSans-20"/>
    <use transform="translate(1552.197266 0.015625)" xlink:href="#DejaVuSans-77"/>
    <use transform="translate(1633.984375 0.015625)" xlink:href="#DejaVuSans-69"/>
    <use transform="translate(1661.767578 0.015625)" xlink:href="#DejaVuSans-74"/>
    <use transform="translate(1700.976562 0.015625)" xlink:href="#DejaVuSans-68"/>
    <use transform="translate(1764.355469 0.015625)" xlink:href="#DejaVuSans-20"/>
    <use transform="translate(1796.142578 0.015625)" xlink:href="#DejaVuSans-33"/>
    <use transform="translate(1859.765625 0.015625)" xlink:href="#DejaVuSans-78"/>
    <use transform="translate(1918.945312 0.015625)" xlink:href="#DejaVuSans-32"/>
    <use transform="translate(1982.568359 0.015625)" xlink:href="#DejaVuSans-35"/>
    <use transform="translate(2046.191406 0.015625)" xlink:href="#DejaVuSans-36"/>
    <use transform="translate(2109.814453 0.015625)" xlink:href="#DejaVuSans-20"/>
    <use transform="translate(2141.601562 0.015625)" xlink:href="#DejaVuSans-50"/>
    <use transform="translate(2201.904297 0.015625)" xlink:href="#DejaVuSans-72"/>
    <use transform="translate(2243.017578 0.015625)" xlink:href="#DejaVuSans-65"/>
    <use transform="translate(2304.541016 0.015625)" xlink:href="#DejaVuSans-64"/>
    <use transform="translate(2368.017578 0.015625)" xlink:href="#DejaVuSans-69"/>
    <use transform="translate(2395.800781 0.015625)" xlink:href="#DejaVuSans-63"/>
    <use transform="translate(2450.78125 0.015625)" xlink:href="#DejaVuSans-74"/>
    <use transform="translate(2489.990234 0.015625)" xlink:href="#DejaVuSans-69"/>
    <use transform="translate(2517.773438 0.015625)" xlink:href="#DejaVuSans-6f"/>
    <use transform="translate(2578.955078 0.015625)" xlink:href="#DejaVuSans-6e"/>
    <use transform="translate(2642.333984 0.015625)" xlink:href="#DejaVuSans-20"/>
    <use transform="translate(2674.121094 0.015625)" xlink:href="#DejaVuSans-4e"/>
    <use transform="translate(2748.925781 0.015625)" xlink:href="#DejaVuSans-65"/>
    <use transform="translate(2810.449219 0.015625)" xlink:href="#DejaVuSans-74"/>
    <use transform="translate(2849.658203 0.015625)" xlink:href="#DejaVuSans-77"/>
    <use transform="translate(2931.445312 0.015625)" xlink:href="#DejaVuSans-6f"/>
    <use transform="translate(2992.626953 0.015625)" xlink:href="#DejaVuSans-72"/>
    <use transform="translate(3033.740234 0.015625)" xlink:href="#DejaVuSans-6b"/>
   </g>
  </g>
 </g>
 <defs>
  <clipPath id="p553908a011">
   <rect height="175.633333" width="199.21875" x="77.802188" y="50.52"/>
  </clipPath>
  <clipPath id="p439d1588dd">
   <rect height="175.633333" width="199.21875" x="77.802188" y="269.513333"/>
  </clipPath>
  <clipPath id="pf1dedf8d8d">
   <rect height="175.633333" width="199.21875" x="77.802188" y="488.506667"/>
  </clipPath>
  <clipPath id="p32f85e0700">
   <rect height="613.62" width="722.27625" x="339.330938" y="50.52"/>
  </clipPath>
 </defs>
</svg>
